<svg id="Layer_1" data-name="Layer 1" xmlns="http://www.w3.org/2000/svg" viewBox="0 0 927.96 454.77"><defs><style>.cls-1{font-size:135.08px;fill:none;stroke:#ca589a;stroke-miterlimit:10;stroke-width:2.59px;font-family:Montserrat-Bold, Montserrat;font-weight:700;}.cls-2{letter-spacing:-0.05em;}.cls-3{letter-spacing:-0.02em;}.cls-4{letter-spacing:0em;}.cls-5{font-size:136.97px;font-family:Skywalker, Skywalker;}.cls-14,.cls-15,.cls-16,.cls-5{fill:#1a1d1c;}.cls-6{letter-spacing:-0.03em;}.cls-7{letter-spacing:-0.01em;}.cls-8{letter-spacing:-0.06em;}.cls-9{font-size:13px;fill:#ca589a;font-family:Montserrat-Regular, Montserrat;}.cls-10{letter-spacing:0em;}.cls-11,.cls-15{letter-spacing:0.11em;}.cls-12{letter-spacing:-0.01em;}.cls-13{letter-spacing:0.11em;}.cls-16,.cls-23{letter-spacing:-0.01em;}.cls-17{letter-spacing:-0.01em;}.cls-18{letter-spacing:-0.01em;}.cls-19{letter-spacing:0em;}.cls-20{letter-spacing:-0.01em;}.cls-21{letter-spacing:0.11em;}.cls-22{letter-spacing:0em;}.cls-24{letter-spacing:0em;}.cls-25{letter-spacing:0em;}.cls-26{letter-spacing:0em;}.cls-27{letter-spacing:0em;}.cls-28{letter-spacing:0em;}.cls-29{letter-spacing:-0.01em;}.cls-30{letter-spacing:0em;}.cls-31{letter-spacing:-0.01em;}.cls-32{letter-spacing:0em;}.cls-33{letter-spacing:-0.01em;}.cls-34{letter-spacing:0em;}.cls-35{letter-spacing:-0.02em;}.cls-36{letter-spacing:-0.02em;}</style></defs><title>cards</title><text class="cls-1" transform="translate(62.36 143.06)">2<tspan class="cls-2" x="81.04" y="0">P</tspan><tspan class="cls-3" x="165.87" y="0">A</tspan><tspan class="cls-4" x="267.31" y="0">C</tspan></text><text class="cls-5" transform="translate(145.56 237.79)"><tspan class="cls-6">T</tspan><tspan class="cls-7" x="64.24" y="0">h</tspan><tspan x="127.52" y="0">e Po</tspan><tspan class="cls-8" x="365.71" y="0">e</tspan><tspan x="409.67" y="0">t</tspan></text><text class="cls-9" transform="translate(58.5 348.89)"><tspan class="cls-10">T</tspan><tspan x="7.79" y="0">he</tspan><tspan class="cls-11" x="24.22" y="0"> </tspan><tspan class="cls-10" x="29.17" y="0">r</tspan><tspan x="34.27" y="0">apper</tspan><tspan class="cls-11" x="72.57" y="0"> </tspan><tspan x="77.52" y="0">th</tspan><tspan class="cls-12" x="91.35" y="0">a</tspan><tspan x="98.91" y="0">t</tspan><tspan class="cls-13" x="104.34" y="0"> </tspan><tspan x="109.3" y="0">made</tspan><tspan class="cls-11" x="146.88" y="0"> </tspan><tspan x="151.83" y="0">music</tspan><tspan class="cls-11" x="191.04" y="0"> </tspan><tspan class="cls-14" x="196" y="0">so</tspan><tspan class="cls-15" x="211.05" y="0"> </tspan><tspan class="cls-14" x="216.01" y="0">p</tspan><tspan class="cls-16" x="224.74" y="0">o</tspan><tspan class="cls-14" x="233.13" y="0">werful</tspan><tspan class="cls-13" x="275.16" y="0"> </tspan><tspan x="280.11" y="0">th</tspan><tspan class="cls-17" x="293.94" y="0">a</tspan><tspan x="301.5" y="0">t</tspan><tspan class="cls-11" x="306.93" y="0"> </tspan><tspan x="311.89" y="0">it</tspan><tspan class="cls-11" x="320.88" y="0"> </tspan><tspan x="325.84" y="0">is</tspan><tspan class="cls-11" x="335.98" y="0"> </tspan><tspan x="340.93" y="0">felt</tspan><tspan class="cls-13" x="362.98" y="0"> </tspan><tspan x="367.93" y="0">all</tspan><tspan class="cls-11" x="382.69" y="0"> </tspan><tspan class="cls-18" x="387.64" y="0">o</tspan><tspan x="396" y="0">ver</tspan><tspan class="cls-11" x="416.63" y="0"> </tspan><tspan class="cls-19" x="421.59" y="0">the</tspan><tspan class="cls-13" x="443.45" y="0"> </tspan><tspan x="448.41" y="0">globe.</tspan><tspan class="cls-13" x="489.36" y="0"> </tspan><tspan x="494.31" y="0">2</tspan><tspan class="cls-20" x="501.97" y="0">P</tspan><tspan x="510.73" y="0">ac</tspan><tspan class="cls-13" x="525.85" y="0"> </tspan><tspan x="530.8" y="0">cre</tspan><tspan class="cls-17" x="551.49" y="0">a</tspan><tspan x="559.04" y="0">ted</tspan><tspan class="cls-21" x="581.24" y="0"> </tspan><tspan x="586.2" y="0">music</tspan><tspan class="cls-13" x="625.41" y="0"> </tspan><tspan class="cls-22" x="630.36" y="0">t</tspan><tspan x="635.74" y="0">o</tspan><tspan class="cls-13" x="644.22" y="0"> </tspan><tspan x="649.17" y="0">emp</tspan><tspan class="cls-23" x="679.12" y="0">o</tspan><tspan x="687.51" y="0">wer</tspan><tspan class="cls-13" x="712.56" y="0"> </tspan><tspan x="717.51" y="0">people,</tspan><tspan class="cls-13" x="766.75" y="0"> </tspan><tspan x="771.7" y="0">he</tspan><tspan class="cls-21" x="788.13" y="0"> </tspan><tspan class="cls-24" x="793.09" y="0">w</tspan><tspan x="804.88" y="0">as </tspan><tspan x="0" y="15.6">against</tspan><tspan class="cls-25" x="47.74" y="15.6"> </tspan><tspan x="51.24" y="15.6">the</tspan><tspan class="cls-25" x="73.11" y="15.6"> </tspan><tspan x="76.62" y="15.6">rules</tspan><tspan class="cls-25" x="108.35" y="15.6"> </tspan><tspan x="111.86" y="15.6">th</tspan><tspan class="cls-17" x="125.69" y="15.6">a</tspan><tspan x="133.24" y="15.6">t</tspan><tspan class="cls-26" x="138.68" y="15.6"> </tspan><tspan x="142.18" y="15.6">soci</tspan><tspan class="cls-22" x="168.29" y="15.6">e</tspan><tspan x="176.27" y="15.6">ty</tspan><tspan class="cls-25" x="189.17" y="15.6"> </tspan><tspan x="192.67" y="15.6">had</tspan><tspan class="cls-25" x="217.44" y="15.6"> </tspan><tspan x="220.95" y="15.6">placed</tspan><tspan class="cls-25" x="265.13" y="15.6"> </tspan><tspan x="268.64" y="15.6">on</tspan><tspan class="cls-25" x="285.51" y="15.6"> </tspan><tspan x="289.02" y="15.6">him</tspan><tspan class="cls-25" x="314.16" y="15.6"> </tspan><tspan x="317.67" y="15.6">and</tspan><tspan class="cls-26" x="342.43" y="15.6"> </tspan><tspan x="345.94" y="15.6">his</tspan><tspan class="cls-25" x="364.48" y="15.6"> </tspan><tspan x="367.99" y="15.6">people</tspan><tspan class="cls-25" x="413.57" y="15.6"> </tspan><tspan x="417.07" y="15.6">and</tspan><tspan class="cls-25" x="441.84" y="15.6"> </tspan><tspan x="445.35" y="15.6">he</tspan><tspan class="cls-25" x="461.78" y="15.6"> </tspan><tspan class="cls-24" x="465.28" y="15.6">w</tspan><tspan x="477.07" y="15.6">asn&apos;t</tspan><tspan class="cls-25" x="508.13" y="15.6"> </tspan><tspan x="511.64" y="15.6">one</tspan><tspan class="cls-25" x="536.55" y="15.6"> </tspan><tspan x="540.05" y="15.6">bit</tspan><tspan class="cls-25" x="557.78" y="15.6" xml:space="preserve"> a</tspan><tspan x="568.87" y="15.6">f</tspan><tspan class="cls-24" x="573.89" y="15.6">r</tspan><tspan x="578.98" y="15.6">aid</tspan><tspan class="cls-25" x="598.91" y="15.6" xml:space="preserve"> t</tspan><tspan x="607.8" y="15.6">o</tspan><tspan class="cls-27" x="616.28" y="15.6"> </tspan><tspan x="619.78" y="15.6">speak</tspan><tspan class="cls-25" x="658.32" y="15.6"> </tspan><tspan x="661.82" y="15.6">out</tspan><tspan class="cls-25" x="684.13" y="15.6"> </tspan><tspan x="687.64" y="15.6">about</tspan><tspan class="cls-25" x="726.31" y="15.6"> </tspan><tspan x="729.82" y="15.6">it.</tspan><tspan class="cls-25" x="742.45" y="15.6"> </tspan><tspan x="745.96" y="15.6">He</tspan><tspan class="cls-25" x="764.1" y="15.6"> </tspan><tspan class="cls-14" x="767.6" y="15.6">uplifted</tspan><tspan x="819.08" y="15.6"> </tspan><tspan class="cls-23" x="0" y="31.2">w</tspan><tspan x="11.77" y="31.2">omen</tspan><tspan class="cls-28" x="49.86" y="31.2"> </tspan><tspan x="53.45" y="31.2">who</tspan><tspan class="cls-28" x="82.18" y="31.2"> </tspan><tspan x="85.77" y="31.2">struggle</tspan><tspan class="cls-28" x="139.94" y="31.2"> </tspan><tspan x="143.53" y="31.2">as</tspan><tspan class="cls-28" x="157.74" y="31.2"> </tspan><tspan x="161.33" y="31.2">a</tspan><tspan class="cls-28" x="168.96" y="31.2"> </tspan><tspan x="172.55" y="31.2">single</tspan><tspan class="cls-28" x="211.19" y="31.2"> </tspan><tspan x="214.78" y="31.2">m</tspan><tspan class="cls-29" x="227.96" y="31.2">o</tspan><tspan x="236.33" y="31.2">ther</tspan><tspan class="cls-30" x="263.36" y="31.2"> </tspan><tspan x="266.95" y="31.2">and</tspan><tspan class="cls-28" x="291.72" y="31.2"> </tspan><tspan x="295.31" y="31.2">inspired</tspan><tspan class="cls-28" x="348.08" y="31.2"> </tspan><tspan class="cls-18" x="351.67" y="31.2">y</tspan><tspan x="359.01" y="31.2">oung</tspan><tspan class="cls-28" x="392.79" y="31.2"> </tspan><tspan x="396.38" y="31.2">black</tspan><tspan class="cls-28" x="431.35" y="31.2"> </tspan><tspan x="434.94" y="31.2">males</tspan><tspan class="cls-28" x="473.92" y="31.2"> </tspan><tspan class="cls-22" x="477.51" y="31.2">t</tspan><tspan x="482.9" y="31.2">o</tspan><tspan class="cls-28" x="491.37" y="31.2"> </tspan><tspan x="494.96" y="31.2">n</tspan><tspan class="cls-31" x="503.36" y="31.2">o</tspan><tspan x="511.73" y="31.2">t</tspan><tspan class="cls-32" x="517.17" y="31.2"> </tspan><tspan class="cls-33" x="520.76" y="31.2">f</tspan><tspan x="525.71" y="31.2">all</tspan><tspan class="cls-28" x="540.46" y="31.2"> </tspan><tspan x="544.05" y="31.2">victim</tspan><tspan class="cls-28" x="584.72" y="31.2"> </tspan><tspan class="cls-22" x="588.31" y="31.2">t</tspan><tspan x="593.69" y="31.2">o</tspan><tspan class="cls-28" x="602.16" y="31.2"> </tspan><tspan x="605.76" y="31.2">oppression.</tspan><tspan class="cls-28" x="682.13" y="31.2"> </tspan><tspan x="685.72" y="31.2">His</tspan><tspan class="cls-28" x="705.96" y="31.2"> </tspan><tspan x="709.55" y="31.2">s</tspan><tspan class="cls-22" x="716.13" y="31.2">t</tspan><tspan x="721.51" y="31.2">ory</tspan><tspan class="cls-28" x="742.61" y="31.2"> </tspan><tspan x="746.2" y="31.2">is</tspan><tspan class="cls-28" x="756.34" y="31.2"> </tspan><tspan x="759.93" y="31.2">p</tspan><tspan class="cls-23" x="768.67" y="31.2">o</tspan><tspan x="777.05" y="31.2">werful </tspan><tspan x="0" y="46.8">and heartfelt and sh</tspan><tspan class="cls-23" x="131.9" y="46.8">o</tspan><tspan class="cls-34" x="140.28" y="46.8">w</tspan><tspan x="152.09" y="46.8">s h</tspan><tspan class="cls-23" x="170.62" y="46.8">o</tspan><tspan x="179.01" y="46.8">w h</tspan><tspan class="cls-35" x="202.83" y="46.8">e</tspan><tspan class="cls-36" x="210.63" y="46.8">’</tspan><tspan x="213.14" y="46.8">s one </tspan><tspan class="cls-29" x="251.75" y="46.8">o</tspan><tspan x="260.12" y="46.8">f the gre</tspan><tspan class="cls-17" x="315.82" y="46.8">a</tspan><tspan x="323.38" y="46.8">test </tspan><tspan class="cls-22" x="352.42" y="46.8">t</tspan><tspan x="357.8" y="46.8">o do it in </tspan><tspan class="cls-20" x="418.69" y="46.8">R</tspan><tspan x="428.02" y="46.8">ap, check it out.</tspan></text></svg>