<svg id="Layer_1" data-name="Layer 1" xmlns="http://www.w3.org/2000/svg" viewBox="0 0 927.96 454.77"><defs><style>.cls-1{font-size:135.08px;fill:none;stroke:#ca589a;stroke-miterlimit:10;stroke-width:2.59px;}.cls-1,.cls-8{font-family:Montserrat-Bold, Montserrat;}.cls-1,.cls-10,.cls-11,.cls-12,.cls-13,.cls-9{font-weight:700;}.cls-2{font-size:136.97px;font-family:Skywalker, Skywalker;}.cls-2,.cls-36,.cls-37,.cls-38,.cls-39,.cls-40,.cls-59,.cls-8{fill:#1a1d1c;}.cls-3{letter-spacing:-0.03em;}.cls-4{letter-spacing:-0.01em;}.cls-5{letter-spacing:-0.06em;}.cls-6{letter-spacing:-0.11em;}.cls-7{letter-spacing:0.03em;}.cls-8{font-size:20px;}.cls-10{letter-spacing:-0.05em;}.cls-11{letter-spacing:-0.01em;}.cls-12{letter-spacing:-0.02em;}.cls-13{font-size:16px;letter-spacing:-0.01em;}.cls-14,.cls-15,.cls-16,.cls-17,.cls-18,.cls-19,.cls-20,.cls-21,.cls-22,.cls-23,.cls-24,.cls-25,.cls-26,.cls-27,.cls-28{fill:#ca589a;font-size:13px;font-family:Montserrat-Regular, Montserrat;}.cls-15{letter-spacing:-0.01em;}.cls-16,.cls-41{letter-spacing:-0.01em;}.cls-17{letter-spacing:-0.01em;}.cls-18,.cls-37,.cls-42{letter-spacing:0em;}.cls-19,.cls-57{letter-spacing:0em;}.cls-20{letter-spacing:-0.01em;}.cls-21,.cls-54{letter-spacing:0em;}.cls-22,.cls-34,.cls-38{letter-spacing:-0.01em;}.cls-23,.cls-55{letter-spacing:-0.01em;}.cls-24{letter-spacing:-0.01em;}.cls-25,.cls-32{letter-spacing:-0.01em;}.cls-26{letter-spacing:0em;}.cls-27{letter-spacing:0em;}.cls-29{letter-spacing:0em;}.cls-30{letter-spacing:-0.04em;}.cls-31{letter-spacing:0em;}.cls-33,.cls-40{letter-spacing:0em;}.cls-35,.cls-39{letter-spacing:0em;}.cls-43{letter-spacing:-0.01em;}.cls-44{letter-spacing:-0.01em;}.cls-45{letter-spacing:0em;}.cls-46{letter-spacing:0em;}.cls-47{letter-spacing:-0.01em;}.cls-48{letter-spacing:-0.01em;}.cls-49{letter-spacing:-0.01em;}.cls-50{letter-spacing:0em;}.cls-51{letter-spacing:-0.01em;}.cls-52{letter-spacing:-0.01em;}.cls-53{letter-spacing:-0.01em;}.cls-56{letter-spacing:-0.01em;}.cls-58{letter-spacing:-0.01em;}.cls-59{letter-spacing:-0.02em;}</style></defs><title>cards</title><text class="cls-1" transform="translate(62.36 143.06)">50 CENT</text><text class="cls-2" transform="translate(145.56 234.79)"><tspan class="cls-3">T</tspan><tspan class="cls-4" x="64.24" y="0">h</tspan><tspan x="127.52" y="0">e H</tspan><tspan class="cls-5" x="307.63" y="0">u</tspan><tspan class="cls-6" x="356.94" y="0">s</tspan><tspan x="414.74" y="0">tl</tspan><tspan class="cls-7" x="497.2" y="0">e</tspan><tspan x="553.35" y="0">r</tspan></text><text class="cls-8" transform="translate(58.5 354.08)"><tspan class="cls-9">FE</tspan><tspan class="cls-10" x="25.32" y="0">A</tspan><tspan class="cls-9" x="39.2" y="0">TURED</tspan><tspan class="cls-11" x="109.38" y="0"> </tspan><tspan class="cls-9" x="114.42" y="0">RAP</tspan><tspan class="cls-12" x="157.4" y="0">T</tspan><tspan class="cls-9" x="169.18" y="0">OR:</tspan><tspan class="cls-13" x="206.44" y="0"> </tspan><tspan class="cls-14" x="210.47" y="0">50</tspan><tspan class="cls-15" x="226.94" y="0"> </tspan><tspan class="cls-14" x="230.34" y="0">Ce</tspan><tspan class="cls-16" x="247.94" y="0">n</tspan><tspan class="cls-14" x="256.25" y="0">t</tspan><tspan class="cls-17" x="261.68" y="0"> </tspan><tspan class="cls-14" x="265.08" y="0">s</tspan><tspan class="cls-18" x="271.66" y="0">t</tspan><tspan class="cls-19" x="277.04" y="0">ory</tspan><tspan class="cls-20" x="298.14" y="0"> </tspan><tspan class="cls-21" x="301.54" y="0">is</tspan><tspan class="cls-15" x="311.68" y="0"> </tspan><tspan class="cls-14" x="315.08" y="0">so</tspan><tspan class="cls-20" x="330.13" y="0"> </tspan><tspan class="cls-21" x="333.53" y="0">impactful</tspan><tspan class="cls-20" x="396.54" y="0"> </tspan><tspan class="cls-21" x="399.94" y="0">th</tspan><tspan class="cls-22" x="413.78" y="0">a</tspan><tspan class="cls-14" x="421.33" y="0">t</tspan><tspan class="cls-17" x="426.76" y="0"> </tspan><tspan class="cls-14" x="430.16" y="0">he</tspan><tspan class="cls-17" x="446.59" y="0"> </tspan><tspan class="cls-14" x="449.99" y="0">earns</tspan><tspan class="cls-20" x="485.8" y="0"> </tspan><tspan class="cls-14" x="489.19" y="0">the</tspan><tspan class="cls-17" x="511.06" y="0"> </tspan><tspan class="cls-14" x="514.46" y="0">sp</tspan><tspan class="cls-23" x="529.77" y="0">o</tspan><tspan class="cls-14" x="538.14" y="0">t</tspan><tspan class="cls-17" x="543.58" y="0"> </tspan><tspan class="cls-14" x="546.98" y="0">as</tspan><tspan class="cls-20" x="561.19" y="0"> </tspan><tspan class="cls-14" x="564.58" y="0">the</tspan><tspan class="cls-17" x="586.45" y="0"> </tspan><tspan class="cls-14" x="589.85" y="0">Fe</tspan><tspan class="cls-24" x="605.73" y="0">a</tspan><tspan class="cls-14" x="613.29" y="0">tured</tspan><tspan class="cls-17" x="649.05" y="0"> </tspan><tspan class="cls-25" x="652.45" y="0">R</tspan><tspan class="cls-14" x="661.78" y="0">ap</tspan><tspan class="cls-26" x="678.15" y="0">t</tspan><tspan class="cls-14" x="683.53" y="0">or</tspan><tspan class="cls-17" x="697.17" y="0"> </tspan><tspan class="cls-18" x="700.57" y="0">t</tspan><tspan class="cls-14" x="705.95" y="0">o</tspan><tspan class="cls-20" x="714.43" y="0"> </tspan><tspan class="cls-14" x="717.82" y="0">fully</tspan><tspan class="cls-17" x="745.82" y="0"> </tspan><tspan class="cls-14" x="749.22" y="0">port</tspan><tspan class="cls-27" x="777.03" y="0">r</tspan><tspan class="cls-22" x="782.13" y="0">a</tspan><tspan class="cls-14" x="789.68" y="0">y</tspan><tspan class="cls-17" x="797.14" y="0"> </tspan><tspan class="cls-14" x="800.54" y="0">his </tspan><tspan class="cls-28"><tspan x="0" y="15.6">cha</tspan><tspan class="cls-29" x="23.52" y="15.6">r</tspan><tspan x="28.61" y="15.6">acte</tspan><tspan class="cls-30" x="57.2" y="15.6">r</tspan><tspan x="61.77" y="15.6">.</tspan><tspan class="cls-31" x="65.42" y="15.6"> </tspan><tspan x="69.02" y="15.6">F</tspan><tspan class="cls-32" x="76.87" y="15.6">r</tspan><tspan x="81.9" y="15.6">om</tspan><tspan class="cls-31" x="103.56" y="15.6"> </tspan><tspan x="107.17" y="15.6">childhood,</tspan><tspan class="cls-31" x="176.65" y="15.6"> </tspan><tspan x="180.26" y="15.6">his</tspan><tspan class="cls-31" x="198.79" y="15.6"> </tspan><tspan x="202.4" y="15.6">life</tspan><tspan class="cls-33" x="222.58" y="15.6"> </tspan><tspan class="cls-29" x="226.18" y="15.6">w</tspan><tspan x="237.97" y="15.6">as</tspan><tspan class="cls-31" x="252.18" y="15.6"> </tspan><tspan x="255.79" y="15.6">filled</tspan><tspan class="cls-31" x="288.26" y="15.6"> </tspan><tspan x="291.87" y="15.6">with</tspan><tspan class="cls-31" x="321.12" y="15.6"> </tspan><tspan x="324.72" y="15.6">uphill</tspan><tspan class="cls-31" x="360.94" y="15.6"> </tspan><tspan x="364.55" y="15.6">b</tspan><tspan class="cls-34" x="373.28" y="15.6">a</tspan><tspan x="380.83" y="15.6">ttles</tspan><tspan class="cls-33" x="409.88" y="15.6"> </tspan><tspan x="413.48" y="15.6">th</tspan><tspan class="cls-34" x="427.31" y="15.6">a</tspan><tspan x="434.87" y="15.6">t</tspan><tspan class="cls-35" x="440.3" y="15.6"> </tspan><tspan x="443.9" y="15.6">his</tspan><tspan class="cls-33" x="462.44" y="15.6"> </tspan><tspan class="cls-36" x="466.05" y="15.6">d</tspan><tspan class="cls-37" x="474.78" y="15.6">e</tspan><tspan class="cls-36" x="482.77" y="15.6">termin</tspan><tspan class="cls-38" x="526.54" y="15.6">a</tspan><tspan class="cls-36" x="534.09" y="15.6">tion</tspan><tspan class="cls-39" x="559.96" y="15.6"> </tspan><tspan class="cls-36" x="563.56" y="15.6">and</tspan><tspan class="cls-40" x="588.33" y="15.6"> </tspan><tspan class="cls-36" x="591.93" y="15.6">strength</tspan><tspan class="cls-35" x="647.87" y="15.6"> </tspan><tspan x="651.48" y="15.6">all</tspan><tspan class="cls-41" x="666.23" y="15.6">o</tspan><tspan x="674.61" y="15.6">wed</tspan><tspan class="cls-33" x="703.24" y="15.6"> </tspan><tspan x="706.85" y="15.6">him</tspan><tspan class="cls-35" x="731.99" y="15.6"> </tspan><tspan class="cls-42" x="735.59" y="15.6">t</tspan><tspan x="740.97" y="15.6">o</tspan><tspan class="cls-33" x="749.45" y="15.6"> </tspan><tspan class="cls-43" x="753.06" y="15.6">o</tspan><tspan x="761.41" y="15.6">ver</tspan><tspan class="cls-44" x="782.04" y="15.6">c</tspan><tspan x="789.39" y="15.6">ome </tspan><tspan x="0" y="31.2">a</tspan><tspan class="cls-41" x="7.63" y="31.2">n</tspan><tspan x="15.94" y="31.2">ything</tspan><tspan class="cls-45" x="57.69" y="31.2"> </tspan><tspan x="61.31" y="31.2">th</tspan><tspan class="cls-34" x="75.15" y="31.2">a</tspan><tspan x="82.7" y="31.2">t</tspan><tspan class="cls-46" x="88.13" y="31.2"> </tspan><tspan class="cls-29" x="91.75" y="31.2">w</tspan><tspan x="103.55" y="31.2">as</tspan><tspan class="cls-45" x="117.75" y="31.2"> </tspan><tspan x="121.38" y="31.2">th</tspan><tspan class="cls-32" x="135.21" y="31.2">r</tspan><tspan class="cls-41" x="140.24" y="31.2">o</tspan><tspan x="148.62" y="31.2">wn</tspan><tspan class="cls-46" x="168.88" y="31.2"> </tspan><tspan class="cls-47" x="172.5" y="31.2">a</tspan><tspan x="180.05" y="31.2">t</tspan><tspan class="cls-45" x="185.49" y="31.2"> </tspan><tspan x="189.11" y="31.2">him.</tspan><tspan class="cls-45" x="217.89" y="31.2"> </tspan><tspan x="221.51" y="31.2">He</tspan><tspan class="cls-46" x="239.65" y="31.2"> </tspan><tspan class="cls-29" x="243.27" y="31.2">w</tspan><tspan x="255.06" y="31.2">as</tspan><tspan class="cls-45" x="269.27" y="31.2"> </tspan><tspan x="272.89" y="31.2">sh</tspan><tspan class="cls-48" x="287.86" y="31.2">o</tspan><tspan x="296.23" y="31.2">t</tspan><tspan class="cls-45" x="301.67" y="31.2"> </tspan><tspan x="305.29" y="31.2">9</tspan><tspan class="cls-46" x="313.34" y="31.2"> </tspan><tspan x="316.96" y="31.2">times,</tspan><tspan class="cls-45" x="357.4" y="31.2"> </tspan><tspan x="361.02" y="31.2">lost</tspan><tspan class="cls-46" x="385.07" y="31.2"> </tspan><tspan x="388.69" y="31.2">his</tspan><tspan class="cls-46" x="407.23" y="31.2"> </tspan><tspan x="410.85" y="31.2">m</tspan><tspan class="cls-49" x="424.03" y="31.2">o</tspan><tspan x="432.4" y="31.2">ther</tspan><tspan class="cls-46" x="459.43" y="31.2"> </tspan><tspan x="463.05" y="31.2">and</tspan><tspan class="cls-50" x="487.82" y="31.2"> </tspan><tspan x="491.44" y="31.2">blackballed</tspan><tspan class="cls-46" x="566.67" y="31.2"> </tspan><tspan x="570.29" y="31.2">by</tspan><tspan class="cls-46" x="586.49" y="31.2"> </tspan><tspan x="590.11" y="31.2">the</tspan><tspan class="cls-46" x="611.97" y="31.2"> </tspan><tspan x="615.59" y="31.2">industry</tspan><tspan class="cls-50" x="669.32" y="31.2"> </tspan><tspan x="672.94" y="31.2">but</tspan><tspan class="cls-46" x="695.51" y="31.2"> </tspan><tspan x="699.13" y="31.2">he</tspan><tspan class="cls-46" x="715.56" y="31.2"> </tspan><tspan class="cls-43" x="719.18" y="31.2">o</tspan><tspan x="727.54" y="31.2">ver</tspan><tspan class="cls-42" x="748.17" y="31.2">c</tspan><tspan x="755.61" y="31.2">ame</tspan><tspan class="cls-50" x="784.45" y="31.2"> </tspan><tspan x="788.08" y="31.2">it</tspan><tspan class="cls-46" x="797.07" y="31.2"> </tspan><tspan x="800.69" y="31.2">all. </tspan><tspan x="0" y="46.8">Reaching</tspan><tspan class="cls-51" x="61.48" y="46.8"> </tspan><tspan class="cls-29" x="64.85" y="46.8">f</tspan><tspan x="69.8" y="46.8">ame</tspan><tspan class="cls-52" x="98.65" y="46.8"> </tspan><tspan class="cls-29" x="102.02" y="46.8">w</tspan><tspan x="113.81" y="46.8">as</tspan><tspan class="cls-51" x="128.02" y="46.8"> </tspan><tspan x="131.4" y="46.8">just</tspan><tspan class="cls-51" x="155.37" y="46.8"> </tspan><tspan x="158.74" y="46.8">the</tspan><tspan class="cls-51" x="180.61" y="46.8"> </tspan><tspan x="183.98" y="46.8">beginning,</tspan><tspan class="cls-52" x="253.73" y="46.8"> </tspan><tspan x="257.1" y="46.8">he</tspan><tspan class="cls-51" x="273.53" y="46.8"> </tspan><tspan x="276.91" y="46.8">we</tspan><tspan class="cls-41" x="296.8" y="46.8">n</tspan><tspan x="305.1" y="46.8">t</tspan><tspan class="cls-51" x="310.54" y="46.8"> </tspan><tspan x="313.91" y="46.8">on</tspan><tspan class="cls-52" x="330.79" y="46.8"> </tspan><tspan class="cls-42" x="334.16" y="46.8">t</tspan><tspan x="339.54" y="46.8">o</tspan><tspan class="cls-51" x="348.02" y="46.8"> </tspan><tspan x="351.39" y="46.8">be</tspan><tspan class="cls-53" x="368.16" y="46.8">c</tspan><tspan class="cls-54" x="375.51" y="46.8">ome</tspan><tspan class="cls-52" x="405.2" y="46.8"> </tspan><tspan x="408.57" y="46.8">one</tspan><tspan class="cls-51" x="433.48" y="46.8"> </tspan><tspan class="cls-55" x="436.85" y="46.8">o</tspan><tspan x="445.22" y="46.8">f</tspan><tspan class="cls-51" x="450.24" y="46.8"> </tspan><tspan x="453.61" y="46.8">the</tspan><tspan class="cls-51" x="475.48" y="46.8"> </tspan><tspan x="478.85" y="46.8">wealthiest</tspan><tspan class="cls-51" x="547.38" y="46.8"> </tspan><tspan class="cls-32" x="550.75" y="46.8">R</tspan><tspan x="560.08" y="46.8">appers</tspan><tspan class="cls-51" x="604.96" y="46.8"> </tspan><tspan x="608.33" y="46.8">in</tspan><tspan class="cls-56" x="620.29" y="46.8"> </tspan><tspan x="623.67" y="46.8">the</tspan><tspan class="cls-51" x="645.53" y="46.8"> </tspan><tspan x="648.9" y="46.8">game</tspan><tspan class="cls-51" x="686.25" y="46.8"> </tspan><tspan x="689.63" y="46.8">and</tspan><tspan class="cls-51" x="714.39" y="46.8"> </tspan><tspan x="717.77" y="46.8">his</tspan><tspan class="cls-51" x="736.3" y="46.8"> </tspan><tspan x="739.68" y="46.8">s</tspan><tspan class="cls-42" x="746.25" y="46.8">t</tspan><tspan x="751.64" y="46.8">ory</tspan><tspan class="cls-51" x="772.73" y="46.8"> </tspan><tspan x="776.11" y="46.8">makes </tspan><tspan class="cls-44" x="0" y="62.4">c</tspan><tspan class="cls-57" x="7.35" y="62.4">onnections </tspan><tspan class="cls-42" x="84.15" y="62.4">t</tspan><tspan x="89.53" y="62.4">o </tspan><tspan class="cls-48" x="101.57" y="62.4">o</tspan><tspan x="109.94" y="62.4">ther </tspan><tspan class="cls-32" x="140.53" y="62.4">R</tspan><tspan x="149.86" y="62.4">ap</tspan><tspan class="cls-42" x="166.23" y="62.4">t</tspan><tspan x="171.61" y="62.4">ors so keep an </tspan><tspan class="cls-34" x="269.52" y="62.4">e</tspan><tspan x="277.47" y="62.4">ye out </tspan><tspan class="cls-58" x="322.4" y="62.4">f</tspan><tspan x="327.25" y="62.4">or em while </tspan><tspan class="cls-43" x="408.2" y="62.4">y</tspan><tspan x="415.55" y="62.4">ou witness the impact and </tspan><tspan class="cls-36" x="593.33" y="62.4">hustler</tspan><tspan class="cls-59" x="638.9" y="62.4">’</tspan><tspan class="cls-36" x="641.4" y="62.4">s ambition</tspan><tspan x="710.52" y="62.4"> </tspan><tspan class="cls-49" x="714.09" y="62.4">o</tspan><tspan x="722.46" y="62.4">f 50 Ce</tspan><tspan class="cls-41" x="768.67" y="62.4">n</tspan><tspan x="776.98" y="62.4">t </tspan></tspan></text></svg>