<svg id="Layer_1" data-name="Layer 1" xmlns="http://www.w3.org/2000/svg" viewBox="0 0 1920 1080"><defs><style>.cls-1{fill:#fff;}.cls-2{fill:#ca589a;}.cls-3{fill:#52d5e2;}.cls-4{fill:#1a1d1c;}</style></defs><title>50poster</title><rect class="cls-1" width="1920" height="1080"/><path class="cls-2" d="M998.45,587.82c-5.9,65-11.53,130.24-8.15,195.22,5.34-32.35,10.68-64.7,16-97.33,3.09-18.84,2.25-37.69,2.25-56.54,0-30.94-9.28-28.13-7.6-35.72"/><path class="cls-2" d="M935.44,758.29c-1.4-38.82-2.53-77.64-3.94-116.46-.84-22.5-1.4-38.82-7.31-63-7.88,23.35-8.16,45.29-8.72,72.57-.56,26.73,4.78,54.58,10.41,80.18,3.37,15.47,7.31,31.22,11.25,46.41a84.93,84.93,0,0,0-4.5-41.07"/><path class="cls-2" d="M1030,306c2-.85,24.47-11.82,17.16-16.88h-.56c-3.1-1.69-11-1.12-14.07-.56-6.75,1.12-14.06,4.5-20.82,5.62-13.5,3.38-27.56,5.35-40.5,8.72a277.22,277.22,0,0,0-43,14.63c-2.25.85-4.78,2-7,3.1a34.25,34.25,0,0,1-1.69-3.1c-17.44-25-49.79-14.63-72-4.78-19.12,8.44-46.69,19.69-65,34.32a6,6,0,0,0-2.53,2.81c-.56,2,1.41,3.66,3.1,3.66,3.37.84,41.07-6.19,41.63-8.16-1.13,9.28-4.5,18.57-4.78,27.57a275.56,275.56,0,0,1-3.1,37.41c-1.12,10.69-2,21.38-2.25,32.07-5.34,2-10.12,4.22-16,5.34a20.86,20.86,0,0,1-5.63.57c0-7.32-2-15.19-2.81-22.23-2-15.75-5.06-30.38-7.31-45.57-1.13-7.31-2.25-14.62-3.66-22.22-1.69-8.16-2.25-20.53-11.25-24.75-3.94-2-10.13-1.41-12.94,2a20,20,0,0,0-3.38,5.07c-2.81,5.34-5.06,10.69-7.87,15.75-1.41,2.53-2.82,5.06-3.1,7.31a42.41,42.41,0,0,0-1.41,8.16c-.84,9-3.09,18.29-5.34,27.29-2,7.31-2.25,14.63-2.81,21.94a61,61,0,0,0-4.5,13.22c-2.54,9.57-2,19.13-3.66,30.38-1.41,9-.56,18.29-7.88,24.76-2.53,2.81-6.75,4.78-9.84,6.47a87.44,87.44,0,0,0-10.13,6.47c-2.81-5.07-4.78-10.13-7.59-15.48-6.19-12.09-12.94-24.47-14.63-37.13,3.37-5.34,7-10.41,9.56-15.47,8.44-10.13,16.88-20.25,24.47-30.94,3.94-5.91,8.73-12.1,11.54-18.57.56-1.4.84-2.53,1.4-3.94C728.4,369,743.31,349,737.41,335.21a7.6,7.6,0,0,0-3.38-4.78c-12.38-9.84-39.94,2.53-53.45,7.32-20.53,7.31-40.22,15.75-60.19,23.91A33.14,33.14,0,0,0,614.2,365a223.79,223.79,0,0,0-22.51,9.57,4.1,4.1,0,0,0-2.53,1.68c-.56,1.13,1.13,2.82,2.53,3.1,1.69.28,13.79.28,23.07-.57,1.12,3.38.84,7,.56,10.41-2,13.79-2.81,28.13-2.53,47,.28,36.29-11.25,77.36,4.78,112.52a189.37,189.37,0,0,0,6.75,33.76,16.68,16.68,0,0,0,2.54,5.62c1.68,1.41,3.65,2.82,5.62,2.53a7,7,0,0,0,3.66-4.78c5.06-12.94,6.75-25.32,6.75-38,.56-11,2.53-20.82,3.09-31.79a151.81,151.81,0,0,0,1.13-16.32,18.31,18.31,0,0,1,1.69-3.37c2.53,2.81,5.06,5.34,7.31,7.59a116.86,116.86,0,0,1,13.22,15.48,1,1,0,0,1,.28.56,8,8,0,0,0-2.25,3.94,4.83,4.83,0,0,0,4.78-.57c3.1,4.22,6.19,8.44,9,12.66,9,11.82,17.72,23.63,26.44,35.73-1.69,6.75-3.38,13.5-4.78,20.25-1.13,4.5,5.62,6.75,7.31,2.53s3.38-8.72,4.78-12.94l23.63,32.91c3.66,5.07,7,9.85,10.69,14.35,5.06,7.31,10.69,14.35,15.47,21.1,4.5,5.91,11,14.06,17.72,22.78.85,6.75,2,13.51,2.82,20.26,1.12,9,1.69,17.16,4.78,25.31,2.53,5.91,12.38,9,15.47,1.69a65.25,65.25,0,0,0,3.94-13.22c3.94,4.78,7.59,9.28,10.41,12.66a24,24,0,0,0,3.94,3.66c2,.56,3.93.56,5.06-.85,2-2.53-.56-5.62-2.53-8.16a68,68,0,0,1-8.16-9.84c-2.53-4.22-18.85-28.41-21.38-32.07a87.39,87.39,0,0,0-8.16-11.53c-25.31-33.48-42.19-73.42-62.73-110.83,1.69-4.79,3.66-9.29,5.63-14.07,3.66-9.85,8.16-19.41,11.25-29.82a41.29,41.29,0,0,0,3.1-11.53,4,4,0,0,1,2-.56,29.85,29.85,0,0,0,7-2.25,2.52,2.52,0,0,1,.28,1.4c.28,2.82-.56,5.35-.85,7.88v.28l-.84,5.06v1.41c.28,1.41.56,2.53,2.25,3.38a3.31,3.31,0,0,0,4.78-2.25,21.54,21.54,0,0,0-.56-8.44c-.28-1.41-.56-2.54-.84-3.94a49.89,49.89,0,0,1,0-6.47c2.25-1.13,4.22-2,6.75-3.1,1.69-.56,3.09-1.4,4.78-2,1.69,12.09,3.66,24.19,5.63,36,2.53,15.75.56,32.07,1.12,48.39.56,15.47,1.13,30.66,1.69,46.69.28,7.6.28,14.91.56,22.51,5.91,7.31,18.57,22.5,31.23,39.38a54.43,54.43,0,0,1,.28-6.75c.56-17.16-1.69-34-3.66-50.92-1.69-17.16-3.94-34-6.19-50.63C799,553.78,794,538,793.39,521.72c-.29-14.63.28-30.38-1.41-46.42a27,27,0,0,1,4.22-3.09c5.34-3.66,11.81-7.6,17.16-12.1-.28,7.6-.28,15.47-.28,23.35,0,13.5,0,26.16.56,39.38.56,13.78,2.53,27,2,40.23v38.82c-.56,7.31-.56,13.78-.56,21.09.56,4.22,2,32.63,11.25,28.41,2.53-1.4,3.09-5.06,3.65-8.15,8.44-51.2,14.63-103.52,16-155.56,11.25-16,18.28-34,29.53-50.07q8.44-11.82,16.88-24.48c.85,2.82,1.41,5.63,2,8.44.28,2,.56,4.22.85,6.19.28,3.38.56,6.75,1.12,10.13l.84,8.44c.29,11.81.57,23.34.57,34.88,0,12.09.84,24.19-1.41,36-.56,3.94-1.12,7.88-1.69,11.54a6.64,6.64,0,0,0,2.25,6.75,4.84,4.84,0,0,0,5.35,1.41c.56-.29,1.12-.29,1.69-.57a4.35,4.35,0,0,0,2.81-3.37A18.67,18.67,0,0,0,907,529a69.25,69.25,0,0,0-1.12-10.69c-.85-4.5-1.69-9-1.41-13.78a59.05,59.05,0,0,0,0-7v-63c0-5.34.84-11,1.12-16.31v-.57c.57-3.93,1.13-7.59,1.69-11.53.56-4.22.85-8.44,1.13-12.66a52.14,52.14,0,0,1,1.12-6.47c4.22-7,9-14.34,12.1-21.94,1.4-4.22,3.09-8.72,4.22-12.94l.84-4.22c6.19-2.25,12.66-4.5,18.85-6.75,1.69,26.16,2.81,52.6,4.5,78.76,6.75,102.4.56,205.64,3.38,307.75,0,2.81.28,5.62.28,8.44a3.83,3.83,0,0,1,3.93,3.93,252.47,252.47,0,0,0,.29,35.73c.56,2.81,1.12,5.91,2,8.72s2,5.91,3.94,7.59c2.82-25,5.35-50.07,8.16-75.1,1.13,2.53,2,3.94,2.25,1.69,4.5-45.29,2.25-95.65,1.41-144.31V536.06c0-3.94,0-7.59.28-11.53.28-9.57.28-19.69.56-29.26.28-27.56,1.13-56,1.41-83.82.56-27,3.66-54.3,2.81-81.58C997.33,323.68,1013.92,315.24,1030,306ZM651.05,426.64s-1.69-32.35-.28-48.95c.28-1.69.28-3.94,2.25-5.63a14.7,14.7,0,0,1,5.06-2.81c8.72-3.66,17.44-7.59,25.6-11.81,9.84-5.07,22.22-5.35,19.41,7-1.41,5.06-5.63,9.56-8.72,13.5-2.53,3.1-4.78,5.91-7,9-4.51,6.19-8.73,12.38-13.79,17.72C667.64,412,651.05,426.64,651.05,426.64Zm52.32,86.92A87.54,87.54,0,0,0,716,507.65a.55.55,0,0,1,.56-.56c-.56,7.87-.56,15.75-1.12,22.78V531C711.81,525.37,707.59,519.47,703.37,513.56Zm52.88-55.7a4,4,0,0,1-3.09,1.41c-.56-.57-.56-2-.84-3.94,1.12-6.75,2.25-12.94,1.68-19.41-.28-3.1-1.4-6.47-1.12-9-.28-2.25.28-4.5,0-6.75,1.4-9.85,3.09-19.13,5.06-28.7,2.81,9.85,1.69,20.54,2.53,31.51,0,5.06,1.41,10.13,1.69,15.19a26.52,26.52,0,0,0,2.53,13.22v.84Zm125.18-87.2c-.56.56-.56,1.69-1.12,2.25-2.53,3.37-5.63,6.75-8.16,11s-4.22,9.84-6.19,14.63c-5.06,10.12-14.35,17.44-16.88,29,1.41-15.75,2.53-32.07,1.41-47.54,0-3.66-4.78-43-6.19-42.19,6.75-2.26,13.22-4.22,19.41-6.19,6.19-1.69,12.94-3.38,18,.84,3.66,3.09,5.07,8.44,5.63,13.5C888.46,354.06,885.93,363.34,881.43,370.66ZM1328.14,434a15.59,15.59,0,0,0-11.82-8.72c-4.22-.56-8.16,0-12.37.56-9.85,2-19.7,3.94-29.54,7.32-11.25,3.65-13.79.84-6.75-7.32,9.84-11.53,18.56-21.66,26.44-31.78,2.53.56,3.09,3.09,3.09,4.78a28,28,0,0,0,1.69,12.37c.56,1.69,1.69,3.38,2,5.07.56.28.56.84,1.13,1.12a3.55,3.55,0,0,0,1.68.28c11-1.4,11.54-15.47,12.38-20,1.69-8.72,1.69-17.72-.56-29.53a9,9,0,0,0-2.53-6.47c-2.53-3.1-6.75-3.94-10.41-3.66s-6.75,1.69-9.85,3.09q-26.58,13.08-38.82,32.92c-2.53,3.65-4.78,7.59-7.31,11.81-6.75,10.69-17.16,21.1-21.66,36.85-2.53,9.28-9.85,30.94,2,38a7.46,7.46,0,0,0,4.78,1.4c20.82,2,32.07-17.72,49.79-25a12.13,12.13,0,0,1,8.16-1.41c11.81,3.94.56,45.57-1.69,53.17-6.75,22.22-14.91,43.88-22.5,65.54-7-7.32-13.51-14.35-19.69-21.94a185,185,0,0,1-18.57-23.07c-5.63-7.31-11.81-15.19-17.72-23.35a480.32,480.32,0,0,1-25.32-41.63,42.44,42.44,0,0,0-5.06-7.88c4.22-7.31,7.87-13.5,12.37-19.12,11-13.23,22.23-25,32.64-35.73,4.78-4.78,9.84-9.56,13.5-14.35a53.93,53.93,0,0,0,4.22-7.87c2.53-6.75.56-15.47-4.22-23.63-.56-1.41-1.69-2.53-2-3.38-16.6-23.91-46.13-28.13-72.58-27.56-19.69.28-40.5,1.4-57.94,11.53a1,1,0,0,0-.57.28c-5.9-14.63-16.31-26.16-33.75-27.85H1066c-15.48-5.06-34-.28-46.14,9.57-8.72,7-12.94,19.69-14.91,31.78-2.53,15.19-4.22,30.95-3.94,46.14,0,15.19,2.54,30.66,2.82,45.85,0,16.88,0,33.47.56,49.23,1.13,30.66,4.5,63,11,92.82a61.29,61.29,0,0,0,5.63,17.16c0,4.22-1.69,10.41-1.13,13.22a33.25,33.25,0,0,0,1.69,7.6,8.78,8.78,0,0,0,8.72,5.91c.84,0,1.69-.57,2.53-.57,1.69-.28,3.1-1.4,4.5-2.25,1.69-1.4,3.38-2.81,5.35-4.22.28-.28.84-.56,1.12-.84a36.09,36.09,0,0,0,5.63.28,7.62,7.62,0,0,1,2.25,2c1.69,2.25,2,5.06,2.53,7.6.56,3.09.28,6.18.56,9,.28,3.65-.28,7,.57,10.69a41.7,41.7,0,0,1,.28,5.9v8.72a5.51,5.51,0,0,1,0,4.22v3.38c-.28,3.94,0,8.16-1.13,12.1v1.12c-.28,3.38-.84,6.75-1.12,10.41v.56a24.85,24.85,0,0,0-.57,4.5v8.16a6.94,6.94,0,0,0,2.82,5.63c1.4,1.12,2.81,2,4.5,1.68a10,10,0,0,0,3.94-1.68,11.32,11.32,0,0,0,2.81-5.07,19.44,19.44,0,0,0,.56-7c-.56-3.94-1.4-7.59-1.4-11.53v-.57c-.29-2.81-.57-5.34-.85-8.15a39.85,39.85,0,0,1-.28-5.63c0-2.25-.28-4.22-.28-6.47a21.39,21.39,0,0,0-.28-4.22v-1.12a14.06,14.06,0,0,0,.28-5.91c0-.85-.28-1.69,0-2.25.56-1.13.28-2.53.56-3.66a30.53,30.53,0,0,0,0-5.06,2.13,2.13,0,0,1,.28-1.41v-5.62c.28-3.38.28-6.47.57-9.85a71.44,71.44,0,0,1,1.12-7.6V623c.56-2,.84-3.93,1.41-5.9a24,24,0,0,1,1.12-4.79,38.24,38.24,0,0,1,2-5.06,27.21,27.21,0,0,0,4.22-6.75l.28-.28h0a61.91,61.91,0,0,0,5.07-12.94c3.65-13.22,7.31-27,11-40.23,14.62-56,23.06-111.11,21.09-168.78a138.62,138.62,0,0,0-5.06-34.32c7.88,1.69,34.32,5.07,34.88,3.38-1.12,8.44-4.22,16.31-4.78,24.75a308.41,308.41,0,0,1-3.66,35.45,574.3,574.3,0,0,0-4.78,74c0,12.94.28,26.16.56,38.82.57,27,1.41,58.23,8.72,84.67a14.73,14.73,0,0,0,2.53,5.63,5.28,5.28,0,0,0,5.63,1.12c2-1.41,3.1-4.22,3.66-6.19,5.06-15.47,6.75-30.38,6.75-45.29.56-12.94,2.53-25,3.09-38,.57-6.19,1.13-12.38,1.13-18.85,3.37,4.22,6.47,7.88,9.56,11.82a44.83,44.83,0,0,1,2.82,14.62c0,7,5.06,7.6,10.4,6.19,1.69,2.53,3.1,5.35,5.07,7.88,16.31,21.66,42.75,36.57,63,52.32a59.21,59.21,0,0,1,4.78,3.94c-2.53,8.16-5.06,16.59-7.31,25,0,1.41-.57,3.1,0,4.22,1.68,2.54,5.9,2.54,8.72.85a18,18,0,0,0,6.75-7c2-3.37,3.94-7,5.91-10.4,7,6.19,14.34,11.53,21.94,13.78,27.56,8.16-4.79-27.85-9.29-33.19l-1.68-1.69c9.84-19.69,18.84-39.66,28.13-59.07,12.94-26.45,19.12-55.42,20.25-84.11C1330.39,443.51,1330.39,437.89,1328.14,434ZM1066.53,482.9c-2,19.69-7.32,39.1-8.72,58.23-.57,6.75,4.22,36.56-6.75,36.56-4.22,0-6.47-5.34-7.32-9.28-14.63-66.39-11.81-132.21,3.1-200.57,1.12-4.5,2-9.28,3.65-13.78a13.87,13.87,0,0,1,3.1-5.63c3.09-3.65,9.84-1.4,12.94,2.82,2.53,4.78,3.09,10.41,3.65,15.47C1072.15,405.54,1070.47,444.36,1066.53,482.9Zm97.89-56.83c1.69-14.62,2.53-28.13,1.69-42.19,0-3.1-4.78-38.26-6.19-38.26,6.75,0,13.5.56,19.69.85,6.19.56,12.94,1.12,18,6.18,3.66,3.38,5.07,8.16,5.63,12.38a21.39,21.39,0,0,1-6.19,17.72c-.56.28-.56,1.13-1.12,1.41a85.4,85.4,0,0,0-8.16,6.75c-2.53,3.38-4.22,7.6-6.19,11C1176.52,410,1167,416,1164.42,426.07Z"/><path class="cls-3" d="M1591.6,666.5c18.71,0,37.33-.33,56,.08,23.73.5,47.46,1.4,71.11,2.48,9.8.49,19.77.74,29.5,2.63,23.15,4.45,36.91,18.71,43.25,41.2,3.38,12,4.62,24.22,5.69,36.5,2.88,33,2.31,66.08,1.48,99.12-.49,19.53-1.32,39.22-6.26,58.34-2.06,7.82-4.45,15.65-9,22.49-8.24,12.44-20.1,19.53-34.61,22.17-12.44,2.3-25,2.55-37.65,3.13-23.32,1.07-46.64,1.56-70,2.14-27.61.74-55.21.58-82.73.33-22.33-.25-44.74-.74-67.07-1.65-18.87-.74-37.82-1.07-56.44-4.7a55.78,55.78,0,0,1-27.35-13.34c-7.42-6.76-11.21-15.49-14-24.72-6-19.78-6.43-40.21-7.66-60.65-1.4-23.89-1-47.78-.41-71.6.49-20.1,1.4-40.29,5.6-60.06,2.47-11.7,5.85-23.32,14.34-32.3,10.46-11,23.81-16.32,38.89-17.39,18-1.23,36.17-2.06,54.21-2.8C1529.56,666.58,1560.62,666.17,1591.6,666.5Zm68.47,141.06c-.32-1-1.23-1.15-1.89-1.48q-29-15.33-58.25-30.65-23.12-12.12-46.23-24.39c-4.28-2.23-4.36-2.14-4.36,2.8V862.52c-.09,2.14.74,2.8,2.72,1.73,2.38-1.32,4.77-2.64,7.25-4q48.69-25.2,97.47-50.5C1657.93,809.13,1659.42,808.88,1660.07,807.56Z"/><path class="cls-2" d="M146.2,938.5v8.62h16.71v7.45H146.2V968.3h-9.47V931h27.62v7.46Z"/><path class="cls-2" d="M178.34,938.5v7.39h17.78v7.46H178.34v7.5h20.28v7.45H168.87V931H198v7.46Z"/><path class="cls-2" d="M213.2,961.44l-2.71,6.86h-9.74L216.82,931h9.74l15.7,37.26H232.15l-2.66-6.86Zm8.2-21L216,954.25h10.75Z"/><path class="cls-2" d="M259,938.66V968.3H249.5V938.66H238.37V931H270.2v7.67Z"/><path class="cls-2" d="M307.77,952.65c0,9.85-6.54,16.08-17,16.08s-17.19-6.23-17.19-16.08V931h9.48v21.61c0,5.06,3.24,8.15,7.77,8.15s7.5-3.09,7.5-8.15V931h9.42Z"/><path class="cls-2" d="M331.51,957.82h-7.46V968.3h-9.47V931h16.66c9.85,0,15.49,4.69,15.49,13,0,5.7-2.4,9.79-6.76,12l7.82,12.29H337Zm-.27-7.45c4.1,0,6.49-2.08,6.49-6s-2.39-5.85-6.49-5.85h-7.19v11.87Z"/><path class="cls-2" d="M362.58,938.5v7.39h17.78v7.46H362.58v7.5h20.28v7.45H353.11V931h29.17v7.46Z"/><path class="cls-2" d="M405,931c11.71,0,19.8,7.56,19.8,18.63s-8.2,18.63-20.17,18.63H389V931Zm-6.55,29.7h6.76c5.8,0,10-4.47,10-11s-4.37-11.13-10.38-11.13h-6.34Z"/><path class="cls-2" d="M459.07,957.82h-7.45V968.3h-9.47V931H458.8c9.85,0,15.49,4.69,15.49,13,0,5.7-2.39,9.79-6.76,12l7.83,12.29H464.61Zm-.27-7.45c4.1,0,6.5-2.08,6.5-6s-2.4-5.85-6.5-5.85h-7.18v11.87Z"/><path class="cls-2" d="M489.14,961.44l-2.72,6.86h-9.74L492.76,931h9.74l15.7,37.26H508.09l-2.67-6.86Zm8.19-21-5.42,13.79h10.75Z"/><path class="cls-2" d="M537.89,931c9.52,0,15,4.69,15,13,0,8.73-5.49,13.79-15,13.79h-6.76V968.3h-9.48V931Zm-6.76,19.33h6.28c4.15,0,6.54-2.08,6.54-6s-2.39-5.85-6.54-5.85h-6.28Z"/><path class="cls-2" d="M575.09,938.66V968.3h-9.48V938.66H554.49V931h31.83v7.67Z"/><path class="cls-2" d="M626.28,949.62c0,10.86-8.62,19.11-20.17,19.11S586,960.53,586,949.62s8.62-18.89,20.11-18.89S626.28,938.82,626.28,949.62Zm-30.6,0a10.84,10.84,0,0,0,10.54,11.13c5.75,0,10.32-4.85,10.32-11.13s-4.57-11-10.32-11A10.7,10.7,0,0,0,595.68,949.67Z"/><path class="cls-2" d="M648.21,957.82h-7.45V968.3h-9.48V931h16.66c9.85,0,15.49,4.69,15.49,13,0,5.7-2.39,9.79-6.76,12l7.83,12.29H653.74Zm-.27-7.45c4.1,0,6.5-2.08,6.5-6s-2.4-5.85-6.5-5.85h-7.18v11.87Z"/><path class="cls-4" d="M205.73,853.52a2.24,2.24,0,0,1-1.77,1,5.11,5.11,0,0,0-1.85.34l-2.76.35a8.48,8.48,0,0,0-1,.3,6.71,6.71,0,0,1-2.11.3l-2.76.61a1.06,1.06,0,0,1-.43.08c-.11,0-.19,0-.21,0s-.1,0-.22,0a9.82,9.82,0,0,0-1.85.38,24.86,24.86,0,0,1-3.58.65l-1.2.26a4.1,4.1,0,0,0-1.47.3,3.62,3.62,0,0,1-1.2.3,1,1,0,0,1-.39-.09,1.29,1.29,0,0,0-.39-.08.84.84,0,0,0-.6.17l-1.3.35a2.86,2.86,0,0,0-.6,0,1.32,1.32,0,0,1-.34,0h-.35a1.47,1.47,0,0,1-.9.22,1.07,1.07,0,0,0-.73.13l-1.47.25a4.72,4.72,0,0,1-1.85.35,5.61,5.61,0,0,0-2.29.6h-.25a1.41,1.41,0,0,0-.35,0l-.43.13a3.84,3.84,0,0,1-.39,1.55,15.16,15.16,0,0,1-.9,1.68c-.35.54-.69,1.06-1,1.55a10,10,0,0,0-.77,1.25l-.43.17a.93.93,0,0,1-.39.9,1.38,1.38,0,0,0-.56.91l-.26.34a1.93,1.93,0,0,1-.26.35.38.38,0,0,0-.08.26v.08l-.78,1.47-1.12,1.55a7.77,7.77,0,0,0-.9,1.42c-.2.43-.39.65-.56.65l-1.3,1.89c.12.12.21.17.26.17a2.8,2.8,0,0,0,1-.38,4.46,4.46,0,0,1,1.25-.48h.52c.23,0,.35,0,.35.09a.58.58,0,0,0,.47-.17.81.81,0,0,1,.3-.26h.69l.6-.61h.35c.17,0,.43,0,.77,0s.72-.07,1.12-.13.75-.11,1-.17a1.2,1.2,0,0,0,.6-.26,2.49,2.49,0,0,0,1.12.26,2.72,2.72,0,0,0,.69-.09,3.25,3.25,0,0,1,.69-.08,12.77,12.77,0,0,1,1.38.08,1.86,1.86,0,0,1,1.12.52.53.53,0,0,1-.17.22.13.13,0,0,0-.09.12.26.26,0,0,0,.09.18,2.44,2.44,0,0,0,.25-.3,2.84,2.84,0,0,0,.18-.31l.25.26s.09-.14.26-.26l.52.69a.5.5,0,0,0,.13-.21.19.19,0,0,1,.21-.13l.78.34h.52l1.29.61c.4.28.83.56,1.29.82a7.64,7.64,0,0,1,1.9,2l.17.26c.23.63.46,1.23.69,1.81a4.81,4.81,0,0,1,.34,1.81c0,.8,0,1.63-.08,2.5a17.11,17.11,0,0,1-.43,2.75l-.61.95a2.43,2.43,0,0,1-.47,1.21c-.26.34-.53.72-.82,1.12H182l.08.08a2.46,2.46,0,0,1-.38.69,4.4,4.4,0,0,0-.39.52l-.35.34a5.36,5.36,0,0,1-1,1.56l-2.24,2.24c-.12.11-.33.34-.65.68a6.8,6.8,0,0,1-1.42,1.12,2.43,2.43,0,0,0-.95.82,6.54,6.54,0,0,1-1.2,1.17l-1.73,1.29a4.64,4.64,0,0,1-.9.82q-.82.65-2.28,1.59l-2.42,1.64a.37.37,0,0,1-.26.08l-.6.35-.08-.09L164,907.46l-.78.17a1.79,1.79,0,0,1-.95.17c.06.06.1.09.13.09s.07.06.13.17a6.41,6.41,0,0,1-1.08,1,26.62,26.62,0,0,1-4.17,2.41,3.45,3.45,0,0,1-1.47.78,3.19,3.19,0,0,0-1.55.95l-.69.17a4.66,4.66,0,0,1-.65.47c-.31.2-.67.42-1.07.65a9.47,9.47,0,0,1-1.17.56,2.64,2.64,0,0,1-.81.21l-2,.61-1.89.26-1.29-.35v-.52a2.25,2.25,0,0,0-.61-.08l-.86-1.21a3.18,3.18,0,0,0-.21-.69,1.26,1.26,0,0,1-.13-.6.58.58,0,0,1,.08-.35,2.17,2.17,0,0,1-.3-.94c0-.35,0-.69,0-1a8.84,8.84,0,0,1,.3-2.58,4.94,4.94,0,0,1,.73-1.51,9.39,9.39,0,0,1,.82-1,2.24,2.24,0,0,0,.56-.9l.26-.26.52-.09.25-.69.39-.38a.87.87,0,0,1,.65-.22l1-.86a3,3,0,0,0,.86-.61h.18c-.29,0-.16,0,.38-.17a1.82,1.82,0,0,0,1.25-.86h.78a.08.08,0,0,0,.09-.09.52.52,0,0,0-.05-.25.62.62,0,0,1,0-.26c.29-.12.59-.24.9-.39a2.67,2.67,0,0,1,1.08-.22h.26a.08.08,0,0,0-.09.09v.26c0,.06,0,.09,0,.09s0,0,0,.08l-.69.69a1.18,1.18,0,0,0,.52-.09l.69-.34c0,.06,0,.09,0,.09s0,0,0,.08a.37.37,0,0,1-.08.26.36.36,0,0,0-.09.26l.26-.26a.4.4,0,0,1,.08.26.33.33,0,0,1,0,.17.62.62,0,0,0,0,.26c.11,0,.17.09.17.26L154,902h-.26l-.26.26a2,2,0,0,1-.43.34,5.31,5.31,0,0,1-.6.35l-.26.43-1.29.6-.26.35a.3.3,0,0,0-.34.34,12.91,12.91,0,0,0,1.33-.6,7.09,7.09,0,0,0,1.94-1.29l.43.6.52-.86a1.43,1.43,0,0,0-.09-.35l.43-.17c0,.06,0,.09.05.09s0,0,0,.08l-.26.78c.06,0,.09,0,.09,0s0,0,.08,0L155,903l.34-.26h.43v-.26l1.3-.82c.4-.26.8-.53,1.2-.82l.35-.25a1.26,1.26,0,0,1,.56-.35,3,3,0,0,0,.64-.26l.09.26c0-.05,0-.09,0-.09s0,0,0-.17a2.59,2.59,0,0,0,1.68-.82,16,16,0,0,1,2.37-1.68l1.55-.94c.29-.12.66-.31,1.12-.56a7.73,7.73,0,0,0,1.21-.82l1.12-.95a8,8,0,0,0,2-1.21c1-.74,2-1.43,2.93-2.06l.61-.52a6.54,6.54,0,0,0,1.63-1.29l.26-.26a3,3,0,0,0,1.21-.86c.34-.41.69-.78,1-1.12l.43-.52a1.83,1.83,0,0,0,.65-.52,1.27,1.27,0,0,0,.39-.6l-1.3-1.29-.6-.18c-.8-.28-1.87-.61-3.19-1a13.75,13.75,0,0,0-3.7-.56,5,5,0,0,1-1.64.26,3.12,3.12,0,0,1-.52,0,2.92,2.92,0,0,0-.51,0,6,6,0,0,0-1.6.25c-.6.18-1.13.32-1.59.44l-.35.25a6.54,6.54,0,0,1-1.25.48,4.58,4.58,0,0,1-1.24.21l-2.16,1a1.31,1.31,0,0,1-.6.35,3.19,3.19,0,0,0-.69.25l-1.12.69a.3.3,0,0,0-.26.13.28.28,0,0,1-.26.13l-1.2.6a13.55,13.55,0,0,1-2.12,1.3,3.76,3.76,0,0,0-1.76,1.55l.17.17c0,.23-.17.47-.52.73a2.4,2.4,0,0,1-1,.48.21.21,0,0,1-.22-.18.49.49,0,0,0-.13-.25l-.68-.52a3.51,3.51,0,0,1-.26-.6,1.63,1.63,0,0,1-.09-.52c0-.12,0-.19,0-.22s0-.1,0-.21a1.18,1.18,0,0,1-.18-.69v-.86a4,4,0,0,1,.09-.95,4.17,4.17,0,0,0-.09-.73,5.9,5.9,0,0,1-.08-.91V884c-.12-.34-.17-.48-.17-.43a7.93,7.93,0,0,1,.17-1.63,2.52,2.52,0,0,1,.69-1.38l.77-1.38a10.64,10.64,0,0,1,1.64-2.85c1-1.37,2.07-2.87,3.27-4.47a14.57,14.57,0,0,0,1.21-2,4.77,4.77,0,0,1,1.9-2l.25-.26a.89.89,0,0,0-.08-.35l.26-.34,2.93-4,.6-1h-2.41v-.34a7,7,0,0,0-.61-.82,1.71,1.71,0,0,1-.25-1.08l.34-.26a.33.33,0,0,0,.26-.34l.08-.09-.08.09a.94.94,0,0,1-.43.09,1.45,1.45,0,0,1-.43-.18,4.68,4.68,0,0,1,.08-.77c-.05,0-.08-.06-.08-.17a2.45,2.45,0,0,1,0-.43,2.64,2.64,0,0,0,0-.44l.61-.43-.35-.25a1.88,1.88,0,0,1,.35-.69,1,1,0,0,0,.25-.52q.09-.35.87-.69a10.06,10.06,0,0,1,1.89-.6,23.48,23.48,0,0,1,2.33-.43,14.68,14.68,0,0,1,2.15-.18l1.9-.69a7.3,7.3,0,0,0,2.32-.34,6.26,6.26,0,0,1,2-.34h.77l.52-.52a.61.61,0,0,1,.3.08.53.53,0,0,0,.3.09,3.32,3.32,0,0,1,1.51-.34,2.92,2.92,0,0,0,1.68-.61.6.6,0,0,1,.26,0,.56.56,0,0,0,.26,0,5.71,5.71,0,0,0,1.16-.13l1.33-.3.87-.26a11.16,11.16,0,0,1,1.16-.26c.37-.06.79-.14,1.25-.26a4.48,4.48,0,0,0,1.16-.34,7.4,7.4,0,0,1,2.54-.35c.75,0,1.4,0,1.94-.08s1.14-.15,1.77-.26a5.84,5.84,0,0,0,1.72-.6c.12,0,.19,0,.22,0a.17.17,0,0,0,.13,0,16.5,16.5,0,0,1,1.81-.3,15.9,15.9,0,0,1,1.89-.13h.52a.35.35,0,0,0,.17,0,.38.38,0,0,1,.17,0,.17.17,0,0,1,.13,0s.1,0,.22,0a5.16,5.16,0,0,0,1.12-.17,9,9,0,0,0,1.12-.35h.43a6.17,6.17,0,0,0,.73-.17,3.07,3.07,0,0,1,.73-.08,1,1,0,0,1,.31,0,.87.87,0,0,0,.3,0,1.87,1.87,0,0,0,.69-.13,2.26,2.26,0,0,1,.77-.13,3.2,3.2,0,0,1,.86.13,1.22,1.22,0,0,1,.69.56l.17.26a.56.56,0,0,0-.21.17.68.68,0,0,1-.13.18l.52.34v1.55l-1.38.69h1.2a.29.29,0,0,0-.08.17.08.08,0,0,1-.09.09.17.17,0,0,0,.05.13.22.22,0,0,1,0,.13,1,1,0,0,1-.13.43,3.38,3.38,0,0,0-.22.52l-.34.68a2.5,2.5,0,0,1-1.25.39,1.08,1.08,0,0,0-1,.56h1.38Zm-56.18,48.94-.69.35a2.43,2.43,0,0,0-.9.6c-.2.23-.45.49-.74.77v.09l.26-.26a.94.94,0,0,1,.43-.08.23.23,0,0,0,.26-.26l.86-.61ZM150,905c.06,0,.14-.09.26-.26a.78.78,0,0,1-.26.17c-.23.12-.34.23-.34.35S149.81,905.13,150,905Zm.09-2.84a1,1,0,0,0,1-.61,1,1,0,0,0-.47.13l-.39.22v.26Zm.08-.69a.36.36,0,0,0,.09.26l.09-.18a.26.26,0,0,0-.09-.17.33.33,0,0,1-.09-.26Zm1.38-.18h.35a.25.25,0,0,0,.08-.17Zm1,11.46-.09-.08-.34.34.25-.26Zm-.35-11.8a.17.17,0,0,0,.13,0,.17.17,0,0,1,.13,0l-.09-.08s-.08,0-.08,0,0,0-.09,0Zm.61-.69a.5.5,0,0,0-.18.35l.35-.26A.22.22,0,0,1,152.83,900.22Zm.86,1.64a.25.25,0,0,0,.13,0,.15.15,0,0,1,.12-.05v-.08a.15.15,0,0,0-.12,0,.18.18,0,0,1-.13,0Zm.43,10.08a6,6,0,0,0,1.89-1c-.46.17-.86.33-1.2.47a2.08,2.08,0,0,0-.87.65Zm.69-25c-.12.12-.19.17-.22.17s-.07,0-.13.09a.51.51,0,0,0,.35-.09Zm4.22-2.32-1.29.43-1,.86a2.18,2.18,0,0,0-1.64,1h.09l1.47-1a1.61,1.61,0,0,0,.86-.39,6,6,0,0,1,.86-.56ZM156.19,904c.11,0,.17,0,.17-.08A.21.21,0,0,0,156.19,904Zm16.19-3.7a.26.26,0,0,1,.09-.18,3.42,3.42,0,0,0-.95.52q-.6.44-.6.6l-.6.26a21.06,21.06,0,0,1-2.72,1.81,10.24,10.24,0,0,0-2.45,1.9l-.52.34-5,3.19c.06,0-.08.07-.43.22a2.51,2.51,0,0,0-.69.38l-1.29.78a.85.85,0,0,0-.43.17.9.9,0,0,0-.35.43,8.32,8.32,0,0,0,1-.43,6.09,6.09,0,0,0,1.94-1.29l.78-.43a5.72,5.72,0,0,0,1.72-.78c-.17.23-.11.2.17-.08s.68-.65,1.17-1.08a14.13,14.13,0,0,1,1.59-1.21,3,3,0,0,1,1.55-.56l1.47-1.12,1.29-1.25A14.27,14.27,0,0,1,172.38,900.31Zm-14.13-25.42a5.52,5.52,0,0,0-.94,1.21q-.34.6-.78,1.29l1.72-2.24Zm-1.63,28.86a.18.18,0,0,0,.13,0,.15.15,0,0,1,.12,0l.26-.26-.26.26Zm1-21.28a2.82,2.82,0,0,0-.6.35A.63.63,0,0,0,157.65,882.47Zm2.07-9.56a8.83,8.83,0,0,0,.6-.78,2.08,2.08,0,0,0,.43-.77c-.06,0-.16.08-.3.26a5.19,5.19,0,0,0-.43.6l-.56.95v.08Zm.69,11.11a.66.66,0,0,0,.6-.26A.66.66,0,0,0,160.41,884Zm.6-8.61c.23-.23.34-.4.34-.52l-.43.43a.7.7,0,0,0-.25.43A.3.3,0,0,0,161,875.41Zm.86-5.6a.35.35,0,0,0,.26-.35c-.06,0-.14.09-.26.26s-.24.36-.39.56a6.64,6.64,0,0,0-.38.6,1.2,1.2,0,0,0-.18.39l.18-.34a1.41,1.41,0,0,0,.43-.52A5.35,5.35,0,0,1,161.87,869.81Zm-.69,34.55h.26l1.38-.69a8,8,0,0,0,1.29-.78,2.11,2.11,0,0,1,.86-.43.37.37,0,0,1-.08-.26l1.63-1a5,5,0,0,0,1.12-.65c.35-.26.69-.5,1-.73a2.72,2.72,0,0,0,.86-.47c.46-.32.92-.66,1.38-1s.89-.74,1.29-1.12.6-.61.6-.73c-.28.17-.53.33-.73.47l-.64.48-1.47,1a5.32,5.32,0,0,1-.6.51c-.23.17-.43.32-.61.43l-1.46,1c-.52.35-1.13.78-1.85,1.29a7.35,7.35,0,0,1-1.85,1l-1.47,1.12Zm.35-23.61h.08l-.08-.17Zm.08,20.16c.06,0,.09,0,.09,0s0,0,.09,0h-.18Zm1-27.74a1.75,1.75,0,0,0,.51-.86c-.51.51-.77.89-.77,1.12v.08Zm.08,27a.48.48,0,0,0-.34.18A.48.48,0,0,0,162.73,900.13Zm-.25-17a.16.16,0,0,0,.12,0,.18.18,0,0,1,.13,0h-.25Zm1.12,16.46a.93.93,0,0,0-.61.34,1.28,1.28,0,0,0,.61-.34.27.27,0,0,1,.25.13.32.32,0,0,0,.26.13l.09-.09v-.43l1.29-1a.46.46,0,0,0,.34-.09c-.23,0-.34,0-.34.09l-1.29.68C164,899,163.77,899.22,163.6,899.62Zm1.2-17.23a1.32,1.32,0,0,0-1.12.6Zm-.52-11.72-.25.26a.07.07,0,0,1,.08.08Zm.18-.26c.23-.12.34-.26.34-.43A.49.49,0,0,0,164.46,870.41Zm.77,12,.09-.09.08-.09c0-.05,0-.08-.08-.08l-.09.08Zm.69-18.44a.44.44,0,0,1,0-.22.17.17,0,0,0,0-.13l-.18.18c0,.05,0,.08,0,.08S165.92,863.89,165.92,864Zm.6,17.83a2.43,2.43,0,0,0-.43.35C166.27,882.13,166.41,882,166.52,881.78Zm0-14.56c.18,0,.26-.14.26-.43A.52.52,0,0,0,166.52,867.22Zm1.81-2.58a.14.14,0,0,1,.09-.13c.06,0,.09-.1.09-.22l-.09-.17-.3.3-.22.22-.51.94a.77.77,0,0,1-.26.39c-.12.09-.17.28-.17.56.22-.28.43-.53.6-.73a7,7,0,0,1,.52-.56A.35.35,0,0,0,168,865a.15.15,0,0,1,0-.12Zm-1.2-2.85h.17l-.09-.08Zm.26,20a.41.41,0,0,1,.17.05.33.33,0,0,0,.17,0,.22.22,0,0,0,.17-.09,1.69,1.69,0,0,0-.26-.51Zm4.05-22.49a.32.32,0,0,0,.25.09c.12,0,.29-.11.52-.34H172A.73.73,0,0,0,171.44,859.29Zm1.12-.25H173s.1-.06.22-.18Zm.86,40.23-.86.69a1.24,1.24,0,0,0,.86-.43Zm-.09-23.69c0,.06,0,.09-.08.09l.08.08c.06,0,.09,0,.09-.08v-.09l-.09-.09Zm1.81-16.89a.33.33,0,0,1,.26,0c.06,0,.11,0,.17,0h-.17A.38.38,0,0,0,175.14,858.69Zm3.19-.69a.4.4,0,0,0,.26-.08h-.22l-.64.08-.87.26.52.09.43-.22A1.25,1.25,0,0,1,178.33,858Zm3.44-.77-.77.17a3.24,3.24,0,0,0-.69.26l.78-.09a.88.88,0,0,0,.34-.08l.34-.18Zm.52,0H182c0,.11,0,.17.08.17a.17.17,0,0,0,.13,0,.17.17,0,0,1,.13-.05Zm1.55-.18,1-.12a2.06,2.06,0,0,0,.91-.31,6.41,6.41,0,0,1-1,.13A2.25,2.25,0,0,0,183.84,857.05Zm5.34-.94c0-.06,0-.09-.08-.09a.22.22,0,0,0-.13,0,.17.17,0,0,1-.13.05h.34Zm.52-.09h-.26l.26.09Zm2.59-.52H192a1.91,1.91,0,0,0-.61.09l-.43.17.87-.08a.26.26,0,0,0,.25-.18Zm4.48-.69a1.26,1.26,0,0,0,.94-.34,2.28,2.28,0,0,1-.56.09.46.46,0,0,0-.38.25,1.44,1.44,0,0,0-.52-.17l-.17.09-.69.17c-.06,0-.12.06-.17.17a1.22,1.22,0,0,0,.69-.17h.17a.45.45,0,0,1,.34,0A.48.48,0,0,0,196.77,854.81Zm.51-5.68h0Zm1.55,5.34a.38.38,0,0,1-.17,0,.37.37,0,0,0-.17,0,.26.26,0,0,1-.17.09H198a.26.26,0,0,0,.18.09c.11,0,.17,0,.17,0s0,0,.08,0Zm.35,0a.17.17,0,0,0,.13,0,.17.17,0,0,1,.13,0,.26.26,0,0,0-.09-.17.14.14,0,0,0-.13.09.13.13,0,0,1-.13.08Zm1.29-.34h.3c.09,0,.19-.09.3-.26Zm2.33-.35a1.19,1.19,0,0,0,.47-.09l.48-.17-1.12.26Z"/><path class="cls-4" d="M230.71,857.66c.06.34.1.67.13,1s0,.64,0,1l-.18,3.45c0,.46,0,.87,0,1.25s-.07.79-.13,1.24l-.26,1.3a24.76,24.76,0,0,0-.39,3.4,19.91,19.91,0,0,1-1.5,5.73l-.26,1a7.93,7.93,0,0,0-.78,1.72,12.77,12.77,0,0,1-.6,1.55l-.52,1.29a7.94,7.94,0,0,0-.43.82c-.17.38-.36.75-.56,1.12s-.4.72-.6,1a1.2,1.2,0,0,1-.65.56v.6l-.08-.09a6.5,6.5,0,0,1-.61,1h.09l-.35.26c-.46.74-.86,1.45-1.2,2.11a16.13,16.13,0,0,1-1.29,2l-.43.61a5.11,5.11,0,0,1-.61.68,10.67,10.67,0,0,0-.64,1.21,7.7,7.7,0,0,1-2,2.33l-1,1.55a.8.8,0,0,0-.26.21.27.27,0,0,1-.25.13l-.26.61a1.79,1.79,0,0,0-.82.9c-.26.49-.5.73-.73.73l-.22.22-.73.73a11.48,11.48,0,0,0-.86,1,2.21,2.21,0,0,0-.52.95c.06,0,0,.07-.13.21s-.32.3-.52.48-.38.34-.56.51-.25.29-.25.35l-.43-.26-.26.95a.6.6,0,0,1-.22.25,1.42,1.42,0,0,0-.3.35l-.43.26c0,.05-.12.18-.35.39L207,907a9.35,9.35,0,0,0-.95.86,2.74,2.74,0,0,0-.65.9,5.24,5.24,0,0,0-.56,0,.72.72,0,0,0-.56.31l-.95.69-1.46.34-.35.17a.5.5,0,0,1-.34-.17h-.26a.91.91,0,0,1-.43.09,4.09,4.09,0,0,1-1.77-.39c-.54-.26-1.13-.5-1.76-.73l-1.21-.87c-.63-.46-1.2-.86-1.72-1.2a4.27,4.27,0,0,1-1.29-1.38l-1.81-2.84c-.35-.92-.72-1.78-1.12-2.59a8.16,8.16,0,0,1-.78-2.84l-.26-1.29a9.39,9.39,0,0,1-.21-1.73c0-.69,0-1.29,0-1.81v-2.5a18.45,18.45,0,0,0,.31-2.62,8.39,8.39,0,0,1,.47-2.46l.17-1.21a1.75,1.75,0,0,1,.05-.43,2,2,0,0,0,0-.25l.6-1.56L191,879a3.5,3.5,0,0,0,1-1.77,5.2,5.2,0,0,1,.82-1.85l.43-.61h-.34v-.25l.26-.35a3.75,3.75,0,0,0,.6-1.16c.23-.61.5-1.29.82-2.07s.67-1.61,1.08-2.5a11.77,11.77,0,0,1,1.55-2.54l1.46-2.84a25,25,0,0,1,1.64-2.76,28.73,28.73,0,0,1,2.07-2.76l.6-.86a1.75,1.75,0,0,0,.47-.47c.15-.2.28-.39.39-.56l1.47-1.55c.34-.35.7-.69,1.07-1a5.28,5.28,0,0,0,1-1.2h-.08v-.18c0-.11.08-.24.26-.38a3.55,3.55,0,0,0,.51-.56l1.38-1.12c.12,0,.17-.06.17-.18a10,10,0,0,1,1.08-1.07c.43-.38.88-.74,1.34-1.08s.89-.65,1.29-.91a5.4,5.4,0,0,1,.86-.47,11.43,11.43,0,0,1,1.59-1c.49-.23,1-.44,1.51-.64a4.13,4.13,0,0,1,1.47-.31h1.2a3.64,3.64,0,0,1,1.64.35l.43.17,1.47,1.29a3.21,3.21,0,0,1,1.07.35c.32.17.56.32.73.43l.78,1a3.14,3.14,0,0,0,1,1.25,3.9,3.9,0,0,1,1.21,1.5l1.29,2.59.43,1.64a2.66,2.66,0,0,1,.18.43,1.81,1.81,0,0,1,.08.51ZM223,865.84c.11-.46.27-1,.47-1.63a5.56,5.56,0,0,0,.3-1.64v-.43a10,10,0,0,0,.61-3.53l.26-2.16v-2a1.29,1.29,0,0,1-.95.34v-.43h-.17a1,1,0,0,1-.95-.51l-.35-.61a2.53,2.53,0,0,1-.77-.43.89.89,0,0,0-.61-.17,2.85,2.85,0,0,0-.77.17l-1.21.35-1,.69a3,3,0,0,0-1.51.73c-.66.49-1.13.85-1.42,1.08l-1.47,1.37a.66.66,0,0,0-.51.18l-.35.34-.26.43a1.08,1.08,0,0,1-.51.61,1.52,1.52,0,0,0-.61.6l-1.29,1.38a.29.29,0,0,0-.26.13.59.59,0,0,1-.25.21l-.52.61a13.31,13.31,0,0,1-2.16,2.84l-1.2,1.55a1.62,1.62,0,0,0-.26.3,2.14,2.14,0,0,0-.17.3l-1.3,2h-.08l-.09.18L202.11,871a24.08,24.08,0,0,0-1.17,2.11,30.6,30.6,0,0,1-1.76,3.06l-.17.26a4.36,4.36,0,0,1-.26.82c-.12.26-.23.5-.35.73l-1.46,3.19-1,2.58c-.05.12-.11.26-.17.44a1.51,1.51,0,0,0-.08.51v2.41a6.73,6.73,0,0,1-.26,1.73c-.18.63-.32,1.23-.43,1.81l-.26,2a16,16,0,0,0-.09,1.81,3.71,3.71,0,0,1-.17,1.38v.6a2.18,2.18,0,0,1,.09.9c0,.55,0,1.17,0,1.86a7.17,7.17,0,0,0,.34,1.94,2,2,0,0,0,1.08,1.25,5,5,0,0,0,2.46-.56,13.73,13.73,0,0,1,1.42-.74.41.41,0,0,1,.17,0,.59.59,0,0,0,.26,0v-.35l2.32-2.49a3.23,3.23,0,0,1,1-1l.43-.43.77-1.29a1.07,1.07,0,0,1,.39-.26,1.27,1.27,0,0,0,.39-.26l1-1.29,1.46-1.64,1-1.47a3.08,3.08,0,0,0,.82-1.12,2.67,2.67,0,0,1,.9-1.12l.26-.34a3.8,3.8,0,0,1,.86-.91,1.59,1.59,0,0,0,.6-1,8.54,8.54,0,0,1,.61-.73c.28-.31.67-.77,1.16-1.38a27.17,27.17,0,0,0,1.64-2.32,35.57,35.57,0,0,0,1.94-3.58l.25-.52a4.22,4.22,0,0,0,.61-.77l.51-.86.69-1.21a4.77,4.77,0,0,1,.86-2.07,4.8,4.8,0,0,0,.87-2.15l.34-.26v-.95a5.52,5.52,0,0,0,.17-.77c.06-.35.13-.71.22-1.08s.17-.73.26-1.08A1.49,1.49,0,0,1,223,865.84Zm-16.89-6.55a.26.26,0,0,0-.09.18c0,.06.06.08.18.08v-.08l-.09-.18c.17,0,.26,0,.26-.08a.17.17,0,0,0-.13,0A.17.17,0,0,1,206.07,859.29Zm1,3.19a2.33,2.33,0,0,1-.35.3,2.34,2.34,0,1,0,.35-.3Zm-.43-3.62.08.09.18-.3a.61.61,0,0,0,.08-.3Zm.6,3.28c0,.11,0,.19,0,.21a.19.19,0,0,0-.05.13l.18-.17Zm.35-4.57a.66.66,0,0,0-.09.43,2.28,2.28,0,0,1,.43-.6c.29-.35.57-.66.86-.95l1.81-1.72a6.71,6.71,0,0,1,.91-1c.31-.28.64-.57,1-.86l.43-.51c-.29,0-.43,0-.43-.09s-.09,0-.26.22l-1,1.2c-.51.6-1.46,1.6-2.84,3Zm.86,47.48a.37.37,0,0,1,.08-.26.36.36,0,0,0,.09-.26v-.17a5.39,5.39,0,0,1-.52.3,1.14,1.14,0,0,0-.43.39c.06.11.1.17.13.17s.07,0,.13.08Zm2.75-47a.57.57,0,0,0,.18-.43v-.17a2.05,2.05,0,0,0-.69.65,2.24,2.24,0,0,1-.69.64l-.95,1.12a7.9,7.9,0,0,1-.65,1c-.31.43-.5.65-.56.65v.09l.18-.18c.4-.4.74-.77,1-1.12s.57-.66.86-1ZM208,904.36a.7.7,0,0,1,.51-.26v-.17H208l-.18.34Zm1.46-52.73a1.44,1.44,0,0,1-.34.38.76.76,0,0,0-.26.31l.39-.18Q209.43,852.07,209.43,851.63Zm-.6,52.3s.08-.06.08-.18S208.83,903.81,208.83,903.93Zm1.55-53.16c-.17.17-.26.28-.26.34v.09Zm.52-.44a.39.39,0,0,0-.22.22.19.19,0,0,1-.21.13,1.06,1.06,0,0,0,.73-.43c.26-.29.53-.58.82-.86-.23.11-.45.23-.65.34A1.17,1.17,0,0,0,210.9,850.33Zm1.12,6.38a.77.77,0,0,0-.43.52A.82.82,0,0,0,212,856.71Zm0,43.86c.11-.35.17-.49.17-.44h-.09l-.17.18A.36.36,0,0,0,212,900.57Zm.51-44.2a.29.29,0,0,0-.17.08Zm.69-.87a2.84,2.84,0,0,0-.26.31c-.05.08-.11.18-.17.3a2.49,2.49,0,0,0,.86-.56c.46-.38,1-.76,1.55-1.17l-.25-.25c-.29.23-.58.47-.87.73A4.91,4.91,0,0,1,213.22,855.5Zm.09-3.61a1,1,0,0,0-.35.34.94.94,0,0,1,.43-.09A.32.32,0,0,0,213.31,851.89Zm2.58,1.72a.15.15,0,0,1-.17.17.08.08,0,0,0,.09.09v-.09Zm1-.43a1.63,1.63,0,0,1-.39.13.83.83,0,0,0-.39.21,1,1,0,0,1,.39-.08A.5.5,0,0,0,216.93,853.18Zm.69-.61a.41.41,0,0,0-.35.13,2,2,0,0,1-.26.31A.54.54,0,0,0,217.62,852.57ZM222.87,872l-.08.09a.22.22,0,0,0-.09.17.08.08,0,0,1-.09.09l-1.12,2.75a1.12,1.12,0,0,0-.34,1q.16-.35.3-.69a1.73,1.73,0,0,1,.39-.6l.43-.86c.11-.29.21-.59.3-.91s.16-.62.22-.9Zm-.51,14.22a.34.34,0,0,0-.18.34Zm.86-8.1c.23-.06.5-.4.82-1a18.77,18.77,0,0,0,.86-2.06,22.43,22.43,0,0,0,.64-2.2,7.15,7.15,0,0,0,.26-1.51h-.08l-.78,2.16a6.13,6.13,0,0,1-.34,1,4,4,0,0,1-.26.69c-.17.4-.35.85-.52,1.33s-.43,1.11-.78,1.86h.09C223.19,878.34,223.22,878.25,223.22,878.08Zm4.39-2.67a2.18,2.18,0,0,0,.09-.69.24.24,0,0,1-.18.08,20.12,20.12,0,0,1-1.5,3.92q-1.08,2.21-2.29,5v.08c.12,0,.38-.38.78-1.16s.75-1.45,1-2c-.11.11-.11.1,0-.05a6.11,6.11,0,0,0,.43-.6,7.34,7.34,0,0,0,.48-.82,1.91,1.91,0,0,0,.21-.86l.78-2.15c.06-.18.1-.31.13-.39A1,1,0,0,0,227.61,875.41Zm.17-1.21-.08.17h.08Zm0,0a.48.48,0,0,0,.18-.34v-.26Zm.61-2.24a1.42,1.42,0,0,0,.26-.86v-.17A2.19,2.19,0,0,0,228.39,872Zm.34-1.21.09-.08h-.09Z"/><path class="cls-4" d="M248.72,923.48a2.88,2.88,0,0,1-.13-1.16c0-.43,0-.85,0-1.25a4.73,4.73,0,0,1,.09-.9,5.36,5.36,0,0,0,.09-1v-1a9.78,9.78,0,0,1,.3-2.32c.2-.86.44-1.77.73-2.72s.59-1.88.9-2.8.62-1.75.91-2.5a19.2,19.2,0,0,0,1.2-1.93,15.55,15.55,0,0,0,1.64-4.53l1.55-3.19c.35-.69.63-1.22.86-1.59l.65-1q.3-.48,1-1.47c.46-.66,1.11-1.64,1.94-2.93s2-3.11,3.4-5.47A5.6,5.6,0,0,1,265,884.5a6.11,6.11,0,0,0,1.51-2.54,35.18,35.18,0,0,1,2.93-4.31q1.64-2.07,3.36-4a3.6,3.6,0,0,1,.6-.64l.91-.82a7.09,7.09,0,0,0,.86-1,2.39,2.39,0,0,0,.47-.95,17.42,17.42,0,0,1,2.2-1.85,7.24,7.24,0,0,0,1.94-2,6.69,6.69,0,0,1,1.85-1.68,35.91,35.91,0,0,0,4-3.67,29,29,0,0,1,2.45-2.19c.83-.66,1.65-1.37,2.46-2.11.4-.23.92-.56,1.55-1s1.28-.87,1.94-1.3,1.26-.84,1.81-1.25a4.06,4.06,0,0,0,1.07-1,24.81,24.81,0,0,1,4.18-2.89,28.4,28.4,0,0,0,4-2.62c.05-.12.39-.32,1-.61s1.36-.66,2.28-1.12,1.91-1,3-1.55a27.91,27.91,0,0,0,3.06-1.89c.35-.23.86-.55,1.55-.95s1.41-.79,2.16-1.16,1.45-.71,2.11-1a4.35,4.35,0,0,1,1.51-.43,11.34,11.34,0,0,0,2.58-.86l2.63-1.25a21.79,21.79,0,0,1,2.84-1.12,11.24,11.24,0,0,1,3.32-.47h1a8.5,8.5,0,0,1,1.34.13,5.42,5.42,0,0,1,1.42.39,1.78,1.78,0,0,1,1.34.81,9.76,9.76,0,0,1,1.16,1.94,14.83,14.83,0,0,1,.82,2.24,7.24,7.24,0,0,1,.3,1.73,8.38,8.38,0,0,1,0,.86,8.27,8.27,0,0,0-.05.86,5.53,5.53,0,0,1-.64,2.07,34.68,34.68,0,0,1-1.68,3.1q-1,1.72-2.42,3.66c-.91,1.29-1.89,2.54-2.92,3.75a2.17,2.17,0,0,0-.35.6,7.61,7.61,0,0,1-.73,1.21c-.43.63-1.16,1.58-2.2,2.84s-2.61,3.1-4.74,5.52a12.36,12.36,0,0,0-.82,1c-.37.49-.86,1.07-1.46,1.76s-1.29,1.42-2.07,2.2a15.3,15.3,0,0,1-2.63,2.11,9.26,9.26,0,0,0-1.63,1.47c-.52.57-1.07,1.16-1.64,1.76s-1.21,1.21-1.9,1.81a12,12,0,0,1-2.32,1.59c-.29-.11-.64-.27-1-.47a1.17,1.17,0,0,1-.6-1.16.76.76,0,0,1,.09-.35.84.84,0,0,0,.08-.34.38.38,0,0,0-.08-.26,4.1,4.1,0,0,1-.61.26,2.53,2.53,0,0,1-.43-1.29,2.64,2.64,0,0,1,.18-.78,1.35,1.35,0,0,1-.18-.77,2.53,2.53,0,0,1,.43-1.3c.06-.11.36-.54.91-1.29s1.15-1.55,1.81-2.41,1.33-1.67,2-2.41a6.81,6.81,0,0,1,1.55-1.38c.12-.12.32-.33.61-.65s.58-.66.9-1,.63-.74.95-1.08a4.66,4.66,0,0,1,.9-.78,4.48,4.48,0,0,0,.43-.73,11.75,11.75,0,0,1,1-1.51,20,20,0,0,1,1.46-1.72,5.77,5.77,0,0,1,1.77-1.29,18.56,18.56,0,0,1,1.16-1.72,16.39,16.39,0,0,1,1.59-1.9c.63-.86,1.17-1.59,1.6-2.2l1.29-1.81c.43-.6.93-1.29,1.51-2.06s1.35-1.77,2.32-3a.24.24,0,0,1-.08-.13.72.72,0,0,0-.17-.21,10.54,10.54,0,0,1-1.68.82,11,11,0,0,1-1.94.56,45.22,45.22,0,0,0-6.29,2.71l-5.6,3a11.12,11.12,0,0,0-1,.69c-.55.41-1.23.88-2,1.42s-1.69,1.12-2.67,1.73-2,1.16-2.93,1.68c-.12-.12-.17-.2-.17-.26a1.28,1.28,0,0,1,.34-.6,7.78,7.78,0,0,1,.52-.61,2.34,2.34,0,0,0-1.29.61A9.48,9.48,0,0,0,305.5,857a1.8,1.8,0,0,0-1.25.65,7.69,7.69,0,0,0-1.08,1.33,3.69,3.69,0,0,0,1.6-.9c.77-.61,1.39-1.08,1.85-1.43a4.51,4.51,0,0,0,.69.26,1.85,1.85,0,0,1-1,1,3.89,3.89,0,0,0-1.2.78,8.85,8.85,0,0,1-1.34,1.2c-.72.58-1.59,1.31-2.63,2.2s-2.19,1.91-3.48,3.06-2.63,2.41-4,3.79c-.35.4-.66.75-.95,1s-.56.55-.82.78a3.7,3.7,0,0,1-.73.52,21.12,21.12,0,0,1-2.54,2.75,25.8,25.8,0,0,0-2.8,3,.64.64,0,0,0-.09.3,2.26,2.26,0,0,1-.43.73c-.29.4-.79,1-1.51,1.81s-1.82,2-3.31,3.45c.05-.06,0,.07-.26.39s-.52.69-.86,1.12-.68.87-1,1.33-.56.81-.74,1c-1,1.56-2,3-3.06,4.49a41.09,41.09,0,0,0-3,4.65l-.52.56c-.28.31-.61.73-1,1.25s-.74,1.07-1.12,1.68a7.38,7.38,0,0,0-.82,1.85,11.84,11.84,0,0,1-1.2,2.2c-.46.66-1,1.49-1.59,2.5a39,39,0,0,0-2,4c-.75,1.64-1.58,3.8-2.5,6.5a9.9,9.9,0,0,1-.6,2.42,15,15,0,0,0-.6,4.65,20.06,20.06,0,0,0,.12,2.15,7.28,7.28,0,0,0,.52,2,4.27,4.27,0,0,0,1,1.46,2.16,2.16,0,0,0,1.55.56c.35,0,.69,0,1,0s.71-.07,1.12-.13c-.12.06.07.06.56,0a11.37,11.37,0,0,0,1.85-.43c.75-.23,1.52-.52,2.33-.86a6.53,6.53,0,0,0,2-1.29,2.52,2.52,0,0,0,1-.48c.49-.31,1-.69,1.55-1.12s1.1-.85,1.68-1.25,1-.72,1.38-.95a23.12,23.12,0,0,0,3.23-2.49q1.59-1.47,3.23-2.85c.46-.4.95-.79,1.47-1.16a12.22,12.22,0,0,0,1.46-1.25c.46-.34.9-.7,1.34-1.08l1.5-1.29c.58-.49,1.22-1.05,1.94-1.68l2.54-2.24c.63-.57,1.34-1.25,2.11-2a28.65,28.65,0,0,1,2.37-2.12c-.11,0,.09-.25.61-.77l2-2c.8-.81,1.71-1.65,2.71-2.54s1.94-1.68,2.8-2.37a11.82,11.82,0,0,0,1.64-1.6c.63-.71,1.29-1.43,2-2.15s1.39-1.39,2.11-2a6.29,6.29,0,0,1,2.11-1.29.89.89,0,0,0,.35.43l.34.17a2.25,2.25,0,0,1,.35.22.87.87,0,0,1,.26.47c-.06.18-.21.55-.44,1.12a.43.43,0,0,0,.39-.17.39.39,0,0,1,.3-.17.14.14,0,0,1,.13.09s.13.28.3.69a3.45,3.45,0,0,0-.21,1,1.93,1.93,0,0,1-.47,1.07h.08a.45.45,0,0,0,.39-.17.39.39,0,0,1,.3-.17.34.34,0,0,1,.09.26,1.62,1.62,0,0,1-.48.81c-.31.38-.67.78-1.07,1.21s-.82.85-1.25,1.25-.76.72-1,1q-4,4.3-8.62,8.36c.06-.06,0,0-.09.17a3.89,3.89,0,0,1-.51.6l-.69.69c-.23.23-.4.35-.52.35l-.09-.09c-.05,0-.08,0-.08-.09a.14.14,0,0,1,.08-.13.49.49,0,0,0,.18-.21.68.68,0,0,0-.18-.13.86.86,0,0,1-.17-.13,3.16,3.16,0,0,0-.95.65,3.07,3.07,0,0,0-.77,1.07.08.08,0,0,1,.09.09,1.66,1.66,0,0,0,1.12-.78c.11.23.17.32.17.26a2.12,2.12,0,0,1-.35.52,3.55,3.55,0,0,0-1,1.16,4.86,4.86,0,0,1-1.76,1.6,8.25,8.25,0,0,0-2.67,2.32,16,16,0,0,1-2.76,2.76l-1.6,1.59a15.61,15.61,0,0,1-2.62,2.11,2.85,2.85,0,0,0,.17-.77.91.91,0,0,1-.43-.09,1.6,1.6,0,0,1-.39.61.46.46,0,0,0-.22.34v.09a.4.4,0,0,0,.26-.43l.3.13a2.13,2.13,0,0,1,.31.12,6.78,6.78,0,0,1-1.38,1.68c-.69.66-1.47,1.38-2.33,2.16s-1.75,1.53-2.67,2.28-1.72,1.38-2.41,1.9l-.82.77a19.45,19.45,0,0,1-2.37,1.73l-2.67,1.72c-.81.52-1.6,1-2.37,1.42l-2.37,1.29c-.81.43-1.72.88-2.76,1.34l-1.12-.26a2.15,2.15,0,0,1-1.29.43,4.52,4.52,0,0,1-1.64-.26,8.55,8.55,0,0,1-1.33-.64,11.66,11.66,0,0,1-1.25-.87,11,11,0,0,0-1.38-.9,6.48,6.48,0,0,1-2.41-1.9,6.76,6.76,0,0,0-2.07-1.8,8.3,8.3,0,0,1-3.66-3.49A20.21,20.21,0,0,1,248.72,923.48Zm9.65-22a.76.76,0,0,0-.09.35l.18-.17c0-.06,0-.09,0-.09S258.37,901.57,258.37,901.51Zm.77-1.12a.71.71,0,0,0-.34.52,1.1,1.1,0,0,0,.52-.65,2.5,2.5,0,0,0,.17-.64.69.69,0,0,0-.35.51Zm1-2a1.19,1.19,0,0,0-.6,1.12,5.47,5.47,0,0,0,.94-1.25c.46-.71,1.3-2.11,2.5-4.18a5.82,5.82,0,0,1,.69-1.07c.4-.55.83-1.15,1.29-1.81s.87-1.3,1.21-1.9a3.27,3.27,0,0,0,.52-1.33,6.8,6.8,0,0,0-1,1.33c-.57.84-1.32,1.94-2.24,3.32-.63.86-1.16,1.61-1.59,2.24a18.4,18.4,0,0,0-1.16,1.94A3.66,3.66,0,0,0,260.18,898.41Zm2.5,11.46a3.24,3.24,0,0,1-.43.35c.28-.06.43-.12.43-.18Zm.17-20.33c.06,0,.09,0,.09.08s0-.08.08-.08l-.08-.09Zm4.31-2.24a.51.51,0,0,0-.26.43A.4.4,0,0,0,267.16,887.3Zm.43-.61a.52.52,0,0,0-.26.43,1.47,1.47,0,0,0,.43-.38,3.05,3.05,0,0,0,.43-.65q.6-1,.78-1.29a9.45,9.45,0,0,1,.6-.78c.29-.34.76-.94,1.42-1.81s1.77-2.32,3.32-4.39a10.71,10.71,0,0,1,1.59-1.72c.55-.46,1.09-1,1.64-1.47s1.09-1.09,1.64-1.72a12.59,12.59,0,0,0,1.59-2.5.76.76,0,0,0-.86.86,2.58,2.58,0,0,0-.86.61l-1.25,1.24a27.83,27.83,0,0,0-2,2.37c-.28.35-.67.78-1.16,1.3s-1,1.06-1.46,1.63-.94,1.14-1.34,1.68a3.44,3.44,0,0,0-.69,1.42c.12,0,0,.11-.34.48s-.77.83-1.25,1.38a13,13,0,0,0-1.34,1.76A3.18,3.18,0,0,0,267.59,886.69Zm4,3.11c.06,0,.13-.08.22-.22a1.85,1.85,0,0,1,.3-.39c.11-.17.26-.37.43-.6v-.26c-.12.12-.38.42-.78.91a2.09,2.09,0,0,0-.6,1.16A.53.53,0,0,0,271.55,889.8Zm1.55,2.67a.36.36,0,0,0-.17-.35,1.4,1.4,0,0,0-.43,1,3.15,3.15,0,0,0,.6-.61Zm3.54-9.48a10.08,10.08,0,0,1,1.12-1.55,7.6,7.6,0,0,0,1-1.55l-1,.94c-.4.41-.8.84-1.2,1.3a10.39,10.39,0,0,0-1,1.38,2.27,2.27,0,0,0-.43,1.12c.11,0,.36-.23.73-.69S276.52,883.16,276.64,883Zm-.44-11.37c-.11,0-.17,0-.17.08s0,.09.05.09,0,0,0,.09c.11-.12.17-.21.17-.26ZM278,885.23a.88.88,0,0,0,.61-.86A1,1,0,0,0,278,885.23Zm2.42-2.84c.05-.06.07-.1,0-.13s0-.1,0-.22a5.06,5.06,0,0,0-1.07.86,2.57,2.57,0,0,0-.56,1.21,1.45,1.45,0,0,0,.9-.78A2.79,2.79,0,0,1,280.43,882.39ZM279,879.71a3.58,3.58,0,0,0,.78-.68,1.71,1.71,0,0,0,.08-.61c-.17.23-.36.46-.56.69A1,1,0,0,0,279,879.71Zm1.29-12.4-.17.34h.09c.11,0,.17,0,.17-.08A.61.61,0,0,0,280.25,867.31Zm1.64,8.44a1.8,1.8,0,0,0-.34.69v.09c.91-.92,1.81-1.86,2.67-2.8s1.75-2,2.67-3.23c-.23.23-.2.18.08-.13l1.21-1.3,1.81-1.89c.69-.72,1.29-1.34,1.81-1.85-.06,0-.1.08-.13.08s-.07,0-.13.09a10.08,10.08,0,0,0-2.24,2,29.12,29.12,0,0,1-2.07,2.29l-.6.56q-.69.64-1.59,1.59t-1.86,2A7.18,7.18,0,0,0,281.89,875.75Zm1.21,3.19a6.06,6.06,0,0,1,.73-.78,1.9,1.9,0,0,0,.56-.86c-.23,0-.53.2-.91.61a1.68,1.68,0,0,0-.56,1V879Q283.1,879,283.1,878.94Zm12-13.27c-.8.92-1.63,1.84-2.5,2.76a28.36,28.36,0,0,1-3,2.76c-.81.69-1.52,1.35-2.15,2a13.65,13.65,0,0,0-1.51,1.55,2.25,2.25,0,0,0-.65,1.2l.17.18q2.67-2.67,5.22-5.39t5.3-5.47a1.4,1.4,0,0,0,.73-.39l1.07-.9a9.18,9.18,0,0,0,1.08-1.08c.32-.37.56-.67.73-.9-.57.57-1.32,1.25-2.24,2A17.32,17.32,0,0,1,295.07,865.67Zm-2.75-.86a.34.34,0,0,0-.35.26C292.2,865.07,292.32,865,292.32,864.81Zm6.29,47.65c-.12.11-.19.17-.22.17s-.07,0-.13.08a.26.26,0,0,0,.17.09Zm.94-.87v.09l.09-.09-.09-.08Zm.95-50.4a.57.57,0,0,0-.52.35C300.33,861.54,300.5,861.42,300.5,861.19Zm1.47-1.38c-.12.12-.18.2-.18.26a.08.08,0,0,0,.09.09,2.16,2.16,0,0,0,.56-.3c.09-.09.27-.31.56-.65a.91.91,0,0,0-.65.21Zm1.29,48a.68.68,0,0,0-.52.69q.69,0,.69-.51C303.43,907.86,303.37,907.8,303.26,907.8Zm.86-.77a.4.4,0,0,1-.22.21c-.08,0-.12.1-.12.22a.22.22,0,0,0,.08.17,9.45,9.45,0,0,1,.95-.86c-.06,0-.12-.15-.17-.43l-.26.39C304.32,906.81,304.23,906.91,304.12,907Zm1.81-1.47-.09.09A.08.08,0,0,1,305.93,905.56Zm7.58-29.64a4.45,4.45,0,0,1-1.08.87,2.11,2.11,0,0,0-.81.86l.81-.56a6.75,6.75,0,0,0,.61-.48.7.7,0,0,0,.3-.51Zm-.26-3.27c-.23,0-.34.14-.34.43A.49.49,0,0,0,313.25,872.65Zm.26-.17a1.6,1.6,0,0,0,.43-.43A.54.54,0,0,0,313.51,872.48Zm.52,2.75a.34.34,0,0,0,.26.09V875Zm.52-3.7a.15.15,0,0,0,.17-.17h-.26A.24.24,0,0,0,314.55,871.53Zm13.78-11.2a2.21,2.21,0,0,0,1-1.47,2.11,2.11,0,0,0-1,1.47c-.86.86-1.69,1.72-2.5,2.58a24.89,24.89,0,0,0-2.15,2.67c-.81.81-1.5,1.51-2.07,2.12l-1.77,1.85-2.06,2.15c-.78.81-1.74,1.78-2.89,2.93.17,0,.42-.17.73-.52a9.69,9.69,0,0,0,.73-.86,1.85,1.85,0,0,0,.74-.43,9.46,9.46,0,0,0,1.12-1c.37-.4.74-.81,1.12-1.21a4.91,4.91,0,0,0,.73-1c.17-.17.5-.45,1-.86a19,19,0,0,0,1.42-1.29c.46-.46.88-.9,1.25-1.34a1.84,1.84,0,0,0,.56-1.07h.09c.28-.23.64-.56,1.07-1s.87-.88,1.3-1.34a15.53,15.53,0,0,0,1.12-1.33A2,2,0,0,0,328.33,860.33Zm-12.75,9.82c0-.06-.06.09-.17.43l.34-.34A.24.24,0,0,1,315.58,870.15Zm.17-20.25a.5.5,0,0,0,.35.18.84.84,0,0,1,.34.08,1.34,1.34,0,0,0,.22-.43.66.66,0,0,1,.3-.34c.05-.12,0-.18-.13-.18h-.39Zm.35,19.65a.17.17,0,0,0,0,.13.17.17,0,0,1,0,.13c.12-.12.46-.45,1-1s1.09-1.08,1.55-1.6a64.29,64.29,0,0,1,4.61-5.17,44.08,44.08,0,0,0,4.87-5.94c.22-.23.53-.56.9-1s.73-.88,1.08-1.34.64-.87.9-1.25a1.73,1.73,0,0,0,.39-.82v-.26l-.35.35-.34.34a18.25,18.25,0,0,1-.9,1.6c-.32.49-.69,1-1.12,1.59s-1,1.21-1.6,1.9-1.38,1.52-2.24,2.5a59.43,59.43,0,0,0-4.35,4.86,60.74,60.74,0,0,1-4.44,5ZM322,859.38c-.06.06-.09.1-.09.13s0,.07-.09.13l.26-.26Zm11-5.25a4.11,4.11,0,0,0-.73.64c-.37.38-.76.81-1.16,1.29a14.61,14.61,0,0,0-1,1.43,2.37,2.37,0,0,0-.43,1.12,2.72,2.72,0,0,0,.78-.74,5,5,0,0,1,.77-.82,2.57,2.57,0,0,1,.44-.68l.73-1c.26-.35.5-.66.73-.95a1.33,1.33,0,0,0,.34-.6c0-.06-.05-.15-.17-.26C333.07,853.67,333,853.84,333,854.13Zm1-1.56.08-.08H334Zm.69-.77v-.09l-.09.18A.08.08,0,0,1,334.71,851.8Z"/><path class="cls-4" d="M360.38,879a8.16,8.16,0,0,1-.17.86,1.08,1.08,0,0,1-.43.6l-1.72,1.81c0,.12-.31.45-.91,1a13.5,13.5,0,0,0-1.33,1.34l-.35.25-1.55,1.56c-.29.28-.53.54-.73.77l-.73.82-1,1.12c-.4.43-.95,1-1.63,1.68l-.18.26a5.44,5.44,0,0,0-.73.69l-.65.77-2.15,2.76a4.66,4.66,0,0,1-.39.65,5,5,0,0,1-.47.56l-2.41,2.93-1.73,1.72-1.46,1.72a24.77,24.77,0,0,0-2,2.59,8.53,8.53,0,0,1-2.11,2.24l-1.72,2c-.06.06-.19.18-.39.39a2,2,0,0,1-.47.38l-.86.78-.26.09c0-.06-.06-.15-.17-.26a.15.15,0,0,0,.12-.05.18.18,0,0,1,.13,0v-.34a1,1,0,0,1-.43.08.94.94,0,0,1,.09.43l-.35-.17a2.73,2.73,0,0,0-.51.47c-.17.21-.32.31-.43.31a.38.38,0,0,0,0,.17.35.35,0,0,1,0,.17l.43-.52V912l-1.12,1.12a.44.44,0,0,0-.3.12.39.39,0,0,1-.3.13.25.25,0,0,1-.17-.08,5.48,5.48,0,0,1-1.16.51,6.36,6.36,0,0,1-1.77.18,3.79,3.79,0,0,1-2.5-1h-.09a1.52,1.52,0,0,0-.51-.09.54.54,0,0,1-.43-.17c.05.12-.41-.06-1.38-.52a13.28,13.28,0,0,1-3.45-2.67l-.26-.26c-.29-.28-.56-.57-.82-.86a7.8,7.8,0,0,1-.81-1.12l-1.21-1.63c-.46-1-.93-2-1.42-3a22.08,22.08,0,0,1-1.25-3.14l-.17-1.21a10.66,10.66,0,0,0-.09-1.38,10,10,0,0,1-.09-1.29v-.9a4.46,4.46,0,0,1,.09-.91l.34-1.64a6.69,6.69,0,0,1,.22-.68q.14-.35.3-.69l1.55-4c.4-.75.79-1.45,1.17-2.11s.7-1.31,1-1.94l.94-1.55a1,1,0,0,1,.35-.44l1-1.29c.18-.23.43-.59.78-1.07a16.74,16.74,0,0,1,1.12-1.43l1-1.2a12.61,12.61,0,0,1,2.16-2.16l1.46-1c0-.11.1-.26.3-.43a4,4,0,0,1,.69-.47l.69-.39c.2-.12.27-.17.22-.17a.38.38,0,0,1,.17,0,.35.35,0,0,0,.17,0c.06,0,.14-.08.26-.26l.26-.26.95-.43c.05,0,.08,0,.08,0s0,0,.09,0,.08,0,.08.17,0,.17.09.17.11,0,.17-.13.12-.13.18-.13h.17a.25.25,0,0,1,.17-.08.46.46,0,0,1,.34.17l.18-.09c0-.05,0-.08-.09-.08v-.35a1.38,1.38,0,0,1,.52-.17.2.2,0,0,1,.21.17c0,.12.07.18.13.18a.14.14,0,0,0,.13-.09.14.14,0,0,1,.13-.09l.09.09a.24.24,0,0,1-.09.17.08.08,0,0,0,.09.09h.08a.39.39,0,0,0,.18-.39c0-.2.08-.3.25-.3a.38.38,0,0,1,.26.08.36.36,0,0,0,.26.09.28.28,0,0,0,.26-.13.28.28,0,0,1,.26-.13,6.22,6.22,0,0,1,1.29.26c.63.17,1,.26,1,.26a1.61,1.61,0,0,1,.95.39,6,6,0,0,1,.95.86l.78.86c.22.26.37.39.43.39s.18-.19.38-.56.42-.81.65-1.3a9.72,9.72,0,0,1,.73-1.29c.26-.37.48-.56.65-.56.46.12.69.33.69.65s.05.47.17.47h.09a.29.29,0,0,0,.17-.08.24.24,0,0,0,.17-.09,2.7,2.7,0,0,0,.3.26.28.28,0,0,1,.13.26v.08c0,.06,0,.09,0,.09s.05,0,.05.09l.43.6a1,1,0,0,1-.13.56.85.85,0,0,0-.13.47c0,.12.13.19.39.22a.52.52,0,0,1,.47.47l.35,1.29a1.39,1.39,0,0,0,0,.35,1.37,1.37,0,0,1,0,.34.56.56,0,0,1,0,.26.62.62,0,0,0,0,.26v.26a.59.59,0,0,0,0,.26.59.59,0,0,1,0,.26,3.64,3.64,0,0,1-.08.77q-.09.35-.18.78v.17a14.19,14.19,0,0,0-.81,1.51,4.82,4.82,0,0,1-.82,1.25l-.26.43a2.34,2.34,0,0,1-.91,1.42c-.49.37-.73.65-.73.82v.17a2.23,2.23,0,0,1-.39.78c-.25.4-.56.86-.9,1.37l-1,1.47a3.58,3.58,0,0,1-.73.86,3.61,3.61,0,0,0-1.6,1.51,21.37,21.37,0,0,1-1.68,2.37l-2.84,2.84c-.29.17-.56.35-.82.52a4.92,4.92,0,0,1-.82.43l-.34.26-.95.51-1.08.31a4.32,4.32,0,0,1-1.08.13l-1.29-.18a2.53,2.53,0,0,1-1.16-.39,5.11,5.11,0,0,1-.91-.73l-.6-.43c-.17,0-.34-.13-.52-.39l-.43-.64c-.17-.29-.4-.73-.69-1.34s-.51-.9-.68-.9l-.26.43c-.18.4-.35.77-.52,1.12a6.2,6.2,0,0,0-.43,1.12l-.6,1.46a8.1,8.1,0,0,0-.31.91,6.33,6.33,0,0,1-.3.9v.17a2.93,2.93,0,0,0-.3,1c0,.34-.07.69-.13,1v1.38c.06.29.12.55.17.78a2,2,0,0,0,.35.69l.26.51a2.48,2.48,0,0,0,1.07,1.08l1.43.73h.08a5,5,0,0,0,1.73.17h.9a3.81,3.81,0,0,0,1.08-.17l.26-.08a.52.52,0,0,0,.25,0,.62.62,0,0,1,.26,0l1.81-.78a14.47,14.47,0,0,1,2.11-1.2,17.41,17.41,0,0,0,4-3.28l.26-.25a4.38,4.38,0,0,0,.73-.56,8.47,8.47,0,0,1,.73-.65l1-1,1-.69q.47-.35,1-.78l.26-.34a3.66,3.66,0,0,1,1-1.17c.57-.48,1.09-1,1.55-1.42l.26-.26a9.49,9.49,0,0,0,.82-.73,9.49,9.49,0,0,1,.82-.73l.51-.52a14.65,14.65,0,0,0,3.23-2.84,47,47,0,0,1,3.58-3.62l1.47-1.38.43.52a1.41,1.41,0,0,0,0-.35,1.32,1.32,0,0,1,0-.34l.52-.6.51.43v-.87l.18-.34a.48.48,0,0,1,.34.09v.43a.6.6,0,0,0,.43.6v-.17a.85.85,0,0,0-.13-.52,2.29,2.29,0,0,0-.3-.34v-.35l.35-.17.34-.6c.29-.23.63-.53,1-.91a4.78,4.78,0,0,0,.87-1l2.24-2.15h.43a.94.94,0,0,0,.08.43c-.06,0-.08,0-.08.08l.34-.34.69.6-.26,1a.86.86,0,0,0,.39-.26c.09-.12.19-.23.3-.35a3.91,3.91,0,0,0,.6,1.12,1.24,1.24,0,0,1-.17.65,1.49,1.49,0,0,0-.17.73Zm-42,7.75c.12-.17.23-.33.35-.47a1.87,1.87,0,0,0,.26-.48l-.09-.08-.52.94Zm0,5.51.09-.08v-.09l-.09.09Zm2.07-8.87.17.09,1.9-2.42.77-1c-.11.12-.2.17-.25.17l-.44.52a4.49,4.49,0,0,1-.43.39,2.38,2.38,0,0,0-.43.47l-1.12,1.47Zm.78-5.08c-.18,0-.26.08-.26.25C321.18,878.59,321.27,878.51,321.27,878.34Zm.77-1a.08.08,0,0,0,.09-.09Zm3.1,6.55-.64.64c-.2.21-.42.45-.65.74l-.77.94a1.45,1.45,0,0,0-.48.61,6.86,6.86,0,0,1-.3.69v.17l.34-.17v.25l-.51,1.56a.15.15,0,0,1-.05.12.47.47,0,0,0,0,.22c0,.12.12.21.35.3a1.67,1.67,0,0,0,.6.13l.17-.09,1.12-.25a2.08,2.08,0,0,0,1-.56,2.83,2.83,0,0,1,.86-.65l.52-.6a10.07,10.07,0,0,1,1.33-1.43,2.42,2.42,0,0,0,.91-1.33h.08c.12-.06.18-.11.18-.17s.05-.15.17-.26l.26-.35.51-.69,1.73-2.15c.17-.17.36-.34.56-.52a1.66,1.66,0,0,0,.47-.69l.6-.69a3.32,3.32,0,0,1,.44-.64c.17-.2.34-.42.51-.65v-.17l-1.38.34-1.29.31a3.1,3.1,0,0,0-1.2.56l-.61.34a.7.7,0,0,1-.43.26c-.11,0-.23.09-.34.26l-.52.6-1.9,1.47c-.28.28-.57.59-.86.9A4.16,4.16,0,0,1,325.14,883.94Zm-1.72.08a9.65,9.65,0,0,0-.86,1l-.26.43.09.17.08-.09c.17,0,.45-.28.82-.86s.65-1,.82-1.2Zm-.86-7.15-.09.09Zm2.15,5.86a.36.36,0,0,0-.17.35A.52.52,0,0,0,324.71,882.73Zm.43-.43c-.05,0-.08,0-.08.09Zm.09-.09c.06,0,.09,0,.09-.08s.05-.09.17-.09V882l-.17.17Zm5.69,3.11.51-.78-.08.09L331,885l-.34.35-1.12,1.29c-.17.23-.36.46-.56.69s-.42.46-.65.69l-.77,1-.09.09h.17c.23-.23.45-.46.65-.69s.39-.46.56-.69Zm-2.33-6-.09.09h.18Zm5.77,5.69a2.16,2.16,0,0,0-.6.86L332.64,887l-.35.34-.34.35-.34.43a7.18,7.18,0,0,0-.48.69,2.12,2.12,0,0,1-.56.6l-.26.43h.09c.11,0,.17,0,.17-.08s.06-.12.17-.18l.26-.25c.23-.23.45-.44.65-.61a2.67,2.67,0,0,0,.56-.69l1.55-2v-.17a10.38,10.38,0,0,0,1.64-1.68c.46-.6.91-1.22,1.37-1.85l1.81-2.5a.58.58,0,0,0,.18-.43l-.43.43c-.23.29-.45.57-.65.86s-.39.57-.56.86Zm5.26-2.33a1.5,1.5,0,0,0-.3.43,1.81,1.81,0,0,1-.3.43l-.95,1.38a1.85,1.85,0,0,0-.3.39,2.31,2.31,0,0,1-.31.39c-.63.63-1.2,1.23-1.72,1.81a10,10,0,0,0-1.16,1.37,2.28,2.28,0,0,0-.48,1l-.34.26L331,893.07l-.6.78s0,.08.09.08l.25-.26,1.3-1.12,2.06-2.5v-.17a.73.73,0,0,0,.43-.51l2.5-2.76.65-.82a3.22,3.22,0,0,0,.47-.82l.35-.43,1.64-2.24v-.09h-.09A2.32,2.32,0,0,0,339.62,882.73Zm-7.84,1.38q.51-.35.51-.6A1,1,0,0,0,331.78,884.11Zm.43,24.3c.11-.12.17-.2.17-.26l-.09-.09-.17.26Zm2.5-.61c.17,0,.31-.14.43-.43a1.58,1.58,0,0,0-.35.26c-.11.12-.37.35-.77.69l-.52.69a.8.8,0,0,1-.21.26.37.37,0,0,0-.13.34v.09l1.55-1.72Zm.51-.51a2.28,2.28,0,0,0,.82-.61,2.69,2.69,0,0,0,.56-.86,2.39,2.39,0,0,0-.69.6,3.74,3.74,0,0,1-.69.69Zm1.81-1.9a.34.34,0,0,0,.18-.34A.48.48,0,0,0,337,905.39Zm1.64-2.07a1.24,1.24,0,0,0,.6-.69h-.08l-.86.87a3,3,0,0,0-.87,1.37,2.4,2.4,0,0,0,.78-.77A2,2,0,0,0,338.67,903.32Zm.69-.77a.52.52,0,0,0,.17-.35A.52.52,0,0,0,339.36,902.55Zm.86-1a.45.45,0,0,0,.17-.34,3.36,3.36,0,0,0-.25.34l-.09.09a.56.56,0,0,0-.35.43v.09a.54.54,0,0,0,.26-.35C340,901.6,340.11,901.51,340.22,901.51Zm.17-19.64a.08.08,0,0,1,.09-.09v-.08c-.06,0-.09,0-.09.08Zm.43,18.87a.07.07,0,0,0-.08.08Zm.69-.61.26-.25a.36.36,0,0,0,.09-.26A.86.86,0,0,0,341.51,900.13Zm2.16-2.49a2.31,2.31,0,0,0,.69-1c-.46.52-.84.92-1.12,1.21a8.1,8.1,0,0,0-.78.9,1.56,1.56,0,0,0-.34.65l.51-.52A3.37,3.37,0,0,0,343.67,897.64Zm-1-25.16a.07.07,0,0,0-.08.08c0,.12.05.18.17.18l.09-.18A.24.24,0,0,1,342.63,872.48Zm2,23.95a.35.35,0,0,0,.17-.34A.46.46,0,0,0,344.62,896.43Zm.6-.86a.34.34,0,0,0,.26-.35,1.05,1.05,0,0,0-.35.35.85.85,0,0,0-.17.43A.73.73,0,0,0,345.22,895.57Z"/><path class="cls-4" d="M404.32,879.54a.36.36,0,0,1,.09.26c0,.29-.37.81-1.12,1.55l-2.15,2.16c.17-.35-.19,0-1.08,1.16a61.19,61.19,0,0,1-4.35,4.7l-.17.25q-.53.52-1,1.08c-.32.38-.62.76-.91,1.16l-.17.18a5.24,5.24,0,0,0-.69.81,9.39,9.39,0,0,1-.6.82,1,1,0,0,0-.69.39c-.23.26-.48.56-.74.91s-.5.69-.73,1a6.37,6.37,0,0,1-.6.78l-.52.68a2.88,2.88,0,0,1-.17.31,2.7,2.7,0,0,1-.26.3l-1.12,1.55q-.51.51-1,1.08a14.38,14.38,0,0,0-.9,1.16l-2,2.58a.32.32,0,0,1-.25.09h-.31c-.08,0-.13-.09-.13-.26a.35.35,0,0,1,.13-.21,1.07,1.07,0,0,0,.22-.48v-.08l-.35.17-1.12,1.46-.08.09a.38.38,0,0,0,.43.43l.09-.09s0-.08-.05-.08,0,0,0-.09v-.09a.26.26,0,0,1,.09-.17,1.3,1.3,0,0,0,.17-.26c.05,0,.14.06.26.18s.17.2.17.25a5.17,5.17,0,0,0-.52.91,17.08,17.08,0,0,1-.86,1.51q-.26.42-.3.39s-.09,0-.17.08-.28.3-.56.65-.78,1-1.47,2l-.26.43a1,1,0,0,1-.34.56c-.17.14-.46.34-.86.6s-.92.63-1.55,1.12a24.86,24.86,0,0,0-2.33,2.11l-.39.39a7.48,7.48,0,0,1-.82.69,8.12,8.12,0,0,1-1.07.69,2.48,2.48,0,0,1-1.17.3h-.43a1.35,1.35,0,0,1-.77.17h-.78a1.27,1.27,0,0,1-.52.18.82.82,0,0,1-.38-.13.77.77,0,0,0-.3-.13c-.06,0-.11,0-.13,0a.18.18,0,0,1-.13,0c-.23,0-.38-.08-.43-.25l-1.38-.52a2.45,2.45,0,0,1-1.38-1l-.35-.44a.5.5,0,0,0-.34-.34,1.33,1.33,0,0,0-.35-.09.41.41,0,0,0-.17,0,.53.53,0,0,1-.17,0V915a1.61,1.61,0,0,0-.17-.43q-.35.17-.39.39c0,.14-.1.21-.22.21s-.17-.08-.34-.25l-1-1a.5.5,0,0,1-.18-.34v-.87l-.25.26q-.09.18-.18.18c.18,0,.19,0,.05-.13a4.11,4.11,0,0,1-.52-.39,3.34,3.34,0,0,1-.6-.73,2.25,2.25,0,0,1-.31-1.25v-.18a.23.23,0,0,0-.08-.21.14.14,0,0,1-.09-.13l.09-.09v-.17h-.09c-.06,0-.14-.19-.26-.56a3.36,3.36,0,0,1-.17-.9,6.47,6.47,0,0,1,.09-1.17c.05-.31.13-.63.21-.94a6.18,6.18,0,0,1,.43-1.08c.2-.4.45-.92.74-1.55l.86-1.81a2.06,2.06,0,0,1,.6-.86l.78-1.81.6-1.12a9.81,9.81,0,0,0,1.51-2.24c.54-1,1.1-2,1.68-2.93l.69-.86c0-.18.14-.26.26-.26h.17c.05,0,.17-.23.34-.69a2.81,2.81,0,0,1,.43-.86l.35-.35a.22.22,0,0,0,.17.09v-.09l.43-1.12a.62.62,0,0,0,.39-.43,1.5,1.5,0,0,1,.21-.52l.69-.86a.86.86,0,0,0,.3-.51,1.24,1.24,0,0,1,.22-.52l.78-1.21a.79.79,0,0,0,.21-.34.76.76,0,0,1,.22-.35l.77-1.38a5.64,5.64,0,0,1,.56-.77c.2-.23.42-.49.65-.78a4.09,4.09,0,0,0,.69-1.55,5.16,5.16,0,0,1,1.46-2.24l.43-.86-.17-.09a8.79,8.79,0,0,1-.86.91c-.35.32-.66.62-.95.9l-.43.35a4.44,4.44,0,0,0-.56.65,1.52,1.52,0,0,1-.56.47l-.26.34a5,5,0,0,1-.69.86,9.58,9.58,0,0,1-.73.69,3.33,3.33,0,0,1-.73.52l-.52.69a5.44,5.44,0,0,0-.73.69c-.2.23-.42.49-.65.78l-1.2,1.29a5.68,5.68,0,0,0-1.51,1.55,12,12,0,0,1-1.51,1.81,11.07,11.07,0,0,0-1,1.33A6.79,6.79,0,0,1,360,892c-.23.4-.44.74-.64,1a5.13,5.13,0,0,1-.74.82,1.77,1.77,0,0,1-.77.47.81.81,0,0,0-.52.48c-.06.2-.14.3-.26.3h-.08c-.06,0-.09,0-.09.08l-.17.52-.95,1-.34.34-.35.34-1,1.3-.52.69a5.32,5.32,0,0,1-.6.68v.09a1.37,1.37,0,0,0-.65.48l-.47.64-.35.35a1.87,1.87,0,0,0-.34.51L349.35,904a1.72,1.72,0,0,1-.51.61,2.3,2.3,0,0,0-.52.51l-.6.69a17.64,17.64,0,0,0-1.21,1.34,17.36,17.36,0,0,1-1.2,1.33l-.78.78-1.38.69a1.34,1.34,0,0,1-.52.08,1,1,0,0,1-.43-.13,1,1,0,0,0-.43-.12,2.23,2.23,0,0,1-1.63-1.08c-.47-.66-.72-1-.78-1.08l-.26-.26a16.94,16.94,0,0,1-1.08-1.94,5.8,5.8,0,0,1-.56-2.54,4.21,4.21,0,0,1,1-2.76,15.25,15.25,0,0,0,1.76-2.75l.69-.78a1.88,1.88,0,0,1,.35-.9c.22-.37.5-.78.81-1.21l.95-1.25a9,9,0,0,0,.73-1l.95-1.64a13.27,13.27,0,0,1,1.38-2,9.46,9.46,0,0,0,1.38-2.24,11.25,11.25,0,0,1,1.12-1.77l1-1.29a13.15,13.15,0,0,0,1.12-1.68,23,23,0,0,0,1.38-3,3,3,0,0,1,.52-.94,8.16,8.16,0,0,0,.69-1.21l.26-.34c.23-.64.46-1.24.69-1.81s.48-1.18.77-1.81l.69-1.38a8.16,8.16,0,0,1,.39-1.12,3,3,0,0,0,.21-1.12,2.45,2.45,0,0,0,0-.43,2.53,2.53,0,0,1,0-.43c0-.17,0-.58.08-1.21s.23-.95.52-.95a.52.52,0,0,1,.35.18.48.48,0,0,0,.34.17.36.36,0,0,0,.26-.09l.26.39c.05.09.2.13.43.13h.26l.77,1a2.47,2.47,0,0,1,.3.69c.09.29.19.43.3.43a1.41,1.41,0,0,1,.56.91c.15.49.29,1,.44,1.59s.25,1.09.34,1.55.19.72.3.78v.69a7.16,7.16,0,0,1-.13,1.38,5.39,5.39,0,0,1-.3,1.12l-1,2.32a2.83,2.83,0,0,0-.18.69l-.51,1.38a.22.22,0,0,1-.09.17v.17h.17l.78-.77a4.53,4.53,0,0,0,.34-.39c.12-.14.23-.27.35-.39l.95-.86c.11-.11.17-.2.17-.26l.43-.34a5.08,5.08,0,0,0,.77-.56,1.88,1.88,0,0,0,.52-.73l.17-.18a2.67,2.67,0,0,0,.74-.64,1.66,1.66,0,0,1,.73-.56c.46-.4.92-.78,1.38-1.12s.7-.62,1.07-1a7,7,0,0,0,.91-1.08l.69-.52,1.46-1.2a10.14,10.14,0,0,1,2.5-2.07l1.12-.78a1.08,1.08,0,0,0,1-.38,3.12,3.12,0,0,0,.39-.87c.08-.31.17-.6.26-.86a.59.59,0,0,1,.64-.39,2.08,2.08,0,0,1,1.12.39,5.77,5.77,0,0,0,1,.56h.08a6.82,6.82,0,0,0,.86.73,2.21,2.21,0,0,1,.69.82l.43.78a4.46,4.46,0,0,0,.87,1.46,2.92,2.92,0,0,1,.68,1.81l.26,1.64a2.14,2.14,0,0,1,.09.69v1.21a10.3,10.3,0,0,1-.56,2.75,23.06,23.06,0,0,0-.82,3.54l-.26.68a9.8,9.8,0,0,1-.64,1.94c-.26.55-.59,1.28-1,2.2l-.61,1.47a.5.5,0,0,1-.17.34l-.26.52-.69,1.29a12.06,12.06,0,0,1-1.16,2.07,25.49,25.49,0,0,0-1.94,3.79l-.69,1.12-.95,1.38a8.83,8.83,0,0,1-.82,1.33,15.78,15.78,0,0,0-.9,1.42l-.43.61a3,3,0,0,1-.78,1.12c.06-.06.06,0,0,.17a3.53,3.53,0,0,1-.34.69c-.17.29-.36.59-.56.9a4.66,4.66,0,0,1-.47.65l-.26.34a5.55,5.55,0,0,0-.56,1.08,4,4,0,0,1-.56,1c0,.17,0,.26.08.26h.26l1-1a2.35,2.35,0,0,0,.6-.43l.52-.52.08-.08a3,3,0,0,0,1.21-.78l2.15-2.15.52-.35c0,.06,0,0,.13-.12a4.57,4.57,0,0,1,.3-.48A2.11,2.11,0,0,1,375,902a.73.73,0,0,1,.43-.22.21.21,0,0,1,.22.13c0,.09.07.13.13.13a1.81,1.81,0,0,1,.25-.65,10,10,0,0,1,1-1.37c.52-.61,1.32-1.45,2.41-2.55L380,897a5.47,5.47,0,0,0,.6-.77l1.64-1.47,1.38-1.55a7.78,7.78,0,0,0,1.37-1.38l1.56-1.72.51-.34.78-.95a6.06,6.06,0,0,1,.73-.78c.26-.23.53-.49.82-.77l2-1.81a5.44,5.44,0,0,1,.69-.73c.23-.21.46-.42.69-.65l1.12-1,2.5-2.42c.28-.28.59-.56.9-.82l.91-.73,2.5-2.32c.17-.18.33-.35.47-.52a.62.62,0,0,1,.47-.26,2.09,2.09,0,0,1,.35,0,.21.21,0,0,1,.17.22v.26l.09-.09c.05,0,.08,0,.08,0s0,0,.09,0a.86.86,0,0,1,.56.31.82.82,0,0,1,.3.56l-.26.69.17-.18c.18-.17.29-.26.35-.26a2.8,2.8,0,0,1,.34.44,1.74,1.74,0,0,1,.35.94.77.77,0,0,1-.22.52.76.76,0,0,0-.21.43l.17.09a.46.46,0,0,1,.17-.22A.52.52,0,0,0,404.32,879.54Zm-64.18,21h-.09a.08.08,0,0,0,.09-.09Zm3.7-5.26-.09.09Zm.52-.95a.07.07,0,0,0,.08-.08Zm1.46-2.41-.08.09h.08Zm.17-.26-.08.09Zm.43-.77c-.11,0-.14,0-.08,0s0,.1-.09.21l.17-.17Zm2.5-3.88a4.3,4.3,0,0,0-.77,1,5.48,5.48,0,0,1-.61.9l-.43.87a.52.52,0,0,0-.08.34h-.09a.1.1,0,1,0,.09.09v-.09a5.93,5.93,0,0,0,.77-1l.61-1Zm.18-.26-.09.09h.09Zm.43,4.22a.26.26,0,0,1-.18.09v.08c.12,0,.18,0,.18-.08Zm7-11.8a.56.56,0,0,0,.08-.35l-.51.86a5.92,5.92,0,0,0-.44.87l-2.41,4.22c-.57,1-1.16,2-1.76,3.1a17.85,17.85,0,0,1-1.86,2.76l.09.08a8.65,8.65,0,0,0,.77-.86,7.66,7.66,0,0,0,.69-1l2.67-4.48a13.45,13.45,0,0,0,1.43-2.41C355.69,881,356.1,880.12,356.51,879.2Zm-5.69,4.74c-.12,0-.17.08-.17.26.11,0,.28-.19.51-.56a7.51,7.51,0,0,0,.52-1,2,2,0,0,0-.52.57A5.66,5.66,0,0,0,350.82,883.94Zm.52,16.37h-.09c0,.06,0,.08.09.08Zm.77-18.44a.68.68,0,0,0-.34.52,1.19,1.19,0,0,0,.38-.43,1.17,1.17,0,0,0,.22-.61A.6.6,0,0,0,352.11,881.87Zm1,16.46H353a1,1,0,0,1-.43.47.42.42,0,0,0-.26.39c0,.06,0,.08.05.08s0,0,0,.09.17,0,.17-.09l.61-.77Zm.94-1.12A.29.29,0,0,1,354,897a.49.49,0,0,0-.48.39,2.45,2.45,0,0,1-.3.65l.09.08.51-.43Zm2.5-2.93-.26.26.09.08.17-.26Zm.26-10.08.17-.09c0-.06,0-.09,0-.09s0,0,0-.08l-.09.08-.09.26Zm.09,9.82c0-.06,0-.09.08-.09l-.08-.08-.09.08Zm1.29-12.32-1.12,2a5,5,0,0,0,1.12-1.9Zm-.69,11.89-.09-.09c0,.06,0,.09-.08.09l.08.08Zm3.79-3.79a.26.26,0,0,1,.09-.18s0-.08-.09-.08l-.17.17s.08,0,.08,0S361.27,889.8,361.33,889.8Zm6.38,16.88,1-1.81a4.47,4.47,0,0,1,.47-1,4.12,4.12,0,0,0,.48-1l.52-.6a4.48,4.48,0,0,0,.56-.95,4,4,0,0,1,.56-1l1.89-2.93,3-5.25c.28-.4.58-.88.9-1.42a2.86,2.86,0,0,0,.48-1.34v-.17a1.33,1.33,0,0,0-.44.77l-.6,1.12L375,893.93a2.71,2.71,0,0,1-.43.73,3.33,3.33,0,0,0-.43.65l-1.12,2-1.21,1.9a20.29,20.29,0,0,1-1.25,1.76,10.67,10.67,0,0,0-1.16,1.86l-1.12,2c-.46.8-.85,1.55-1.16,2.24s-.65,1.35-1,2v.26c.11,0,.24-.16.38-.48a2.59,2.59,0,0,1,.39-.64Zm-.61-14.56a1.52,1.52,0,0,0-.43.78c0,.11.2-.13.61-.73a16.3,16.3,0,0,1,1-1.43v-.17c-.12,0-.17,0-.17,0s-.06.11-.17.22Zm1.38-1.81a.41.41,0,0,0,.35-.43v-.08a1.27,1.27,0,0,0,.38-.39,2.31,2.31,0,0,1,.31-.39l.6-1.21a5,5,0,0,0-.78,1c-.23.4-.43.75-.6,1l-.26.35Zm2.07-3.19a.85.85,0,0,0-.22.31l-.12.3a4.31,4.31,0,0,0,.34-.43.92.92,0,0,0,.17-.43C370.61,886.87,370.55,887,370.55,887.12Zm.6-.86s0-.08.09-.08V886l-.09.09Zm7.41.69c0,.06,0,.09.05.09s0,0,0,.08.17,0,.17-.08l.17-.35a6.69,6.69,0,0,1,.48-.9,4.47,4.47,0,0,0,.47-1l-.08-.09a1.47,1.47,0,0,0-.44.61c-.17.34-.31.66-.43.94l-.34.69Zm5.26,15.77a2.93,2.93,0,0,0-.3.34c-.09.12-.19.23-.3.35.4,0,.6-.17.6-.52Zm3.62-4.57-.09.18.09-.09Zm10.34-12.23h-.09a.74.74,0,0,0-.26.52h.09c.17,0,.26-.15.26-.44Zm2.06-2a.08.08,0,0,0,.09-.09.22.22,0,0,0-.17.09V884Z"/><path class="cls-4" d="M483.94,849.39a3.28,3.28,0,0,1-.86,1.2l.25.69q-.34.6-.6,1.08a5.58,5.58,0,0,1-.69,1,1.46,1.46,0,0,1-.43.13.62.62,0,0,0-.43.39.15.15,0,0,0,.09.13.14.14,0,0,1,.08.13,1.87,1.87,0,0,1-.86.6,3.13,3.13,0,0,1-.95.17l-2.75.69a3.18,3.18,0,0,1-1.38.17h-2.5a8,8,0,0,1-.86.3,2.64,2.64,0,0,1-.78.13c-.06,0-.08,0-.08,0s0,0-.09,0l-2.24.17a2.73,2.73,0,0,1-1.21.26.83.83,0,0,1-.26,0,.34.34,0,0,0-.17,0h-.6a.57.57,0,0,0-.26,0,.78.78,0,0,1-.26,0h-1.2a6.91,6.91,0,0,1-1.3-.09,3.35,3.35,0,0,0-.9.09,2.63,2.63,0,0,1-.73.08l-2.5-.43a2.88,2.88,0,0,0-.48-.26.79.79,0,0,1-.38-.43l.34-.25a.63.63,0,0,1-.21,0,1,1,0,0,0-.31,0,1.59,1.59,0,0,0-.69.17,1.62,1.62,0,0,1-.77.17.17.17,0,0,1-.13,0,.17.17,0,0,0-.13,0,2.75,2.75,0,0,0-.65.08,1.92,1.92,0,0,1-.56.09h-.43l-2.06.34h-.35a2.69,2.69,0,0,0-.86.18h-.09a.61.61,0,0,0-.3.08.51.51,0,0,1-.3.09,2.51,2.51,0,0,0-.78-.09h-.6l-2.24.35a1,1,0,0,1-.6.13,1,1,0,0,0-.52,0H446a2.51,2.51,0,0,0-.78.09l-2.15.17-1.81.34-3,.43-3.7.61-4.48.86a6.64,6.64,0,0,0-.95.08,5.61,5.61,0,0,1-.95.09l-1.46.35a1.45,1.45,0,0,1-.61.17.94.94,0,0,1-.43-.09,1.47,1.47,0,0,0-.82.82.75.75,0,0,1-.73.56l-.86,1.29a5,5,0,0,0-1.51,1.25,12.71,12.71,0,0,1-1.25,1.42l-.51.52a1,1,0,0,1-.43.35,37.21,37.21,0,0,0-3.06,3.61q-1.86,2.42-3.67,4.83l-3.18,4.26a10.26,10.26,0,0,1-1.73,2l-.43.6a4,4,0,0,0-1,1c-.31.46-.67,1-1.07,1.63l-2.16,2.67V887a1.61,1.61,0,0,0-.43.17l.17.26a.6.6,0,0,0-.26.3.51.51,0,0,1-.34.31l-.43-.43v-.09a1.19,1.19,0,0,1,.47-.78,5,5,0,0,0,1-1.37l.52-1a.8.8,0,0,0,.43-.56.77.77,0,0,1,.52-.56l.43-.43.86-1.38a2.1,2.1,0,0,0,.26-.52,9.75,9.75,0,0,0-1.59,1.47,12.51,12.51,0,0,0-2.2,3.18l-.86,1.38-.18.17h-.08l-1,1.21a.89.89,0,0,1-.08.35,2,2,0,0,0-.17.43c.17,0,.25,0,.25-.09a4,4,0,0,0,1.21-1.21l.34.18-.12.26a.52.52,0,0,0,0,.25l-.26.69a3,3,0,0,1-.77.95,2,2,0,0,0-.69,1.12v.09l-1.55,2a12,12,0,0,0-1.08,1.68,9,9,0,0,1-1.33,1.85l-1.55,2.41a1.15,1.15,0,0,0-.44,1l-.77.78a2.05,2.05,0,0,0-.26.51,1,1,0,0,1-.26.43l-1.2,2a5.65,5.65,0,0,1-.35.82,2.35,2.35,0,0,1-.77,1l-.26.43-2.5,4.74a1.51,1.51,0,0,1-.17.73c-.12.2-.23.41-.35.64h.6a.26.26,0,0,1,.18.09c0-.29.27-.6.82-1l1.59-1a3.87,3.87,0,0,0,1.16-1.12,2.4,2.4,0,0,1,1.34-.95l1-.69a2.54,2.54,0,0,1,.52-.52,4.73,4.73,0,0,0,.52-.43l1.46-1.2,4.05-3.28,3-2.67,2.41-2.24.86-.86.6-.43c0-.06.06-.14.18-.26a1.36,1.36,0,0,1,.3,0,.85.85,0,0,0,.3.05.24.24,0,0,0,.08-.17.33.33,0,0,0-.08-.26l.52-.69a1.19,1.19,0,0,1,.47-.52c.2-.11.42-.23.65-.34l1.12-1.21a16.69,16.69,0,0,1,2.41-2.59c.92-.8,1.78-1.52,2.58-2.15l3.36-3.79a2.12,2.12,0,0,0,.56-.6,4.24,4.24,0,0,1,.56-.69l.35-.52.77.26a1.65,1.65,0,0,0-.08.43l.34-.09.43,1-.69,1.12a2.53,2.53,0,0,1,.86-.69,1.4,1.4,0,0,1,.13.73,1.12,1.12,0,0,0,.13.65,1.28,1.28,0,0,1-.26.47c-.11.15-.23.31-.34.48l.52-.26v.17a5.13,5.13,0,0,1-.69,1.25,20.58,20.58,0,0,0-1.12,1.94L416,896.43,414,899.36a9,9,0,0,0-1.08,1.25c-.26.37-.53.79-.82,1.25l-.6.77a4.38,4.38,0,0,0-.69.87,1.52,1.52,0,0,1-1,.6l.09.26-1.3,1.72c0,.34-.43.85-1.29,1.51a8.84,8.84,0,0,0-2.15,2.37l-1,1.38a2,2,0,0,1-1.29.69h-.17a.34.34,0,0,0,.17.34l-.17.34-.26-.25a.69.69,0,0,0-.22.34c0,.12-.13.17-.3.17h-.17v-.17a2,2,0,0,1,.78-1.25l1.2-1.16.35-.52a.8.8,0,0,0,.26-.21,1.88,1.88,0,0,1,.25-.31l1.47-1.63a6.44,6.44,0,0,1,1.2-1l.18-.26a1.67,1.67,0,0,1,.82-1.08,2.86,2.86,0,0,0,1.07-1.25l1.29-1.72.87-.9a10.14,10.14,0,0,0,.77-1l1.12-1.47a.17.17,0,0,1,.05-.13.22.22,0,0,0,0-.13c-.12,0-.17,0-.17.09l-1,1.12a19.6,19.6,0,0,1-2.29,3.06c-.94,1.06-1.79,2-2.54,2.71a3.71,3.71,0,0,1-1.55,1.64,5.7,5.7,0,0,0-2,2.41L401.57,912a4,4,0,0,0-.78.94,2.87,2.87,0,0,1-1.38,1.12l-.17.35-2,2a12.7,12.7,0,0,1-1.59,1.33,4.23,4.23,0,0,0-1.34,1.51l.43-.26a21.61,21.61,0,0,0,2.24-2,19.65,19.65,0,0,1,2.41-2.11l.78-.78,1.38-1.12a.52.52,0,0,1,.17.35,4.86,4.86,0,0,1-.95,1.2c-.63.69-1.35,1.44-2.15,2.24l-1,.78-.51.6a1.47,1.47,0,0,1-.43.43l-1.21,1a4.49,4.49,0,0,1-.69.69,2,2,0,0,1-.86.34l-1.29,1.21a1.76,1.76,0,0,1-.43.17.26.26,0,0,1-.18-.09,2.76,2.76,0,0,1-1.5,1c-.55.12-1.14.23-1.77.35l-.43-.44-.6-.08c-.29-.29-.56-.58-.82-.86a5.62,5.62,0,0,1-.73-1,.38.38,0,0,1,0-.17.59.59,0,0,0,0-.26,4.45,4.45,0,0,1-.9-1.85A7.38,7.38,0,0,1,385,917l-1.3-1.12a5,5,0,0,1-.17-1l-.69-.09a1.83,1.83,0,0,1-.34-.82,2.27,2.27,0,0,0-.52-1l-.17-1-.26-.17-.26-2v-.26a4.66,4.66,0,0,1,0-.61,5.34,5.34,0,0,0,.05-.69v-.08a4.5,4.5,0,0,1,.3-1.64c.2-.52.39-1,.56-1.46l.34-.87a11.43,11.43,0,0,0,.91-2.06,11.61,11.61,0,0,1,1-2.16l.34-.51a3.56,3.56,0,0,1,.39-.61,1.57,1.57,0,0,0,.3-.69c0,.18.1.05.3-.38s.48-1,.82-1.6.72-1.25,1.12-1.85a3.92,3.92,0,0,1,1.21-1.25l.34-1.55.35-.35a2.3,2.3,0,0,0,.34-.43c-.06.18,0,.15.05-.08a4.54,4.54,0,0,1,.43-.86q.3-.52.69-1.08a1.41,1.41,0,0,1,.81-.65v-.26l.26-.34c0-.35.2-.52.61-.52l.77-1.81c.12,0,.32-.21.6-.64s.58-.85.87-1.25a1.08,1.08,0,0,1,.25-.73c.18-.21.42-.46.74-.78s.69-.75,1.12-1.29a13.2,13.2,0,0,0,1.33-2.2c0-.06,0-.09,0-.09s0,0,0-.08.14-.32.43-.61l.6-.6q1.47-2.32,2.8-4.09c.89-1.18,1.75-2.3,2.59-3.36s1.66-2.1,2.49-3.1,1.68-2.11,2.55-3.32c.11,0,.17-.09.17-.26a1.74,1.74,0,0,1-.86.13,1.35,1.35,0,0,0-.87.22l-.43.08c-.05,0-.08,0-.08.05s0,0-.09,0a.35.35,0,0,1-.17,0,.41.41,0,0,0-.17-.05,4.94,4.94,0,0,1-.86.26l-.87.17a.38.38,0,0,1-.17,0,.35.35,0,0,0-.17,0,.52.52,0,0,0-.35.17l-.6.26a4.48,4.48,0,0,1-1,.08l-1.12.35-1.55.26a6.25,6.25,0,0,0-2.72.43,12.25,12.25,0,0,1-2.54.69l-1.21.17a7.34,7.34,0,0,1-.81.21,4.34,4.34,0,0,1-1,.13.5.5,0,0,1-.35-.08l-2,.34h-.78a2,2,0,0,0-.77.18.33.33,0,0,1-.22-.05s-.1,0-.21,0a.76.76,0,0,0-.35.09.84.84,0,0,1-.34.08.38.38,0,0,1-.26-.08,1.28,1.28,0,0,0-.43.08,2.14,2.14,0,0,1-.69.09,2.55,2.55,0,0,1-.78-.09h-.6a1.57,1.57,0,0,1-1.25-.77,2.8,2.8,0,0,1-.56-1.64,11.74,11.74,0,0,1,.35-2.67,9.51,9.51,0,0,1,1-2.67l.95-.87.39-.21a2.26,2.26,0,0,1,.47-.22c.17,0,.34.15.52.43,0,.18-.18.32-.52.44l.52.08a1.38,1.38,0,0,1,.08.52.9.9,0,0,1-.26.69l-.43.43h.18a.48.48,0,0,1,.34.09.38.38,0,0,0,.26.08h.17a6.55,6.55,0,0,0,1.34-.13,7.23,7.23,0,0,1,1.33-.13l1.64-.26c.74-.11,1.46-.24,2.15-.38a12.14,12.14,0,0,0,1.9-.56l2.07-.35a5.55,5.55,0,0,0,1-.26,7.08,7.08,0,0,1,1.12-.26.34.34,0,0,0,.26.09,4,4,0,0,0,1.12-.21l1.2-.39,1.21-.17a3.55,3.55,0,0,1,1.21-.31,12.3,12.3,0,0,0,2.32-.56l1.73-.25,1-.35h.52l1.29-.43,3-.52c.57-.05,1.09-.13,1.55-.21l1.63-.3,1.55-.35a1,1,0,0,0,.52-.52l.52-.43a4.58,4.58,0,0,0,1.33-1.12,4.28,4.28,0,0,1,1.25-1l.69-.86a2.35,2.35,0,0,1,1-.26l-.18-.34.95-.78c0,.12.12.06.35-.17s.53-.52.9-.86.79-.71,1.25-1.08a5,5,0,0,1,1.38-.82l1-.43a1.08,1.08,0,0,1,.61-.26,1.71,1.71,0,0,1,.86.26l.26.43a2.52,2.52,0,0,1,1.29,1.72l.26.35.34,1.12a1.15,1.15,0,0,1,.09.52,1.11,1.11,0,0,1-.26.73.89.89,0,0,0-.26.47l.69-.34c0,.11,0,.18,0,.21a.17.17,0,0,1,.05.13,1,1,0,0,1-.09.39l-.17.39,1.29-.26a1.31,1.31,0,0,1,.6-.17c.12,0,.19,0,.22,0s.1,0,.21,0a12.92,12.92,0,0,1,1.43-.26,11.09,11.09,0,0,0,1.42-.25l1.72-.26.26-.18a1.38,1.38,0,0,0,.6.09,2.84,2.84,0,0,0,1-.21,2.64,2.64,0,0,1,.74-.22.54.54,0,0,1,.25,0,.41.41,0,0,0,.18.05,2.26,2.26,0,0,0,.47-.05,2.29,2.29,0,0,1,.47,0h.44l.86-.34a2.18,2.18,0,0,1,.86-.18l4.74-.51a4.5,4.5,0,0,1,.95-.18.94.94,0,0,1,.43.09,6,6,0,0,0,1.59-.26,6.48,6.48,0,0,1,1.77-.26h.25a4.29,4.29,0,0,0,.95-.17l.95-.09a2.29,2.29,0,0,0,.47,0,2,2,0,0,1,.39,0h.26a9.66,9.66,0,0,1,1.29-.22c.35,0,.81,0,1.38,0h.6l2.16-.52a2.43,2.43,0,0,1,.6.09,2.43,2.43,0,0,0,.6.09,1.44,1.44,0,0,0,.48-.13,1.53,1.53,0,0,1,.64-.13,2.39,2.39,0,0,1,.48,0,1.84,1.84,0,0,0,.39,0l2-.34a.15.15,0,0,0,.13,0,.22.22,0,0,1,.13,0,.25.25,0,0,1,.13,0,.12.12,0,0,0,.12,0l2.5-.26a1.47,1.47,0,0,0,.61.09,3.07,3.07,0,0,0,.77-.09,5.92,5.92,0,0,0,.78-.26,3.22,3.22,0,0,1,.39,0,1.89,1.89,0,0,0,.38.05,5.34,5.34,0,0,0,.69-.05c.23,0,.46,0,.69,0s.56,0,.82,0a7.08,7.08,0,0,0,.82.05,2.48,2.48,0,0,0,.77-.09,5.21,5.21,0,0,1,1,.09,5.94,5.94,0,0,0,1.08.08l1.38.18c.23,0,.35.25.35.6v.17a3.53,3.53,0,0,1,.25,1.21A2,2,0,0,1,483.94,849.39Zm-98.4,16.45h-.17l.17.09Zm.43,40.5c.52-.4.79-.75.82-1a1.69,1.69,0,0,1,.39-.86l1.89-3.19c.12-.22.28-.5.48-.81s.39-.62.56-.91.46-.72.69-1.12l-.09-.17a1.73,1.73,0,0,1,.35-.78c.23-.34.5-.71.82-1.12s.61-.8.9-1.2.49-.69.6-.86l1.12-1.81a1,1,0,0,1,.18-.26.38.38,0,0,0,.08-.26h-.26l-.34.52-.48.64a5.26,5.26,0,0,0-.38.65,2.39,2.39,0,0,1-.43.6c-.29.35-.61.75-.95,1.21A10.33,10.33,0,0,0,391,897a2.65,2.65,0,0,0-.38,1.08.24.24,0,0,0,.08.17.26.26,0,0,1-.21.3.41.41,0,0,0-.31.22L388,902.55l-1.8,3.27Zm13.36-15.6c.11-.11.24-.25.39-.43a5.61,5.61,0,0,0,.38-.51l-.17-.35-.34.35a5,5,0,0,0-.65,1.07c-.2.43-.33.65-.39.65l-1.38,1.81c-.28.4-.53.77-.73,1.12s-.44.72-.73,1.12l-1.38,2q-.43.69-.9,1.29a3.51,3.51,0,0,0-.65,1.21l-1.72,2.76-3.28,6-1.29,2.41a.24.24,0,0,0,.17.09v-.26l.69-.86.52-1.21,1.29-2.24a8.07,8.07,0,0,1,.73-1.21,3.28,3.28,0,0,0,.56-1.12l.61-.77a1.75,1.75,0,0,0,.51-.95,1.61,1.61,0,0,1,.61-1v-.17c0,.06.05,0,.17-.26s.34-.64.69-1.25.86-1.43,1.55-2.5,1.61-2.39,2.76-4l1.37-1.81ZM386.75,866l-.09-.09V866Zm.26.34c0-.11,0-.17-.09-.17a.24.24,0,0,0-.09.17l.18.09Zm2.32-.43h-.43q0,.17-.21.09c-.15-.06-.22,0-.22.25Zm-.17,29.21-.17.52a.52.52,0,0,0,.17-.35Zm.95-1.47a1,1,0,0,0-.48.56c-.08.26-.18.53-.3.82.18-.23.33-.44.48-.64A2,2,0,0,0,390.11,893.67Zm1.64-28.26-.91.17a2,2,0,0,0-.73.26l1.64-.26Zm-1.3,27.66c0,.06,0,.09.05.09s0,0,0,.08,0-.08.09-.08a.08.08,0,0,1-.09-.09Zm1.73-2.5a.73.73,0,0,0-.43.6l.25-.25A1,1,0,0,0,392.18,890.57Zm.51-.86a.62.62,0,0,0-.34.6c.23-.23.34-.4.34-.51Zm-.08-24.3a.22.22,0,0,0,.17.09.5.5,0,0,0,.34-.17H393a.35.35,0,0,0-.17,0A.38.38,0,0,1,392.61,865.41ZM394,887.64c-.23.29-.46.59-.69.91a7.1,7.1,0,0,0-.61,1c.23,0,.51-.29.82-.86A3.91,3.91,0,0,0,394,887.64Zm-.87,21.8c.23,0,.38-.07.44-.22a.33.33,0,0,1,.34-.21h-.6Zm.44,6.55a.29.29,0,0,0,.08-.17.61.61,0,0,1,.09-.26l-.43.26Zm.94-29.12s-.06.14-.17.25c.11,0,.17,0,.17-.08Zm.09,21.45-.17.17h.08a.14.14,0,0,0,.13-.08.14.14,0,0,1,.13-.09h-.17Zm.26-21.88c-.12,0-.17.11-.17.17v.17C394.79,886.78,394.85,886.67,394.85,886.44Zm0,5.34c.17-.17.26-.29.26-.35a.72.72,0,0,0-.09-.34Zm1.63-27.14h-.25a2.61,2.61,0,0,0-1.12.34l1.37-.17ZM395.8,914a.37.37,0,0,1-.35.17Zm.51-.61c-.17.12-.26.23-.26.35v.08C396.23,913.78,396.31,913.63,396.31,913.4Zm-.08-29c.11,0,.3-.17.56-.52a4.67,4.67,0,0,0,.56-1,.23.23,0,0,0-.26.26l-.61.86Zm.69,4.22a1.26,1.26,0,0,0-.35.52A.47.47,0,0,0,396.92,888.59Zm.08,24a.29.29,0,0,1-.21.26.32.32,0,0,0-.22.34.22.22,0,0,1,.17.09.08.08,0,0,0,.09-.09l1.12-1a3.49,3.49,0,0,1,.6-.52l.95-.86a1.94,1.94,0,0,1,.52-.35l1-1.37-1.21,1a1.38,1.38,0,0,0-.51.34l-.43.61-1,.77Zm.86-48.17h-.26a2.59,2.59,0,0,0-.77.18Zm-.69,23.61v.26a1.93,1.93,0,0,0,.69-1.29,2.12,2.12,0,0,0-.34.47,2.49,2.49,0,0,1-.35.48Zm.69-5.86c-.11.12-.2.18-.26.18s0,.08.09.08l.17-.17ZM399,864.12a.22.22,0,0,1-.17.09H399Zm.09.17a4.09,4.09,0,0,0,1.21-.43,2.5,2.5,0,0,1-.61.09A.93.93,0,0,0,399.07,864.29Zm6.46-1.38c.06,0,.09,0,.09-.08s.05-.12.17-.17h-.43l-1.29.43-3.45.6a.08.08,0,0,0-.09.09.59.59,0,0,1,.26,0,.62.62,0,0,0,.26,0,5.83,5.83,0,0,0,1.68-.26,17.32,17.32,0,0,1,2.11-.43Zm-4.65,20.34.08-.17-.17.17Zm.17-.26a.38.38,0,0,0,.43-.43c-.06-.12-.11-.17-.17-.17a.22.22,0,0,1-.17-.09A2.72,2.72,0,0,1,401.05,883Zm.69,25.24a2.66,2.66,0,0,0-.43.52,1.21,1.21,0,0,0,.56-.3l.39-.39,1.81-1.89.08-.35a.62.62,0,0,0-.3.17,1.17,1.17,0,0,1-.21.26Zm2.93-49.88c0,.06,0,.08-.09.08h.18Zm.17,46.78.09-.08Zm.26-46.7.17-.17-.17.09Zm.95,45.5c-.17.11-.26.2-.26.25l.26-.25a1.61,1.61,0,0,0,.77-.69h-.08Q406.13,903.49,406.05,903.93Zm4.22-42a1.92,1.92,0,0,0,1-.43l-4.65,1.12H407a3.76,3.76,0,0,0,.9-.13,8.1,8.1,0,0,0,.91-.31l1.37-.25Zm-3.19,18a.24.24,0,0,0-.17.09.08.08,0,0,0,.09.09Zm.09-.17c.23,0,.34-.23.34-.52a.51.51,0,0,0-.17.31A.25.25,0,0,1,407.17,879.8Zm.6-.69a1.12,1.12,0,0,0,.43-.52A.79.79,0,0,0,407.77,879.11Zm1.12-1.2a1.3,1.3,0,0,1,.17-.26.36.36,0,0,0,.09-.26.51.51,0,0,0-.26.43Zm2.93-18.62s.12-.11.35-.17C411.94,859.12,411.82,859.18,411.82,859.29Zm.52-.08a.83.83,0,0,0,.6-.26Zm.26,37.39a.23.23,0,0,0-.26.26A.23.23,0,0,0,412.6,896.6Zm1.29,1.55c-.23.12-.35.26-.35.43A.89.89,0,0,0,413.89,898.15Zm.43-.43a.31.31,0,0,0-.34.35l.34-.35a1,1,0,0,0,.6-.73c.12-.37.23-.56.35-.56v-.09l-.95,1.12Zm1.12-1.63.09.08V896Zm1.72-2.42a.93.93,0,0,0-.34.61A1.1,1.1,0,0,0,417.16,893.67Zm1.21-1.46.17-.09h-.08Zm3.19-7.24c0,.06,0,.09-.05.09s0,0,0,.08A.22.22,0,0,0,421.56,885Zm1.72-24a1.23,1.23,0,0,1,.26-.22c.06,0,.08-.1.08-.21l-1.12.69a.37.37,0,0,0-.08.26v.25a.57.57,0,0,0,.52-.3A1.84,1.84,0,0,1,423.28,861Zm23.35-5.26h-.26l-4.22.43-1.72.43-5.09.61c-.92.17-2,.41-3.14.73a12.15,12.15,0,0,1-3.15.47.38.38,0,0,1-.17,0,.35.35,0,0,0-.17,0,4.34,4.34,0,0,0-.73.21,4.51,4.51,0,0,1-.65.22h-.17a.37.37,0,0,0-.35.17h.78l2.58-.6,2.93-.35,1.47-.34,2.93-.52a1.87,1.87,0,0,0,.69-.13,2.1,2.1,0,0,1,.69-.13l2-.26c.57-.11,1.1-.22,1.59-.34a6.47,6.47,0,0,1,1.42-.17c.06.06.2.08.43.08a4.69,4.69,0,0,0,.87-.17Zm-19-3.36-.17.17c0,.06,0,.09.08.09l.17.09A.58.58,0,0,1,427.59,852.4Zm1.72,3.71a1.58,1.58,0,0,0,.52-.05c.06,0,.14-.13.26-.3Zm1.21-.26h.08l-.08-.09Zm.77-.17a.4.4,0,0,0,.26.08h.09l.17-.08-.09-.09Zm1.73-.43c-.18,0-.35.1-.52.13a.58.58,0,0,0-.43.3l4.39-.78-.77-.09a7.33,7.33,0,0,1-1.34.22A7.23,7.23,0,0,0,433,855.25Zm1.72-2.42a.38.38,0,0,1,.26-.08v-.09a.36.36,0,0,1-.26.09Zm3,1.81a3.34,3.34,0,0,0,.68,0,4.34,4.34,0,0,0,.69-.3Zm3-.43.52-.17-.52.09Zm2-.26c-.11,0-.18,0-.21,0s-.1,0-.22,0a.57.57,0,0,0-.43.17Zm1.55-.34.18.17.08-.09Zm3.19,2.07a4,4,0,0,0,.95-.09,1.39,1.39,0,0,1-.35,0,1.33,1.33,0,0,0-.34,0,.46.46,0,0,0-.34.09S447.49,855.62,447.49,855.68Zm2-.18a3,3,0,0,1,.78-.17l-.09-.08-1.2.25a.41.41,0,0,1,.17,0,.35.35,0,0,0,.17,0c.06,0,.09,0,.09,0S449.42,855.5,449.47,855.5Zm4.66-.6h.34c.11,0,.23-.09.34-.26h-.6a4.4,4.4,0,0,1-.95.26,5.5,5.5,0,0,1-.94.09h-.78l.43.17Zm.17-2.5a.62.62,0,0,0,.26,0,.54.54,0,0,1,.25,0l-.08-.09-.6.09A.25.25,0,0,0,454.3,852.4Zm.95,2.24a.45.45,0,0,0,.34.17c.12,0,.23-.08.35-.25a1.44,1.44,0,0,1-.52.17Zm1.55,0h.69a1.65,1.65,0,0,0,1-.26.54.54,0,0,0-.34-.08,8.78,8.78,0,0,0-1.64.34Zm1-2.58a1.31,1.31,0,0,1,.6-.17,1.34,1.34,0,0,0,.61-.18h-.43A1.08,1.08,0,0,0,457.83,852.06Zm2.15-2.67a1.64,1.64,0,0,0-.77.17ZM479.54,854l-3.44.69-2.33.09a23.8,23.8,0,0,1-4.14.6c-1.6.12-3.13.17-4.56.17h-.69a2.71,2.71,0,0,1-.69-.08h-.56a1,1,0,0,0-.56.17,1.38,1.38,0,0,0,.6.09h1.64a2,2,0,0,1,.39,0,2.29,2.29,0,0,0,.47,0,22.52,22.52,0,0,0,2.33-.13c.86-.08,1.63-.18,2.32-.3l.18.09.34-.17a.87.87,0,0,1,.3,0,1,1,0,0,0,.3,0,5.32,5.32,0,0,0,.69,0,5.32,5.32,0,0,1,.69,0l2.16-.44,2.24-.17a.37.37,0,0,1,.26-.08l2.06-.52Z"/></svg>