<svg id="Layer_1" data-name="Layer 1" xmlns="http://www.w3.org/2000/svg" viewBox="0 0 927.96 454.77"><defs><style>.cls-1{font-size:129.65px;fill:none;stroke:#ca589a;stroke-miterlimit:10;stroke-width:2.49px;font-family:Montserrat-Bold, Montserrat;font-weight:700;}.cls-2{letter-spacing:0em;}.cls-3{font-size:136.97px;font-family:Skywalker, Skywalker;}.cls-26,.cls-27,.cls-28,.cls-29,.cls-3,.cls-30,.cls-31,.cls-63{fill:#1a1d1c;}.cls-4{letter-spacing:-0.03em;}.cls-5{letter-spacing:-0.01em;}.cls-6{letter-spacing:-0.09em;}.cls-7{letter-spacing:-0.02em;}.cls-8{letter-spacing:-0.04em;}.cls-9{font-size:13px;font-family:Montserrat-Regular, Montserrat;}.cls-33,.cls-34,.cls-35,.cls-36,.cls-37,.cls-38,.cls-39,.cls-40,.cls-41,.cls-42,.cls-43,.cls-44,.cls-45,.cls-46,.cls-47,.cls-48,.cls-49,.cls-9{fill:#ca589a;}.cls-10{letter-spacing:0em;}.cls-11{letter-spacing:-0.04em;}.cls-12{letter-spacing:-0.01em;}.cls-13{letter-spacing:-0.02em;}.cls-14{letter-spacing:-0.01em;}.cls-15{letter-spacing:-0.04em;}.cls-16,.cls-28{letter-spacing:-0.01em;}.cls-17{letter-spacing:0em;}.cls-18{letter-spacing:-0.04em;}.cls-19{letter-spacing:0em;}.cls-20{letter-spacing:0em;}.cls-21{letter-spacing:-0.01em;}.cls-22{letter-spacing:0em;}.cls-23{letter-spacing:-0.04em;}.cls-24{letter-spacing:0em;}.cls-25{letter-spacing:-0.04em;}.cls-26,.cls-56{letter-spacing:-0.01em;}.cls-29{letter-spacing:-0.01em;}.cls-30{letter-spacing:-0.01em;}.cls-31,.cls-50{letter-spacing:0.03em;}.cls-32,.cls-39{letter-spacing:0.02em;}.cls-33{letter-spacing:0.09em;}.cls-34{letter-spacing:0.02em;}.cls-36{letter-spacing:0.09em;}.cls-37{letter-spacing:0.02em;}.cls-38{letter-spacing:0.01em;}.cls-40{letter-spacing:0.02em;}.cls-41{letter-spacing:0.02em;}.cls-42{letter-spacing:0.02em;}.cls-43{letter-spacing:0.01em;}.cls-44{letter-spacing:0.09em;}.cls-45{letter-spacing:0.02em;}.cls-46{letter-spacing:0.02em;}.cls-47{letter-spacing:0.02em;}.cls-48{letter-spacing:0.02em;}.cls-49{letter-spacing:0.04em;}.cls-51{letter-spacing:0.02em;}.cls-52{letter-spacing:0.01em;}.cls-53{letter-spacing:0.01em;}.cls-54{letter-spacing:0.01em;}.cls-55{letter-spacing:0.04em;}.cls-57{letter-spacing:0.04em;}.cls-58,.cls-63{letter-spacing:-0.01em;}.cls-59{letter-spacing:-0.01em;}.cls-60{letter-spacing:0.04em;}.cls-61{letter-spacing:0em;}.cls-62{letter-spacing:0em;}.cls-64{letter-spacing:-0.01em;}.cls-65{letter-spacing:-0.01em;}.cls-66{letter-spacing:-0.02em;}.cls-67{letter-spacing:-0.02em;}.cls-68{letter-spacing:-0.01em;}</style></defs><title>cards</title><text class="cls-1" transform="translate(62.36 144.66)">SLIM SHA<tspan class="cls-2" x="630.63" y="0">D</tspan><tspan x="729.95" y="0">Y</tspan></text><text class="cls-3" transform="translate(145.56 237.79)"><tspan class="cls-4">T</tspan><tspan class="cls-5" x="64.24" y="0">h</tspan><tspan x="127.52" y="0">e M</tspan><tspan class="cls-6" x="351.6" y="0">a</tspan><tspan class="cls-7" x="409.95" y="0">n</tspan><tspan x="486.65" y="0">i</tspan><tspan class="cls-8" x="527.19" y="0">a</tspan><tspan x="591.57" y="0">c</tspan></text><text class="cls-9" transform="translate(58.5 348.89)"><tspan class="cls-10">T</tspan><tspan x="7.79" y="0">his</tspan><tspan class="cls-11" x="26.33" y="0"> </tspan><tspan x="29.41" y="0">c</tspan><tspan class="cls-10" x="36.9" y="0">r</tspan><tspan x="41.99" y="0">azy</tspan><tspan class="cls-11" x="64.12" y="0"> </tspan><tspan x="67.2" y="0">m</tspan><tspan class="cls-12" x="80.38" y="0">o</tspan><tspan x="88.76" y="0">th</tspan><tspan class="cls-13" x="102.59" y="0">a</tspan><tspan x="110.01" y="0">’</tspan><tspan class="cls-11" x="112.83" y="0"> </tspan><tspan x="115.92" y="0">fuc</tspan><tspan class="cls-14" x="136.82" y="0">k</tspan><tspan x="144.26" y="0">a</tspan><tspan class="cls-11" x="151.89" y="0"> </tspan><tspan x="154.97" y="0">had</tspan><tspan class="cls-11" x="179.74" y="0"> </tspan><tspan x="182.82" y="0">the</tspan><tspan class="cls-11" x="204.69" y="0"> </tspan><tspan x="207.77" y="0">whole</tspan><tspan class="cls-15" x="248.1" y="0"> </tspan><tspan class="cls-16" x="251.18" y="0">w</tspan><tspan x="262.94" y="0">orld</tspan><tspan class="cls-11" x="288.88" y="0"> </tspan><tspan x="291.96" y="0">up</tspan><tspan class="cls-11" x="309.1" y="0"> </tspan><tspan x="312.18" y="0">in</tspan><tspan class="cls-11" x="324.14" y="0"> </tspan><tspan x="327.22" y="0">arms</tspan><tspan class="cls-11" x="359.78" y="0"> </tspan><tspan x="362.86" y="0">about</tspan><tspan class="cls-11" x="401.53" y="0"> </tspan><tspan class="cls-17" x="404.62" y="0">his</tspan><tspan class="cls-15" x="423.16" y="0"> </tspan><tspan x="426.24" y="0">music.</tspan><tspan class="cls-18" x="469.09" y="0"> </tspan><tspan class="cls-19" x="472.17" y="0">T</tspan><tspan x="479.96" y="0">he</tspan><tspan class="cls-15" x="496.39" y="0"> </tspan><tspan x="499.47" y="0">media</tspan><tspan class="cls-18" x="540.62" y="0"> </tspan><tspan x="543.7" y="0">tried</tspan><tspan class="cls-15" x="574.63" y="0"> </tspan><tspan class="cls-20" x="577.71" y="0">t</tspan><tspan x="583.09" y="0">o</tspan><tspan class="cls-18" x="591.57" y="0"> </tspan><tspan x="594.65" y="0">pick</tspan><tspan class="cls-15" x="621.99" y="0"> </tspan><tspan x="625.07" y="0">him</tspan><tspan class="cls-18" x="650.21" y="0"> </tspan><tspan x="653.3" y="0">apart</tspan><tspan class="cls-15" x="687.89" y="0"> </tspan><tspan class="cls-21" x="690.97" y="0">f</tspan><tspan class="cls-22" x="695.82" y="0">or</tspan><tspan class="cls-23" x="709.46" y="0"> </tspan><tspan class="cls-24" x="712.54" y="0">his</tspan><tspan class="cls-25" x="731.08" y="0"> </tspan><tspan class="cls-26" x="734.16" y="0">c</tspan><tspan class="cls-27" x="741.51" y="0">o</tspan><tspan class="cls-28" x="749.98" y="0">n</tspan><tspan class="cls-27" x="758.29" y="0">t</tspan><tspan class="cls-29" x="763.73" y="0">r</tspan><tspan class="cls-30" x="768.76" y="0">o</tspan><tspan class="cls-27" x="777.12" y="0">versial </tspan><tspan class="cls-31"><tspan x="0" y="15.6">lyri</tspan><tspan class="cls-32" x="21.05" y="15.6">c</tspan><tspan x="28.81" y="15.6">s</tspan><tspan class="cls-33" x="35.71" y="15.6"> </tspan><tspan class="cls-34" x="40.5" y="15.6">but</tspan><tspan class="cls-33" x="64.04" y="15.6"> </tspan><tspan class="cls-35" x="68.83" y="15.6">he</tspan><tspan class="cls-36" x="85.92" y="15.6"> </tspan><tspan class="cls-35" x="90.71" y="15.6">just</tspan><tspan class="cls-33" x="115.98" y="15.6"> </tspan><tspan class="cls-34" x="120.77" y="15.6">used</tspan><tspan class="cls-33" x="153.81" y="15.6"> </tspan><tspan class="cls-35" x="158.6" y="15.6">it</tspan><tspan class="cls-33" x="168.25" y="15.6"> </tspan><tspan class="cls-35" x="173.04" y="15.6">as</tspan><tspan class="cls-33" x="187.9" y="15.6"> </tspan><tspan class="cls-34" x="192.69" y="15.6">fuel</tspan><tspan class="cls-33" x="219" y="15.6"> </tspan><tspan class="cls-37" x="223.79" y="15.6">t</tspan><tspan class="cls-35" x="229.5" y="15.6">o</tspan><tspan class="cls-33" x="238.3" y="15.6"> </tspan><tspan class="cls-35" x="243.09" y="15.6">sky</tspan><tspan class="cls-38" x="265.66" y="15.6">r</tspan><tspan class="cls-35" x="271.01" y="15.6">ock</tspan><tspan class="cls-39" x="295.5" y="15.6">e</tspan><tspan class="cls-34" x="303.81" y="15.6">t</tspan><tspan class="cls-33" x="309.57" y="15.6"> </tspan><tspan class="cls-35" x="314.36" y="15.6">i</tspan><tspan class="cls-40" x="318.25" y="15.6">n</tspan><tspan class="cls-41" x="326.88" y="15.6">t</tspan><tspan class="cls-35" x="332.59" y="15.6">o</tspan><tspan class="cls-33" x="341.39" y="15.6"> </tspan><tspan class="cls-34" x="346.18" y="15.6">success.</tspan><tspan class="cls-33" x="403.56" y="15.6"> </tspan><tspan class="cls-35" x="408.35" y="15.6">But</tspan><tspan class="cls-33" x="432.34" y="15.6"> </tspan><tspan class="cls-42" x="437.13" y="15.6">b</tspan><tspan class="cls-39" x="446.19" y="15.6">e</tspan><tspan class="cls-43" x="454.49" y="15.6">f</tspan><tspan class="cls-35" x="459.67" y="15.6">ore</tspan><tspan class="cls-44" x="482.31" y="15.6"> </tspan><tspan class="cls-35" x="487.1" y="15.6">the</tspan><tspan class="cls-44" x="509.94" y="15.6"> </tspan><tspan class="cls-45" x="514.73" y="15.6">f</tspan><tspan class="cls-35" x="520.01" y="15.6">ame,</tspan><tspan class="cls-36" x="553.81" y="15.6"> </tspan><tspan class="cls-35" x="558.6" y="15.6">he</tspan><tspan class="cls-36" x="575.68" y="15.6"> </tspan><tspan class="cls-35" x="580.47" y="15.6">we</tspan><tspan class="cls-46" x="601.01" y="15.6">n</tspan><tspan class="cls-35" x="609.64" y="15.6">t</tspan><tspan class="cls-36" x="615.4" y="15.6"> </tspan><tspan class="cls-35" x="620.19" y="15.6">th</tspan><tspan class="cls-47" x="634.67" y="15.6">r</tspan><tspan class="cls-35" x="640.03" y="15.6">ough</tspan><tspan class="cls-36" x="675.1" y="15.6"> </tspan><tspan class="cls-35" x="679.89" y="15.6">qui</tspan><tspan class="cls-39" x="701.56" y="15.6">e</tspan><tspan class="cls-42" x="709.87" y="15.6">t</tspan><tspan class="cls-44" x="715.63" y="15.6"> </tspan><tspan class="cls-35" x="720.42" y="15.6">the</tspan><tspan class="cls-44" x="743.26" y="15.6"> </tspan><tspan class="cls-42" x="748.05" y="15.6">b</tspan><tspan class="cls-48" x="757.11" y="15.6">a</tspan><tspan class="cls-35" x="764.99" y="15.6">ttle</tspan><tspan class="cls-44" x="788.75" y="15.6"> </tspan><tspan class="cls-35" x="793.54" y="15.6">an</tspan><tspan class="cls-49" x="810.22" y="15.6">d</tspan><tspan class="cls-35" x="819.41" y="15.6"> </tspan></tspan><tspan class="cls-50" x="0" y="31.2">t</tspan><tspan class="cls-51" x="5.76" y="31.2">r</tspan><tspan class="cls-50" x="11.18" y="31.2">au</tspan><tspan class="cls-52" x="27.86" y="31.2">m</tspan><tspan class="cls-53" x="41.22" y="31.2">a</tspan><tspan class="cls-54" x="48.96" y="31.2">tic</tspan><tspan class="cls-55" x="65.99" y="31.2"> </tspan><tspan class="cls-56" x="70.02" y="31.2">e</tspan><tspan x="77.91" y="31.2">xperiences</tspan><tspan class="cls-57" x="149.19" y="31.2"> </tspan><tspan x="153.23" y="31.2">th</tspan><tspan class="cls-58" x="167.06" y="31.2">a</tspan><tspan x="174.61" y="31.2">t</tspan><tspan class="cls-57" x="180.05" y="31.2"> </tspan><tspan x="184.08" y="31.2">some</tspan><tspan class="cls-57" x="220.35" y="31.2"> </tspan><tspan class="cls-16" x="224.39" y="31.2">w</tspan><tspan x="236.15" y="31.2">ouldn&apos;t</tspan><tspan class="cls-57" x="282.17" y="31.2"> </tspan><tspan x="286.21" y="31.2">h</tspan><tspan class="cls-59" x="294.61" y="31.2">a</tspan><tspan x="302.16" y="31.2">ve</tspan><tspan class="cls-57" x="317.63" y="31.2"> </tspan><tspan x="321.67" y="31.2">the</tspan><tspan class="cls-60" x="343.53" y="31.2"> </tspan><tspan x="347.57" y="31.2">strength</tspan><tspan class="cls-57" x="403.51" y="31.2"> </tspan><tspan class="cls-61" x="407.54" y="31.2">t</tspan><tspan x="412.93" y="31.2">o</tspan><tspan class="cls-57" x="421.4" y="31.2"> </tspan><tspan class="cls-14" x="425.44" y="31.2">o</tspan><tspan x="433.8" y="31.2">ver</tspan><tspan class="cls-56" x="454.43" y="31.2">c</tspan><tspan x="461.77" y="31.2">ome.</tspan><tspan class="cls-57" x="495.1" y="31.2"> </tspan><tspan x="499.14" y="31.2">His</tspan><tspan class="cls-57" x="519.38" y="31.2"> </tspan><tspan x="523.41" y="31.2">s</tspan><tspan class="cls-62" x="529.99" y="31.2">t</tspan><tspan x="535.37" y="31.2">ory</tspan><tspan class="cls-57" x="556.47" y="31.2"> </tspan><tspan x="560.51" y="31.2">is</tspan><tspan class="cls-57" x="570.65" y="31.2"> </tspan><tspan x="574.68" y="31.2">filled</tspan><tspan class="cls-57" x="607.15" y="31.2"> </tspan><tspan x="611.19" y="31.2">with</tspan><tspan class="cls-57" x="640.44" y="31.2"> </tspan><tspan class="cls-27" x="644.47" y="31.2">b</tspan><tspan class="cls-63" x="653.21" y="31.2">a</tspan><tspan class="cls-27" x="660.76" y="31.2">ttle</tspan><tspan class="cls-57" x="683.23" y="31.2"> </tspan><tspan x="687.26" y="31.2">and</tspan><tspan class="cls-57" x="712.03" y="31.2"> </tspan><tspan x="716.06" y="31.2">some</tspan><tspan class="cls-57" x="752.33" y="31.2"> </tspan><tspan x="756.37" y="31.2">c</tspan><tspan class="cls-64" x="763.85" y="31.2">r</tspan><tspan x="768.95" y="31.2">azy</tspan><tspan class="cls-57" x="791.08" y="31.2"> </tspan><tspan x="795.11" y="31.2">shit </tspan><tspan x="0" y="46.8">so check it out and see </tspan><tspan class="cls-21" x="154.1" y="46.8">f</tspan><tspan x="158.95" y="46.8">or </tspan><tspan class="cls-65" x="176.15" y="46.8">y</tspan><tspan x="183.49" y="46.8">ourself why h</tspan><tspan class="cls-66" x="271.96" y="46.8">e</tspan><tspan class="cls-67" x="279.76" y="46.8">’</tspan><tspan x="282.27" y="46.8">s </tspan><tspan class="cls-56" x="292.41" y="46.8">c</tspan><tspan x="299.75" y="46.8">onsidered one </tspan><tspan class="cls-12" x="397.5" y="46.8">o</tspan><tspan x="405.87" y="46.8">f the gre</tspan><tspan class="cls-58" x="461.58" y="46.8">a</tspan><tspan x="469.13" y="46.8">test </tspan><tspan class="cls-19" x="498.17" y="46.8">r</tspan><tspan x="503.27" y="46.8">appers </tspan><tspan class="cls-68" x="551.71" y="46.8">o</tspan><tspan x="560.08" y="46.8">f all time.</tspan></text></svg>