<svg id="Layer_1" data-name="Layer 1" xmlns="http://www.w3.org/2000/svg" viewBox="0 0 927.96 454.77"><defs><style>.cls-1{font-size:108.19px;fill:none;stroke:#ca589a;stroke-miterlimit:10;stroke-width:2.08px;font-family:Montserrat-Bold, Montserrat;font-weight:700;}.cls-2{font-size:113.16px;font-family:Skywalker, Skywalker;}.cls-2,.cls-29,.cls-30,.cls-31,.cls-32,.cls-33,.cls-34{fill:#1a1d1c;}.cls-3{letter-spacing:-0.03em;}.cls-4{letter-spacing:-0.01em;}.cls-5{letter-spacing:-0.04em;}.cls-6{letter-spacing:-0.05em;}.cls-7{letter-spacing:0.01em;}.cls-8{letter-spacing:0.03em;}.cls-9{letter-spacing:-0.04em;}.cls-10{letter-spacing:-0.05em;}.cls-11{font-size:13px;fill:#ca589a;font-family:Montserrat-Regular, Montserrat;}.cls-12{letter-spacing:0.02em;}.cls-13{letter-spacing:0.02em;}.cls-14{letter-spacing:-0.01em;}.cls-15,.cls-31{letter-spacing:-0.01em;}.cls-16{letter-spacing:-0.01em;}.cls-17{letter-spacing:0em;}.cls-18{letter-spacing:0.02em;}.cls-19{letter-spacing:-0.04em;}.cls-20{letter-spacing:-0.01em;}.cls-21{letter-spacing:0em;}.cls-22{letter-spacing:-0.01em;}.cls-23{letter-spacing:0em;}.cls-24,.cls-33{letter-spacing:0em;}.cls-25{letter-spacing:0em;}.cls-26{letter-spacing:-0.01em;}.cls-27,.cls-29{letter-spacing:0em;}.cls-28{letter-spacing:0em;}.cls-30{letter-spacing:0em;}.cls-34{letter-spacing:0em;}.cls-35{letter-spacing:-0.01em;}.cls-36{letter-spacing:-0.01em;}.cls-37{letter-spacing:-0.01em;}.cls-38{letter-spacing:0em;}.cls-39{letter-spacing:-0.03em;}.cls-40{letter-spacing:0em;}.cls-41{letter-spacing:-0.01em;}</style></defs><title>cards</title><text class="cls-1" transform="translate(62.36 170.99)">KANYE WEST</text><text class="cls-2" transform="translate(145.56 236.49)"><tspan class="cls-3">T</tspan><tspan class="cls-4" x="53.07" y="0">h</tspan><tspan x="105.35" y="0">e </tspan><tspan class="cls-5" x="172.57" y="0">E</tspan><tspan class="cls-6" x="269.66" y="0">n</tspan><tspan class="cls-7" x="329.98" y="0">t</tspan><tspan class="cls-8" x="366.52" y="0">e</tspan><tspan class="cls-9" x="412.92" y="0">r</tspan><tspan x="446.64" y="0">t</tspan><tspan class="cls-6" x="482.06" y="0">a</tspan><tspan class="cls-10" x="534.57" y="0">i</tspan><tspan x="562.86" y="0">n</tspan><tspan class="cls-8" x="628.83" y="0">e</tspan><tspan x="675.22" y="0">r</tspan></text><text class="cls-11" transform="translate(58.5 348.89)">I<tspan class="cls-12" x="4.06" y="0"> </tspan><tspan x="7.84" y="0">don&apos;t</tspan><tspan class="cls-13" x="41.9" y="0"> </tspan><tspan x="45.69" y="0">think</tspan><tspan class="cls-12" x="79.04" y="0"> </tspan><tspan x="82.82" y="0">he</tspan><tspan class="cls-13" x="99.25" y="0"> </tspan><tspan x="103.04" y="0">needs</tspan><tspan class="cls-12" x="142.82" y="0"> </tspan><tspan x="146.61" y="0">an</tspan><tspan class="cls-12" x="162.64" y="0"> </tspan><tspan x="166.43" y="0">i</tspan><tspan class="cls-14" x="169.99" y="0">n</tspan><tspan x="178.29" y="0">t</tspan><tspan class="cls-15" x="183.73" y="0">r</tspan><tspan x="188.76" y="0">oduction</tspan><tspan class="cls-13" x="247.73" y="0"> </tspan><tspan x="251.52" y="0">as</tspan><tspan class="cls-12" x="265.72" y="0"> </tspan><tspan class="cls-16" x="269.51" y="0">y</tspan><tspan x="276.86" y="0">ou’ve</tspan><tspan class="cls-12" x="312.02" y="0"> </tspan><tspan x="315.81" y="0">p</tspan><tspan class="cls-15" x="324.54" y="0">r</tspan><tspan x="329.58" y="0">obably</tspan><tspan class="cls-13" x="374.18" y="0"> </tspan><tspan x="377.97" y="0">already</tspan><tspan class="cls-13" x="426.18" y="0"> </tspan><tspan class="cls-17" x="429.97" y="0">f</tspan><tspan x="434.92" y="0">amiliar</tspan><tspan class="cls-18" x="479.21" y="0"> </tspan><tspan x="483" y="0">with</tspan><tspan class="cls-13" x="512.25" y="0"> </tspan><tspan x="516.03" y="0">M</tspan><tspan class="cls-19" x="528.81" y="0">r</tspan><tspan x="533.39" y="0">.</tspan><tspan class="cls-13" x="537.03" y="0"> </tspan><tspan x="540.81" y="0">West.</tspan><tspan class="cls-18" x="578.12" y="0"> </tspan><tspan x="581.91" y="0">All</tspan><tspan class="cls-13" x="598.68" y="0"> </tspan><tspan x="602.47" y="0">the</tspan><tspan class="cls-13" x="624.33" y="0"> </tspan><tspan x="628.12" y="0">kids</tspan><tspan class="cls-18" x="654.55" y="0"> </tspan><tspan x="658.33" y="0">th</tspan><tspan class="cls-20" x="672.17" y="0">a</tspan><tspan x="679.72" y="0">t</tspan><tspan class="cls-13" x="685.15" y="0"> </tspan><tspan x="688.94" y="0">run</tspan><tspan class="cls-13" x="710.9" y="0"> </tspan><tspan x="714.69" y="0">the</tspan><tspan class="cls-18" x="736.55" y="0"> </tspan><tspan x="740.34" y="0">game</tspan><tspan class="cls-13" x="777.69" y="0"> </tspan><tspan class="cls-21" x="781.47" y="0">t</tspan><tspan x="786.85" y="0">od</tspan><tspan class="cls-22" x="804.06" y="0">a</tspan><tspan x="811.62" y="0">y </tspan><tspan x="0" y="15.6">h</tspan><tspan class="cls-20" x="8.4" y="15.6">a</tspan><tspan x="15.95" y="15.6">ve</tspan><tspan class="cls-23" x="31.42" y="15.6"> </tspan><tspan x="34.96" y="15.6">credited</tspan><tspan class="cls-24" x="90.15" y="15.6"> </tspan><tspan class="cls-16" x="93.69" y="15.6">K</tspan><tspan x="102.72" y="15.6">a</tspan><tspan class="cls-14" x="110.35" y="15.6">n</tspan><tspan x="118.66" y="15.6">ye</tspan><tspan class="cls-23" x="134.15" y="15.6"> </tspan><tspan x="137.69" y="15.6">as</tspan><tspan class="cls-24" x="151.9" y="15.6"> </tspan><tspan x="155.44" y="15.6">their</tspan><tspan class="cls-23" x="186.03" y="15.6"> </tspan><tspan x="189.57" y="15.6">inspi</tspan><tspan class="cls-25" x="220.41" y="15.6">r</tspan><tspan class="cls-26" x="225.5" y="15.6">a</tspan><tspan class="cls-27" x="233.06" y="15.6">tion.</tspan><tspan class="cls-23" x="262.57" y="15.6"> </tspan><tspan class="cls-27" x="266.11" y="15.6">He</tspan><tspan class="cls-28" x="284.24" y="15.6"> </tspan><tspan class="cls-29" x="287.78" y="15.6">changed</tspan><tspan class="cls-30" x="344.97" y="15.6"> </tspan><tspan class="cls-31" x="348.51" y="15.6">R</tspan><tspan class="cls-32" x="357.84" y="15.6">ap</tspan><tspan class="cls-33" x="374.21" y="15.6"> </tspan><tspan class="cls-34" x="377.75" y="15.6">music</tspan><tspan class="cls-28" x="416.96" y="15.6"> </tspan><tspan x="420.5" y="15.6">by</tspan><tspan class="cls-24" x="436.69" y="15.6"> </tspan><tspan x="440.23" y="15.6">being</tspan><tspan class="cls-24" x="477.47" y="15.6"> </tspan><tspan x="481" y="15.6">himself</tspan><tspan class="cls-24" x="529.34" y="15.6"> </tspan><tspan x="532.88" y="15.6">and</tspan><tspan class="cls-28" x="557.64" y="15.6"> </tspan><tspan x="561.18" y="15.6">fearless</tspan><tspan class="cls-24" x="611.78" y="15.6"> </tspan><tspan class="cls-35" x="615.32" y="15.6">o</tspan><tspan x="623.69" y="15.6">f</tspan><tspan class="cls-24" x="628.71" y="15.6"> </tspan><tspan x="632.24" y="15.6">the</tspan><tspan class="cls-28" x="654.11" y="15.6"> </tspan><tspan x="657.65" y="15.6">out</tspan><tspan class="cls-36" x="679.96" y="15.6">c</tspan><tspan x="687.3" y="15.6">ome.</tspan><tspan class="cls-24" x="720.63" y="15.6"> </tspan><tspan class="cls-17" x="724.17" y="15.6">O</tspan><tspan x="735.03" y="15.6">n</tspan><tspan class="cls-24" x="743.43" y="15.6"> </tspan><tspan x="746.97" y="15.6">and</tspan><tspan class="cls-24" x="771.73" y="15.6"> </tspan><tspan class="cls-37" x="775.27" y="15.6">o</tspan><tspan x="783.64" y="15.6">ff</tspan><tspan class="cls-28" x="793.68" y="15.6"> </tspan><tspan x="797.22" y="15.6">the </tspan><tspan x="0" y="31.2">stage </tspan><tspan class="cls-16" x="39.74" y="31.2">K</tspan><tspan x="48.78" y="31.2">a</tspan><tspan class="cls-14" x="56.41" y="31.2">n</tspan><tspan x="64.71" y="31.2">ye has been one th</tspan><tspan class="cls-20" x="189.01" y="31.2">a</tspan><tspan x="196.56" y="31.2">t has the whole </tspan><tspan class="cls-14" x="301.04" y="31.2">w</tspan><tspan x="312.81" y="31.2">orld tuned i</tspan><tspan class="cls-14" x="388.43" y="31.2">n</tspan><tspan class="cls-38" x="396.73" y="31.2">t</tspan><tspan x="402.12" y="31.2">o his sh</tspan><tspan class="cls-14" x="451.23" y="31.2">o</tspan><tspan class="cls-39" x="459.61" y="31.2">w</tspan><tspan x="471.09" y="31.2">. Check out his s</tspan><tspan class="cls-40" x="577.44" y="31.2">t</tspan><tspan x="582.82" y="31.2">ory ab</tspan><tspan class="cls-41" x="623.85" y="31.2">o</tspan><tspan x="632.21" y="31.2">ve.</tspan></text></svg>