<svg id="Layer_1" data-name="Layer 1" xmlns="http://www.w3.org/2000/svg" viewBox="0 0 927.96 454.77"><defs><style>.cls-1{font-size:105.21px;fill:none;stroke:#ca589a;stroke-miterlimit:10;stroke-width:2.02px;font-family:Montserrat-Bold, Montserrat;font-weight:700;}.cls-2{letter-spacing:-0.02em;}.cls-3{letter-spacing:-0.02em;}.cls-4{letter-spacing:-0.01em;}.cls-5{font-size:91.32px;font-family:Skywalker, Skywalker;}.cls-23,.cls-24,.cls-25,.cls-38,.cls-39,.cls-5{fill:#1a1d1c;}.cls-6{letter-spacing:-0.03em;}.cls-7{letter-spacing:-0.01em;}.cls-8{letter-spacing:-0.09em;}.cls-9{letter-spacing:0em;}.cls-10{letter-spacing:0.03em;}.cls-11,.cls-12{font-size:61.34px;}.cls-11{letter-spacing:-0.1em;}.cls-13{letter-spacing:0em;}.cls-14{letter-spacing:-0.02em;}.cls-15{letter-spacing:-0.05em;}.cls-16{letter-spacing:-0.08em;}.cls-17{font-size:13px;fill:#ca589a;font-family:Montserrat-Regular, Montserrat;}.cls-18{letter-spacing:-0.04em;}.cls-19{letter-spacing:-0.01em;}.cls-20{letter-spacing:-0.04em;}.cls-21,.cls-25{letter-spacing:-0.04em;}.cls-22,.cls-38{letter-spacing:0em;}.cls-24,.cls-26{letter-spacing:-0.04em;}.cls-27{letter-spacing:-0.01em;}.cls-28{letter-spacing:-0.02em;}.cls-29{letter-spacing:-0.02em;}.cls-30{letter-spacing:-0.03em;}.cls-31{letter-spacing:-0.02em;}.cls-32{letter-spacing:-0.02em;}.cls-33{letter-spacing:0em;}.cls-34{letter-spacing:0.08em;}.cls-35,.cls-39{letter-spacing:0.08em;}.cls-36{letter-spacing:-0.01em;}.cls-37{letter-spacing:-0.01em;}.cls-40{letter-spacing:0.08em;}.cls-41{letter-spacing:-0.01em;}.cls-42{letter-spacing:0em;}.cls-43{letter-spacing:-0.03em;}.cls-44{letter-spacing:-0.01em;}.cls-45{letter-spacing:-0.01em;}</style></defs><title>cards</title><text class="cls-1" transform="translate(62.34 179.87)"><tspan class="cls-2">D</tspan><tspan x="78.17" y="0">J </tspan><tspan class="cls-3" x="158.97" y="0">K</tspan><tspan class="cls-4" x="235.46" y="0">O</tspan><tspan x="318.79" y="0">OL HERC</tspan></text><text class="cls-5" transform="translate(114.5 226.95)"><tspan class="cls-6">T</tspan><tspan class="cls-7" x="42.83" y="0">h</tspan><tspan x="85.02" y="0">e F</tspan><tspan class="cls-8" x="188.11" y="0">a</tspan><tspan class="cls-9" x="226.74" y="0">t</tspan><tspan class="cls-7" x="255.69" y="0">h</tspan><tspan class="cls-10" x="297.88" y="0">e</tspan><tspan x="335.32" y="0">r </tspan><tspan class="cls-11" x="385.27" y="0">o</tspan><tspan class="cls-12" x="409.56" y="0">f</tspan><tspan class="cls-13" x="432.68" y="0"> </tspan><tspan class="cls-14" x="452.13" y="0">H</tspan><tspan class="cls-15" x="515.87" y="0">i</tspan><tspan x="538.24" y="0">p H</tspan><tspan class="cls-16" x="670.84" y="0">o</tspan><tspan x="708.64" y="0">p</tspan></text><text class="cls-17" transform="translate(58.48 348.89)">Where<tspan class="cls-18" x="43.25" y="0"> </tspan><tspan class="cls-19" x="46.24" y="0">w</tspan><tspan x="58" y="0">ould</tspan><tspan class="cls-18" x="87.18" y="0"> </tspan><tspan x="90.16" y="0">we</tspan><tspan class="cls-18" x="110.05" y="0"> </tspan><tspan x="113.04" y="0">be</tspan><tspan class="cls-18" x="129.81" y="0"> </tspan><tspan x="132.8" y="0">without</tspan><tspan class="cls-18" x="184.36" y="0"> </tspan><tspan x="187.34" y="0">DJ</tspan><tspan class="cls-18" x="204.67" y="0"> </tspan><tspan class="cls-20" x="207.66" y="0">K</tspan><tspan x="216.28" y="0">ool</tspan><tspan class="cls-21" x="236.79" y="0"> </tspan><tspan x="239.78" y="0">Herc?</tspan><tspan class="cls-18" x="277.17" y="0"> </tspan><tspan class="cls-22" x="280.15" y="0">T</tspan><tspan x="287.94" y="0">his</tspan><tspan class="cls-18" x="306.48" y="0"> </tspan><tspan x="309.47" y="0">is</tspan><tspan class="cls-18" x="319.61" y="0"> </tspan><tspan x="322.59" y="0">the</tspan><tspan class="cls-18" x="344.46" y="0"> </tspan><tspan x="347.45" y="0">guy</tspan><tspan class="cls-18" x="371.81" y="0"> </tspan><tspan x="374.8" y="0">who</tspan><tspan class="cls-18" x="403.53" y="0"> </tspan><tspan class="cls-23" x="406.51" y="0">started</tspan><tspan class="cls-24" x="453.52" y="0"> </tspan><tspan class="cls-23" x="456.51" y="0">this</tspan><tspan class="cls-25" x="480.48" y="0"> </tspan><tspan class="cls-23" x="483.47" y="0">Hip</tspan><tspan class="cls-24" x="505.86" y="0"> </tspan><tspan class="cls-23" x="508.85" y="0">Hop</tspan><tspan class="cls-25" x="536.16" y="0"> </tspan><tspan class="cls-23" x="539.15" y="0">thing</tspan><tspan x="573.44" y="0">.</tspan><tspan class="cls-26" x="577.08" y="0"> </tspan><tspan x="580.07" y="0">Clive</tspan><tspan class="cls-21" x="612.23" y="0"> </tspan><tspan x="615.22" y="0">Campbell</tspan><tspan class="cls-26" x="678.23" y="0"> </tspan><tspan x="681.22" y="0">cre</tspan><tspan class="cls-27" x="701.9" y="0">a</tspan><tspan x="709.45" y="0">ted</tspan><tspan class="cls-21" x="731.66" y="0"> </tspan><tspan x="734.64" y="0">the</tspan><tspan class="cls-26" x="756.51" y="0"> </tspan><tspan x="759.5" y="0">most</tspan><tspan class="cls-21" x="793.17" y="0"> </tspan><tspan x="796.15" y="0">im</tspan><tspan x="812.9" y="0">-</tspan><tspan x="0" y="15.6">porta</tspan><tspan class="cls-19" x="35.44" y="15.6">n</tspan><tspan x="43.74" y="15.6">t</tspan><tspan class="cls-28" x="49.18" y="15.6"> </tspan><tspan x="52.43" y="15.6">eleme</tspan><tspan class="cls-19" x="93.28" y="15.6">n</tspan><tspan x="101.59" y="15.6">ts</tspan><tspan class="cls-29" x="113.6" y="15.6"> </tspan><tspan x="116.85" y="15.6">in</tspan><tspan class="cls-28" x="128.81" y="15.6"> </tspan><tspan x="132.07" y="15.6">Hip</tspan><tspan class="cls-28" x="154.47" y="15.6"> </tspan><tspan x="157.72" y="15.6">Hop</tspan><tspan class="cls-29" x="185.03" y="15.6"> </tspan><tspan x="188.29" y="15.6">music</tspan><tspan class="cls-28" x="227.5" y="15.6"> </tspan><tspan x="230.75" y="15.6">while</tspan><tspan class="cls-28" x="266.16" y="15.6"> </tspan><tspan x="269.42" y="15.6">DJ’ing</tspan><tspan class="cls-29" x="310.03" y="15.6"> </tspan><tspan class="cls-27" x="313.28" y="15.6">a</tspan><tspan x="320.83" y="15.6">t</tspan><tspan class="cls-28" x="326.27" y="15.6"> </tspan><tspan x="329.52" y="15.6">a</tspan><tspan class="cls-28" x="337.15" y="15.6"> </tspan><tspan x="340.41" y="15.6">block</tspan><tspan class="cls-28" x="376.22" y="15.6"> </tspan><tspan x="379.48" y="15.6">party</tspan><tspan class="cls-28" x="413.9" y="15.6"> </tspan><tspan class="cls-27" x="417.15" y="15.6">a</tspan><tspan x="424.71" y="15.6">t</tspan><tspan class="cls-28" x="430.14" y="15.6"> </tspan><tspan x="433.39" y="15.6">1520</tspan><tspan class="cls-28" x="462.48" y="15.6"> </tspan><tspan x="465.73" y="15.6">Sedgwick</tspan><tspan class="cls-28" x="529.65" y="15.6"> </tspan><tspan class="cls-30" x="532.9" y="15.6">A</tspan><tspan x="542.17" y="15.6">venue</tspan><tspan class="cls-28" x="582.47" y="15.6"> </tspan><tspan x="585.73" y="15.6">in</tspan><tspan class="cls-28" x="597.69" y="15.6"> </tspan><tspan x="600.94" y="15.6">19</tspan><tspan class="cls-31" x="613.94" y="15.6">7</tspan><tspan x="621.04" y="15.6">4.</tspan><tspan class="cls-32" x="632.11" y="15.6"> </tspan><tspan x="635.37" y="15.6">He</tspan><tspan class="cls-28" x="653.5" y="15.6"> </tspan><tspan class="cls-33" x="656.76" y="15.6">t</tspan><tspan x="662.14" y="15.6">ook</tspan><tspan class="cls-28" x="686.64" y="15.6"> </tspan><tspan x="689.9" y="15.6">2</tspan><tspan class="cls-28" x="697.55" y="15.6"> </tspan><tspan x="700.81" y="15.6">instrume</tspan><tspan class="cls-19" x="759.55" y="15.6">n</tspan><tspan x="767.86" y="15.6">tals</tspan><tspan class="cls-28" x="791.06" y="15.6"> </tspan><tspan x="794.32" y="15.6">and </tspan><tspan x="0" y="31.2">isol</tspan><tspan class="cls-27" x="22.18" y="31.2">a</tspan><tspan x="29.73" y="31.2">ted</tspan><tspan class="cls-34" x="51.94" y="31.2"> </tspan><tspan x="56.49" y="31.2">the</tspan><tspan class="cls-34" x="78.36" y="31.2"> </tspan><tspan x="82.92" y="31.2">sections</tspan><tspan class="cls-35" x="137.47" y="31.2"> </tspan><tspan class="cls-36" x="142.03" y="31.2">o</tspan><tspan x="150.4" y="31.2">f</tspan><tspan class="cls-34" x="155.42" y="31.2"> </tspan><tspan x="159.97" y="31.2">pure</tspan><tspan class="cls-34" x="190.3" y="31.2"> </tspan><tspan x="194.86" y="31.2">music</tspan><tspan class="cls-34" x="234.07" y="31.2"> </tspan><tspan x="238.63" y="31.2">and</tspan><tspan class="cls-34" x="263.39" y="31.2"> </tspan><tspan x="267.95" y="31.2">cre</tspan><tspan class="cls-37" x="288.63" y="31.2">a</tspan><tspan x="296.19" y="31.2">ted</tspan><tspan class="cls-34" x="318.39" y="31.2"> </tspan><tspan class="cls-38" x="322.95" y="31.2">T</tspan><tspan class="cls-23" x="330.74" y="31.2">he</tspan><tspan class="cls-39" x="347.17" y="31.2"> </tspan><tspan class="cls-23" x="351.73" y="31.2">Break</tspan><tspan x="389.28" y="31.2">.</tspan><tspan class="cls-34" x="392.92" y="31.2"> </tspan><tspan x="397.48" y="31.2">People</tspan><tspan class="cls-40" x="443.22" y="31.2"> </tspan><tspan class="cls-19" x="447.77" y="31.2">w</tspan><tspan x="459.54" y="31.2">ould</tspan><tspan class="cls-35" x="488.71" y="31.2"> </tspan><tspan x="493.27" y="31.2">dance</tspan><tspan class="cls-40" x="533.56" y="31.2"> </tspan><tspan x="538.11" y="31.2">and</tspan><tspan class="cls-35" x="562.88" y="31.2"> </tspan><tspan x="567.44" y="31.2">spit</tspan><tspan class="cls-40" x="591.75" y="31.2"> </tspan><tspan x="596.31" y="31.2">rhymes</tspan><tspan class="cls-35" x="645.12" y="31.2"> </tspan><tspan class="cls-41" x="649.68" y="31.2">o</tspan><tspan x="658.04" y="31.2">ver</tspan><tspan class="cls-40" x="678.67" y="31.2"> </tspan><tspan x="683.23" y="31.2">the</tspan><tspan class="cls-40" x="705.09" y="31.2"> </tspan><tspan x="709.65" y="31.2">brea</tspan><tspan class="cls-42" x="739.21" y="31.2">k</tspan><tspan x="746.7" y="31.2">s</tspan><tspan class="cls-35" x="753.28" y="31.2"> </tspan><tspan x="757.84" y="31.2">and</tspan><tspan class="cls-40" x="782.6" y="31.2"> </tspan><tspan x="787.16" y="31.2">soon </tspan><tspan x="0" y="46.8">Brea</tspan><tspan class="cls-43" x="30" y="46.8">k</tspan><tspan x="37.19" y="46.8">-dancing and </tspan><tspan class="cls-44" x="127.98" y="46.8">R</tspan><tspan x="137.32" y="46.8">apping </tspan><tspan class="cls-42" x="186.44" y="46.8">w</tspan><tspan x="198.23" y="46.8">as </tspan><tspan class="cls-45" x="216.01" y="46.8">f</tspan><tspan x="220.85" y="46.8">ormed. Check out h</tspan><tspan class="cls-19" x="350.52" y="46.8">o</tspan><tspan x="358.9" y="46.8">w it all we</tspan><tspan class="cls-19" x="425.08" y="46.8">n</tspan><tspan x="433.39" y="46.8">t d</tspan><tspan class="cls-19" x="451.12" y="46.8">o</tspan><tspan x="459.51" y="46.8">wn in the video ab</tspan><tspan class="cls-41" x="580.44" y="46.8">o</tspan><tspan x="588.8" y="46.8">ve.</tspan></text></svg>