<svg id="Layer_1" data-name="Layer 1" xmlns="http://www.w3.org/2000/svg" viewBox="0 0 927.96 454.77"><defs><style>.cls-1{font-size:135.08px;fill:none;stroke:#ca589a;stroke-miterlimit:10;stroke-width:2.59px;font-family:Montserrat-Bold, Montserrat;font-weight:700;}.cls-2{font-size:136.97px;font-family:Skywalker, Skywalker;}.cls-12,.cls-13,.cls-14,.cls-15,.cls-16,.cls-2{fill:#1a1d1c;}.cls-3{letter-spacing:-0.03em;}.cls-4{letter-spacing:-0.01em;}.cls-5{letter-spacing:-0.08em;}.cls-6{font-size:13px;fill:#ca589a;font-family:Montserrat-Regular, Montserrat;}.cls-14,.cls-7{letter-spacing:-0.03em;}.cls-8{letter-spacing:0em;}.cls-9{letter-spacing:0em;}.cls-10{letter-spacing:0em;}.cls-11{letter-spacing:-0.01em;}.cls-12{letter-spacing:0em;}.cls-15{letter-spacing:-0.01em;}.cls-16,.cls-24{letter-spacing:-0.01em;}.cls-17{letter-spacing:-0.01em;}.cls-18{letter-spacing:-0.03em;}.cls-19{letter-spacing:-0.01em;}.cls-20{letter-spacing:0em;}.cls-21{letter-spacing:0.02em;}.cls-22{letter-spacing:0.02em;}.cls-23{letter-spacing:0.02em;}.cls-25{letter-spacing:-0.01em;}.cls-26{letter-spacing:-0.02em;}</style></defs><title>cards</title><text class="cls-1" transform="translate(62.36 143.06)">LIL KIM</text><text class="cls-2" transform="translate(145.56 237.79)"><tspan class="cls-3">T</tspan><tspan class="cls-4" x="64.24" y="0">h</tspan><tspan x="127.52" y="0">e Qu</tspan><tspan class="cls-5" x="394.2" y="0">ee</tspan><tspan x="487.75" y="0">n</tspan></text><text class="cls-6" transform="translate(58.5 348.89)">Going<tspan class="cls-7" x="38.78" y="0"> </tspan><tspan class="cls-8" x="42.01" y="0">t</tspan><tspan x="47.4" y="0">oe</tspan><tspan class="cls-7" x="63.91" y="0"> </tspan><tspan class="cls-9" x="67.14" y="0">t</tspan><tspan x="72.52" y="0">o</tspan><tspan class="cls-7" x="81" y="0"> </tspan><tspan class="cls-8" x="84.23" y="0">t</tspan><tspan x="89.61" y="0">oe</tspan><tspan class="cls-7" x="106.12" y="0"> </tspan><tspan x="109.36" y="0">with</tspan><tspan class="cls-7" x="138.61" y="0"> </tspan><tspan x="141.84" y="0">male</tspan><tspan class="cls-7" x="174.25" y="0"> </tspan><tspan class="cls-10" x="177.48" y="0">r</tspan><tspan x="182.58" y="0">appers,</tspan><tspan class="cls-7" x="231.11" y="0"> </tspan><tspan x="234.34" y="0">Lil</tspan><tspan class="cls-7" x="248.82" y="0"> </tspan><tspan x="252.06" y="0">Kim</tspan><tspan class="cls-7" x="277.95" y="0"> </tspan><tspan x="281.19" y="0">made</tspan><tspan class="cls-7" x="318.77" y="0"> </tspan><tspan x="322" y="0">a</tspan><tspan class="cls-7" x="329.64" y="0"> </tspan><tspan x="332.87" y="0">name</tspan><tspan class="cls-7" x="370.11" y="0"> </tspan><tspan class="cls-11" x="373.35" y="0">f</tspan><tspan x="378.2" y="0">or</tspan><tspan class="cls-7" x="391.83" y="0"> </tspan><tspan x="395.07" y="0">herself</tspan><tspan class="cls-7" x="439.85" y="0"> </tspan><tspan x="443.09" y="0">as</tspan><tspan class="cls-7" x="457.3" y="0"> </tspan><tspan class="cls-12" x="460.53" y="0">T</tspan><tspan class="cls-13" x="468.32" y="0">he</tspan><tspan class="cls-14" x="484.75" y="0"> </tspan><tspan class="cls-13" x="487.98" y="0">Queen</tspan><tspan class="cls-14" x="531.77" y="0"> </tspan><tspan class="cls-15" x="535" y="0">o</tspan><tspan class="cls-13" x="543.37" y="0">f</tspan><tspan class="cls-14" x="548.39" y="0"> </tspan><tspan class="cls-16" x="551.62" y="0">R</tspan><tspan class="cls-13" x="560.96" y="0">ap</tspan><tspan class="cls-7" x="577.32" y="0"> </tspan><tspan x="580.56" y="0">by</tspan><tspan class="cls-7" x="596.76" y="0"> </tspan><tspan x="599.99" y="0">domin</tspan><tspan class="cls-17" x="642.34" y="0">a</tspan><tspan x="649.89" y="0">ting</tspan><tspan class="cls-7" x="675.79" y="0"> </tspan><tspan x="679.02" y="0">the</tspan><tspan class="cls-7" x="700.89" y="0"> </tspan><tspan x="704.12" y="0">field</tspan><tspan class="cls-18" x="733.03" y="0"> </tspan><tspan x="736.27" y="0">and</tspan><tspan class="cls-7" x="761.03" y="0"> </tspan><tspan x="764.27" y="0">bringing </tspan><tspan x="0" y="15.6">hard</tspan><tspan class="cls-19" x="29.93" y="15.6">c</tspan><tspan class="cls-20" x="37.27" y="15.6">ore,</tspan><tspan class="cls-21" x="62.59" y="15.6"> </tspan><tspan class="cls-20" x="66.45" y="15.6">uncut</tspan><tspan class="cls-21" x="104.57" y="15.6"> </tspan><tspan class="cls-20" x="108.43" y="15.6">he</tspan><tspan class="cls-17" x="124.86" y="15.6">a</tspan><tspan x="132.42" y="15.6">vy-hitting</tspan><tspan class="cls-22" x="196.79" y="15.6"> </tspan><tspan x="200.65" y="15.6">bars</tspan><tspan class="cls-23" x="228.76" y="15.6"> </tspan><tspan class="cls-9" x="232.62" y="15.6">t</tspan><tspan x="238" y="15.6">o</tspan><tspan class="cls-23" x="246.48" y="15.6"> </tspan><tspan x="250.34" y="15.6">the</tspan><tspan class="cls-22" x="272.2" y="15.6"> </tspan><tspan x="276.06" y="15.6">game.</tspan><tspan class="cls-23" x="317.05" y="15.6"> </tspan><tspan x="320.91" y="15.6">She</tspan><tspan class="cls-23" x="345.54" y="15.6"> </tspan><tspan class="cls-8" x="349.4" y="15.6">t</tspan><tspan x="354.78" y="15.6">ook</tspan><tspan class="cls-22" x="379.28" y="15.6"> </tspan><tspan class="cls-10" x="383.14" y="15.6">f</tspan><tspan x="388.1" y="15.6">ashion</tspan><tspan class="cls-21" x="431.14" y="15.6"> </tspan><tspan x="435" y="15.6">in</tspan><tspan class="cls-22" x="446.96" y="15.6"> </tspan><tspan class="cls-24" x="450.82" y="15.6">R</tspan><tspan x="460.15" y="15.6">ap</tspan><tspan class="cls-22" x="476.52" y="15.6"> </tspan><tspan class="cls-8" x="480.38" y="15.6">t</tspan><tspan x="485.76" y="15.6">o</tspan><tspan class="cls-21" x="494.24" y="15.6"> </tspan><tspan x="498.1" y="15.6">an</tspan><tspan class="cls-25" x="514.13" y="15.6">o</tspan><tspan x="522.5" y="15.6">ther</tspan><tspan class="cls-22" x="549.52" y="15.6"> </tspan><tspan x="553.38" y="15.6">l</tspan><tspan class="cls-17" x="556.95" y="15.6">e</tspan><tspan x="564.9" y="15.6">vel</tspan><tspan class="cls-21" x="583.93" y="15.6"> </tspan><tspan x="587.79" y="15.6">and</tspan><tspan class="cls-22" x="612.56" y="15.6"> </tspan><tspan x="616.42" y="15.6">s</tspan><tspan class="cls-8" x="623" y="15.6">e</tspan><tspan x="630.98" y="15.6">t</tspan><tspan class="cls-22" x="636.41" y="15.6"> </tspan><tspan x="640.27" y="15.6">the</tspan><tspan class="cls-21" x="662.14" y="15.6"> </tspan><tspan x="666" y="15.6">bar</tspan><tspan class="cls-22" x="687.53" y="15.6"> </tspan><tspan x="691.39" y="15.6">amongst</tspan><tspan class="cls-22" x="749.59" y="15.6"> </tspan><tspan x="753.45" y="15.6">her</tspan><tspan class="cls-21" x="775.04" y="15.6"> </tspan><tspan x="778.9" y="15.6">peers. </tspan><tspan x="0" y="31.2">Her success </tspan><tspan class="cls-10" x="81.56" y="31.2">w</tspan><tspan x="93.35" y="31.2">as</tspan><tspan class="cls-26" x="107.56" y="31.2">n</tspan><tspan x="115.74" y="31.2">’t easy so check out her s</tspan><tspan class="cls-9" x="279.56" y="31.2">t</tspan><tspan x="284.95" y="31.2">ory </tspan><tspan class="cls-8" x="309.61" y="31.2">t</tspan><tspan x="314.99" y="31.2">o see why shes a </tspan><tspan class="cls-24" x="428.86" y="31.2">R</tspan><tspan x="438.19" y="31.2">ap</tspan><tspan class="cls-8" x="454.56" y="31.2">t</tspan><tspan x="459.94" y="31.2">or in Hip Hop</tspan></text></svg>