<svg id="Layer_1" data-name="Layer 1" xmlns="http://www.w3.org/2000/svg" viewBox="0 0 927.96 454.77"><defs><style>.cls-1{font-size:135.08px;fill:none;stroke:#ca589a;stroke-miterlimit:10;stroke-width:2.59px;font-family:Montserrat-Bold, Montserrat;font-weight:700;}.cls-2{font-size:109.95px;font-family:Skywalker, Skywalker;}.cls-2,.cls-42,.cls-43,.cls-44,.cls-45,.cls-46,.cls-47{fill:#1a1d1c;}.cls-3{letter-spacing:-0.05em;}.cls-4{letter-spacing:-0.01em;}.cls-5{letter-spacing:-0.07em;}.cls-6{letter-spacing:-0.08em;}.cls-7,.cls-8{font-size:74.65px;}.cls-7{letter-spacing:-0.1em;}.cls-9{letter-spacing:-0.08em;}.cls-10{letter-spacing:-0.1em;}.cls-11{letter-spacing:-0.1em;}.cls-12{letter-spacing:-0.02em;}.cls-13{letter-spacing:-0.13em;}.cls-14{font-size:13px;fill:#ca589a;font-family:Montserrat-Regular, Montserrat;}.cls-15{letter-spacing:0em;}.cls-16{letter-spacing:0.01em;}.cls-17{letter-spacing:0.01em;}.cls-18{letter-spacing:-0.01em;}.cls-19{letter-spacing:0.01em;}.cls-20{letter-spacing:0em;}.cls-21{letter-spacing:0.01em;}.cls-22{letter-spacing:-0.01em;}.cls-23{letter-spacing:-0.01em;}.cls-24{letter-spacing:0em;}.cls-25{letter-spacing:0em;}.cls-26{letter-spacing:0.01em;}.cls-27{letter-spacing:-0.01em;}.cls-28{letter-spacing:-0.01em;}.cls-29{letter-spacing:0.03em;}.cls-30{letter-spacing:-0.01em;}.cls-31{letter-spacing:-0.01em;}.cls-32,.cls-43{letter-spacing:-0.01em;}.cls-33{letter-spacing:-0.01em;}.cls-34{letter-spacing:0.03em;}.cls-35{letter-spacing:0.03em;}.cls-36{letter-spacing:-0.01em;}.cls-37{letter-spacing:-0.01em;}.cls-38,.cls-45{letter-spacing:-0.02em;}.cls-39,.cls-47{letter-spacing:0em;}.cls-40{letter-spacing:0em;}.cls-41{letter-spacing:-0.02em;}.cls-44{letter-spacing:-0.01em;}.cls-46,.cls-48{letter-spacing:-0.02em;}.cls-49{letter-spacing:-0.01em;}.cls-50{letter-spacing:-0.01em;}.cls-51{letter-spacing:0em;}.cls-52{letter-spacing:-0.01em;}</style></defs><title>cards</title><text class="cls-1" transform="translate(62.34 183.06)">RUN DMC</text><text class="cls-2" transform="translate(145.54 243.62)">K<tspan class="cls-3" x="68.72" y="0">i</tspan><tspan class="cls-4" x="96.2" y="0">n</tspan><tspan class="cls-5" x="158.76" y="0">g</tspan><tspan x="200.22" y="0">s</tspan><tspan class="cls-6" x="258.27" y="0"> </tspan><tspan class="cls-7" x="273.44" y="0">o</tspan><tspan class="cls-8" x="303" y="0">f </tspan><tspan class="cls-9" x="347.05" y="0"> </tspan><tspan x="362.22" y="0">F</tspan><tspan class="cls-10" x="421.04" y="0">a</tspan><tspan class="cls-11" x="466.56" y="0">s</tspan><tspan class="cls-12" x="513.29" y="0">h</tspan><tspan x="563.53" y="0">i</tspan><tspan class="cls-13" x="596.08" y="0">o</tspan><tspan x="635.55" y="0">n </tspan></text><text class="cls-14" transform="translate(58.48 348.89)"><tspan class="cls-15">T</tspan><tspan x="7.79" y="0">hese</tspan><tspan class="cls-16" x="38.83" y="0"> </tspan><tspan x="42.53" y="0">are</tspan><tspan class="cls-17" x="63.36" y="0"> </tspan><tspan x="67.06" y="0">the</tspan><tspan class="cls-16" x="88.92" y="0"> </tspan><tspan x="92.62" y="0">gu</tspan><tspan class="cls-18" x="109.52" y="0">y</tspan><tspan x="116.91" y="0">s</tspan><tspan class="cls-19" x="123.49" y="0"> </tspan><tspan class="cls-20" x="127.19" y="0">th</tspan><tspan class="cls-18" x="141.02" y="0">a</tspan><tspan x="148.57" y="0">t</tspan><tspan class="cls-16" x="154" y="0"> </tspan><tspan x="157.7" y="0">changed</tspan><tspan class="cls-16" x="214.89" y="0"> </tspan><tspan x="218.59" y="0">the</tspan><tspan class="cls-17" x="240.46" y="0"> </tspan><tspan x="244.16" y="0">game,</tspan><tspan class="cls-16" x="285.16" y="0"> </tspan><tspan x="288.86" y="0">birthing</tspan><tspan class="cls-17" x="340.61" y="0"> </tspan><tspan x="344.31" y="0">a</tspan><tspan class="cls-16" x="351.94" y="0"> </tspan><tspan x="355.64" y="0">new</tspan><tspan class="cls-17" x="383.93" y="0"> </tspan><tspan x="387.63" y="0">sound</tspan><tspan class="cls-21" x="428.22" y="0"> </tspan><tspan x="431.92" y="0">in</tspan><tspan class="cls-17" x="443.88" y="0"> </tspan><tspan x="447.58" y="0">Hip</tspan><tspan class="cls-17" x="469.98" y="0"> </tspan><tspan x="473.67" y="0">Hop</tspan><tspan class="cls-17" x="500.99" y="0"> </tspan><tspan x="504.69" y="0">and</tspan><tspan class="cls-21" x="529.45" y="0"> </tspan><tspan class="cls-22" x="533.15" y="0">e</tspan><tspan x="541.04" y="0">xposing</tspan><tspan class="cls-17" x="592.55" y="0"> </tspan><tspan x="596.25" y="0">the</tspan><tspan class="cls-17" x="618.11" y="0"> </tspan><tspan class="cls-23" x="621.81" y="0">w</tspan><tspan x="633.58" y="0">orld</tspan><tspan class="cls-17" x="659.51" y="0"> </tspan><tspan class="cls-24" x="663.21" y="0">t</tspan><tspan class="cls-25" x="668.59" y="0">o</tspan><tspan class="cls-26" x="677.07" y="0"> </tspan><tspan class="cls-27" x="680.77" y="0">R</tspan><tspan x="690.1" y="0">ap</tspan><tspan class="cls-17" x="706.47" y="0"> </tspan><tspan x="710.17" y="0">music,</tspan><tspan class="cls-17" x="753.03" y="0"> </tspan><tspan class="cls-28" x="756.73" y="0">R</tspan><tspan x="766.08" y="0">un</tspan><tspan class="cls-21" x="782.87" y="0"> </tspan><tspan x="786.57" y="0">DMC </tspan><tspan x="0" y="15.6">are</tspan><tspan class="cls-29" x="20.83" y="15.6"> </tspan><tspan x="24.72" y="15.6">one</tspan><tspan class="cls-29" x="49.63" y="15.6"> </tspan><tspan class="cls-30" x="53.53" y="15.6">o</tspan><tspan x="61.9" y="15.6">f</tspan><tspan class="cls-29" x="66.92" y="15.6"> </tspan><tspan x="70.82" y="15.6">the</tspan><tspan class="cls-29" x="92.68" y="15.6"> </tspan><tspan x="96.58" y="15.6">most</tspan><tspan class="cls-29" x="130.25" y="15.6"> </tspan><tspan x="134.15" y="15.6">legendary</tspan><tspan class="cls-29" x="199.67" y="15.6"> </tspan><tspan x="203.56" y="15.6">g</tspan><tspan class="cls-31" x="212.07" y="15.6">r</tspan><tspan x="217.1" y="15.6">oups</tspan><tspan class="cls-29" x="249.29" y="15.6"> </tspan><tspan class="cls-24" x="253.18" y="15.6">t</tspan><tspan x="258.57" y="15.6">o</tspan><tspan class="cls-29" x="267.04" y="15.6"> </tspan><tspan class="cls-32" x="270.94" y="15.6">e</tspan><tspan x="278.9" y="15.6">ver</tspan><tspan class="cls-29" x="299.53" y="15.6"> </tspan><tspan x="303.42" y="15.6">step</tspan><tspan class="cls-29" x="332.21" y="15.6"> </tspan><tspan class="cls-33" x="336.1" y="15.6">f</tspan><tspan x="340.95" y="15.6">o</tspan><tspan class="cls-30" x="349.43" y="15.6">o</tspan><tspan x="357.8" y="15.6">t</tspan><tspan class="cls-29" x="363.23" y="15.6"> </tspan><tspan x="367.13" y="15.6">in</tspan><tspan class="cls-34" x="379.09" y="15.6"> </tspan><tspan x="382.99" y="15.6">the</tspan><tspan class="cls-29" x="404.86" y="15.6"> </tspan><tspan x="408.75" y="15.6">game.</tspan><tspan class="cls-35" x="449.74" y="15.6"> </tspan><tspan class="cls-36" x="453.64" y="15.6">T</tspan><tspan x="461.42" y="15.6">he</tspan><tspan class="cls-34" x="477.86" y="15.6"> </tspan><tspan x="481.75" y="15.6">trio</tspan><tspan class="cls-35" x="504.39" y="15.6"> </tspan><tspan x="508.28" y="15.6">s</tspan><tspan class="cls-24" x="514.86" y="15.6">t</tspan><tspan x="520.24" y="15.6">ormed</tspan><tspan class="cls-34" x="563.83" y="15.6"> </tspan><tspan x="567.73" y="15.6">Hip</tspan><tspan class="cls-35" x="590.13" y="15.6"> </tspan><tspan x="594.02" y="15.6">Hop</tspan><tspan class="cls-34" x="621.34" y="15.6"> </tspan><tspan class="cls-33" x="625.23" y="15.6">f</tspan><tspan x="630.08" y="15.6">or</tspan><tspan class="cls-35" x="643.72" y="15.6"> </tspan><tspan x="647.62" y="15.6">years</tspan><tspan class="cls-34" x="682.48" y="15.6"> </tspan><tspan x="686.38" y="15.6">and</tspan><tspan class="cls-35" x="711.14" y="15.6"> </tspan><tspan x="715.04" y="15.6">led</tspan><tspan class="cls-34" x="735.37" y="15.6"> </tspan><tspan x="739.27" y="15.6">all</tspan><tspan class="cls-35" x="754.02" y="15.6"> </tspan><tspan x="757.92" y="15.6">the</tspan><tspan class="cls-35" x="779.79" y="15.6"> </tspan><tspan class="cls-37" x="783.68" y="15.6">o</tspan><tspan x="792.05" y="15.6">ther </tspan><tspan class="cls-15" x="0" y="31.2">r</tspan><tspan x="5.1" y="31.2">appers</tspan><tspan class="cls-38" x="49.97" y="31.2"> </tspan><tspan class="cls-24" x="53.33" y="31.2">t</tspan><tspan x="58.71" y="31.2">o</tspan><tspan class="cls-38" x="67.19" y="31.2"> </tspan><tspan class="cls-33" x="70.55" y="31.2">f</tspan><tspan x="75.4" y="31.2">oll</tspan><tspan class="cls-23" x="91" y="31.2">o</tspan><tspan x="99.38" y="31.2">w</tspan><tspan class="cls-38" x="111.24" y="31.2"> </tspan><tspan x="114.6" y="31.2">in</tspan><tspan class="cls-38" x="126.56" y="31.2"> </tspan><tspan x="129.92" y="31.2">their</tspan><tspan class="cls-38" x="160.51" y="31.2"> </tspan><tspan class="cls-33" x="163.87" y="31.2">f</tspan><tspan x="168.71" y="31.2">o</tspan><tspan class="cls-30" x="177.19" y="31.2">o</tspan><tspan x="185.56" y="31.2">tsteps.</tspan><tspan class="cls-38" x="230" y="31.2"> </tspan><tspan class="cls-39" x="233.36" y="31.2">T</tspan><tspan class="cls-40" x="241.14" y="31.2">h</tspan><tspan class="cls-18" x="249.54" y="31.2">e</tspan><tspan x="257.5" y="31.2">y</tspan><tspan class="cls-41" x="264.96" y="31.2"> </tspan><tspan class="cls-42" x="268.32" y="31.2">r</tspan><tspan class="cls-43" x="273.48" y="31.2">e</tspan><tspan class="cls-44" x="281.44" y="31.2">v</tspan><tspan class="cls-42" x="288.75" y="31.2">olutionized</tspan><tspan class="cls-45" x="362.43" y="31.2"> </tspan><tspan class="cls-42" x="365.79" y="31.2">Hip</tspan><tspan class="cls-45" x="388.18" y="31.2"> </tspan><tspan class="cls-42" x="391.54" y="31.2">Hop</tspan><tspan class="cls-46" x="418.86" y="31.2"> </tspan><tspan class="cls-47" x="422.22" y="31.2">f</tspan><tspan class="cls-42" x="427.17" y="31.2">ashion</tspan><tspan class="cls-41" x="470.21" y="31.2"> </tspan><tspan x="473.57" y="31.2">with</tspan><tspan class="cls-48" x="502.82" y="31.2"> </tspan><tspan x="506.18" y="31.2">their</tspan><tspan class="cls-41" x="536.77" y="31.2"> </tspan><tspan x="540.12" y="31.2">i</tspan><tspan class="cls-49" x="543.69" y="31.2">c</tspan><tspan x="551.03" y="31.2">onic</tspan><tspan class="cls-48" x="578.95" y="31.2"> </tspan><tspan x="582.31" y="31.2">stre</tspan><tspan class="cls-24" x="607.52" y="31.2">e</tspan><tspan x="615.5" y="31.2">t</tspan><tspan class="cls-41" x="620.94" y="31.2"> </tspan><tspan x="624.3" y="31.2">wear</tspan><tspan class="cls-48" x="656.98" y="31.2"> </tspan><tspan x="660.34" y="31.2">and</tspan><tspan class="cls-41" x="685.1" y="31.2"> </tspan><tspan x="688.46" y="31.2">changed</tspan><tspan class="cls-48" x="745.65" y="31.2"> </tspan><tspan x="749.01" y="31.2">the</tspan><tspan class="cls-41" x="770.87" y="31.2"> </tspan><tspan class="cls-39" x="774.23" y="31.2">f</tspan><tspan x="779.18" y="31.2">ace</tspan><tspan class="cls-48" x="802.34" y="31.2"> </tspan><tspan class="cls-50" x="805.7" y="31.2">o</tspan><tspan x="814.07" y="31.2">f </tspan><tspan x="0" y="46.8">Hip Hop </tspan><tspan class="cls-33" x="56.84" y="46.8">f</tspan><tspan x="61.69" y="46.8">or</tspan><tspan class="cls-18" x="75.32" y="46.8">e</tspan><tspan x="83.28" y="46.8">ver, Check out their s</tspan><tspan class="cls-51" x="222.33" y="46.8">t</tspan><tspan x="227.71" y="46.8">ory and i</tspan><tspan class="cls-22" x="284.26" y="46.8">c</tspan><tspan x="291.6" y="46.8">onic impact ab</tspan><tspan class="cls-52" x="389.05" y="46.8">o</tspan><tspan x="397.41" y="46.8">ve. </tspan></text></svg>