<svg id="Layer_1" data-name="Layer 1" xmlns="http://www.w3.org/2000/svg" viewBox="0 0 927.96 454.77"><defs><style>.cls-1{font-size:107.11px;fill:none;stroke:#ca589a;stroke-miterlimit:10;stroke-width:2.06px;font-family:Montserrat-Bold, Montserrat;font-weight:700;}.cls-2{letter-spacing:-0.01em;}.cls-3{font-size:136.97px;font-family:Skywalker, Skywalker;}.cls-17,.cls-18,.cls-19,.cls-20,.cls-21,.cls-22,.cls-3{fill:#1a1d1c;}.cls-4{letter-spacing:-0.03em;}.cls-5{letter-spacing:-0.01em;}.cls-6{letter-spacing:-0.03em;}.cls-7{letter-spacing:-0.08em;}.cls-8{letter-spacing:0.09em;}.cls-9{letter-spacing:0.03em;}.cls-10{font-size:13px;fill:#ca589a;font-family:Montserrat-Regular, Montserrat;}.cls-11,.cls-17{letter-spacing:-0.01em;}.cls-12{letter-spacing:-0.03em;}.cls-13,.cls-21{letter-spacing:-0.03em;}.cls-14{letter-spacing:0em;}.cls-15{letter-spacing:-0.01em;}.cls-16{letter-spacing:-0.01em;}.cls-19{letter-spacing:-0.02em;}.cls-20,.cls-24{letter-spacing:-0.03em;}.cls-22{letter-spacing:-0.04em;}.cls-23{letter-spacing:-0.02em;}.cls-25{letter-spacing:-0.01em;}.cls-26{letter-spacing:-0.01em;}.cls-27{letter-spacing:0.02em;}.cls-28{letter-spacing:0.02em;}.cls-29{letter-spacing:0em;}.cls-30{letter-spacing:0em;}.cls-31{letter-spacing:0.02em;}.cls-32{letter-spacing:0em;}.cls-33{letter-spacing:0.02em;}.cls-34{letter-spacing:-0.01em;}.cls-35{letter-spacing:0em;}.cls-36{letter-spacing:0.02em;}.cls-37{letter-spacing:-0.01em;}.cls-38{letter-spacing:-0.01em;}</style></defs><title>cards</title><text class="cls-1" transform="translate(62.36 151.31)">SN<tspan class="cls-2" x="153.16" y="0">O</tspan><tspan x="237.99" y="0">OP </tspan><tspan class="cls-2" x="421.89" y="0">DO</tspan><tspan x="587.48" y="0">GG</tspan></text><text class="cls-3" transform="translate(219.57 238.79)"><tspan class="cls-4">T</tspan><tspan class="cls-5" x="64.24" y="0">h</tspan><tspan x="127.52" y="0">e </tspan><tspan class="cls-6" x="208.88" y="0">S</tspan><tspan class="cls-7" x="278.73" y="0">m</tspan><tspan x="371.87" y="0">o</tspan><tspan class="cls-8" x="439.26" y="0">k</tspan><tspan class="cls-9" x="501.72" y="0">e</tspan><tspan x="557.87" y="0">r</tspan></text><text class="cls-10" transform="translate(58.5 348.89)">P<tspan class="cls-11" x="8.89" y="0">r</tspan><tspan x="13.92" y="0">obably</tspan><tspan class="cls-12" x="58.53" y="0"> </tspan><tspan x="61.72" y="0">the</tspan><tspan class="cls-12" x="83.59" y="0"> </tspan><tspan x="86.79" y="0">most</tspan><tspan class="cls-13" x="120.46" y="0"> </tspan><tspan x="123.66" y="0">chill</tspan><tspan class="cls-12" x="150.23" y="0"> </tspan><tspan class="cls-14" x="153.43" y="0">r</tspan><tspan x="158.52" y="0">apper</tspan><tspan class="cls-12" x="196.82" y="0"> </tspan><tspan class="cls-15" x="200.02" y="0">o</tspan><tspan x="208.39" y="0">f</tspan><tspan class="cls-12" x="213.41" y="0"> </tspan><tspan x="216.61" y="0">all</tspan><tspan class="cls-13" x="231.36" y="0"> </tspan><tspan x="234.56" y="0">time,</tspan><tspan class="cls-12" x="268.42" y="0"> </tspan><tspan class="cls-16" x="271.62" y="0">S</tspan><tspan x="279.73" y="0">noop</tspan><tspan class="cls-12" x="313.82" y="0"> </tspan><tspan x="317.02" y="0">Dogg</tspan><tspan class="cls-12" x="352.66" y="0"> </tspan><tspan x="355.86" y="0">is</tspan><tspan class="cls-13" x="366" y="0"> </tspan><tspan class="cls-17" x="369.2" y="0">R</tspan><tspan class="cls-18" x="378.53" y="0">ap</tspan><tspan class="cls-19" x="394.9" y="0">’</tspan><tspan class="cls-18" x="397.41" y="0">s</tspan><tspan class="cls-20" x="403.99" y="0"> </tspan><tspan class="cls-18" x="407.19" y="0">biggest</tspan><tspan class="cls-21" x="456.53" y="0"> </tspan><tspan class="cls-18" x="459.73" y="0">smoke</tspan><tspan class="cls-22" x="503.55" y="0">r</tspan><tspan x="508.13" y="0">.</tspan><tspan class="cls-13" x="511.77" y="0"> </tspan><tspan class="cls-23" x="514.97" y="0">C</tspan><tspan x="524.34" y="0">oming</tspan><tspan class="cls-24" x="566.46" y="0"> </tspan><tspan x="569.66" y="0">outta</tspan><tspan class="cls-13" x="605.03" y="0"> </tspan><tspan x="608.23" y="0">the</tspan><tspan class="cls-24" x="630.09" y="0"> </tspan><tspan x="633.29" y="0">West</tspan><tspan class="cls-13" x="666.96" y="0"> </tspan><tspan class="cls-23" x="670.16" y="0">C</tspan><tspan x="679.53" y="0">oast,</tspan><tspan class="cls-24" x="711.3" y="0"> </tspan><tspan class="cls-25" x="714.5" y="0">S</tspan><tspan x="722.61" y="0">noop</tspan><tspan class="cls-13" x="756.7" y="0"> </tspan><tspan x="759.89" y="0">brings</tspan><tspan class="cls-13" x="800.83" y="0"> </tspan><tspan x="804.03" y="0">so </tspan><tspan x="0" y="15.6">ma</tspan><tspan class="cls-26" x="20.81" y="15.6">n</tspan><tspan x="29.12" y="15.6">y</tspan><tspan class="cls-27" x="36.58" y="15.6"> </tspan><tspan x="40.42" y="15.6">differe</tspan><tspan class="cls-26" x="83.99" y="15.6">n</tspan><tspan x="92.29" y="15.6">t</tspan><tspan class="cls-27" x="97.73" y="15.6"> </tspan><tspan x="101.57" y="15.6">aspects</tspan><tspan class="cls-28" x="152.05" y="15.6"> </tspan><tspan class="cls-29" x="155.89" y="15.6">t</tspan><tspan x="161.27" y="15.6">o</tspan><tspan class="cls-27" x="169.75" y="15.6"> </tspan><tspan x="173.59" y="15.6">the</tspan><tspan class="cls-27" x="195.45" y="15.6"> </tspan><tspan x="199.3" y="15.6">game,</tspan><tspan class="cls-27" x="240.3" y="15.6"> </tspan><tspan x="244.14" y="15.6">wh</tspan><tspan class="cls-30" x="264.39" y="15.6">e</tspan><tspan x="272.38" y="15.6">ther</tspan><tspan class="cls-28" x="299.4" y="15.6"> </tspan><tspan x="303.24" y="15.6">its</tspan><tspan class="cls-27" x="318.82" y="15.6"> </tspan><tspan x="322.66" y="15.6">Weed,</tspan><tspan class="cls-27" x="364.74" y="15.6"> </tspan><tspan x="368.58" y="15.6">Pimping</tspan><tspan class="cls-31" x="423.42" y="15.6"> </tspan><tspan class="cls-32" x="427.26" y="15.6">or</tspan><tspan class="cls-33" x="440.89" y="15.6"> </tspan><tspan x="444.73" y="15.6">Cali</tspan><tspan class="cls-34" x="469.06" y="15.6">f</tspan><tspan class="cls-35" x="473.9" y="15.6">ornia</tspan><tspan class="cls-33" x="507.13" y="15.6"> </tspan><tspan class="cls-35" x="510.97" y="15.6">Lifestyle,</tspan><tspan class="cls-33" x="569.67" y="15.6"> </tspan><tspan class="cls-25" x="573.51" y="15.6">S</tspan><tspan x="581.62" y="15.6">noop</tspan><tspan class="cls-31" x="615.71" y="15.6"> </tspan><tspan class="cls-32" x="619.55" y="15.6">has</tspan><tspan class="cls-31" x="642.15" y="15.6"> </tspan><tspan x="645.99" y="15.6">done</tspan><tspan class="cls-36" x="679.64" y="15.6"> </tspan><tspan class="cls-35" x="683.48" y="15.6">it</tspan><tspan class="cls-33" x="692.47" y="15.6"> </tspan><tspan x="696.32" y="15.6">all</tspan><tspan class="cls-31" x="711.07" y="15.6"> </tspan><tspan x="714.91" y="15.6">and</tspan><tspan class="cls-31" x="739.68" y="15.6"> </tspan><tspan class="cls-32" x="743.52" y="15.6">his</tspan><tspan class="cls-33" x="762.05" y="15.6"> </tspan><tspan x="765.89" y="15.6">music</tspan><tspan class="cls-33" x="805.1" y="15.6"> </tspan><tspan class="cls-35" x="808.94" y="15.6">is </tspan><tspan x="0" y="31.2">filled with it. </tspan><tspan class="cls-26" x="85.05" y="31.2">I</tspan><tspan x="89.01" y="31.2">f </tspan><tspan class="cls-37" x="97.59" y="31.2">y</tspan><tspan x="104.94" y="31.2">ou’re a smoker, </tspan><tspan class="cls-38" x="208.78" y="31.2">y</tspan><tspan x="216.13" y="31.2">ou’ll like </tspan><tspan class="cls-16" x="272.78" y="31.2">S</tspan><tspan x="280.89" y="31.2">noop. Check him out. </tspan></text></svg>