<svg id="Layer_1_copy" data-name="Layer 1 copy" xmlns="http://www.w3.org/2000/svg" viewBox="0 0 1920 1080"><defs><style>.cls-1{fill:#fff;}.cls-2{fill:#ca589a;}.cls-3{fill:#73c1e5;}</style></defs><title>videoposter</title><rect class="cls-1" width="1920" height="1080"/><path class="cls-2" d="M998.45,587.82c-5.9,65-11.53,130.24-8.15,195.22,5.34-32.35,10.68-64.7,16-97.33,3.09-18.84,2.25-37.69,2.25-56.54,0-30.94-9.28-28.13-7.6-35.72"/><path class="cls-2" d="M935.44,758.29c-1.4-38.82-2.53-77.64-3.94-116.46-.84-22.5-1.4-38.82-7.31-63-7.88,23.35-8.16,45.29-8.72,72.57-.56,26.73,4.78,54.58,10.41,80.18,3.37,15.47,7.31,31.22,11.25,46.41a84.93,84.93,0,0,0-4.5-41.07"/><path class="cls-2" d="M1030,306c2-.85,24.47-11.82,17.16-16.88h-.56c-3.1-1.69-11-1.12-14.07-.56-6.75,1.12-14.06,4.5-20.82,5.62-13.5,3.38-27.56,5.35-40.5,8.72a277.22,277.22,0,0,0-43,14.63c-2.25.85-4.78,2-7,3.1a34.25,34.25,0,0,1-1.69-3.1c-17.44-25-49.79-14.63-72-4.78-19.12,8.44-46.69,19.69-65,34.32a6,6,0,0,0-2.53,2.81c-.56,2,1.41,3.66,3.1,3.66,3.37.84,41.07-6.19,41.63-8.16-1.13,9.28-4.5,18.57-4.78,27.57a275.56,275.56,0,0,1-3.1,37.41c-1.12,10.69-2,21.38-2.25,32.07-5.34,2-10.12,4.22-16,5.34a20.86,20.86,0,0,1-5.63.57c0-7.32-2-15.19-2.81-22.23-2-15.75-5.06-30.38-7.31-45.57-1.13-7.31-2.25-14.62-3.66-22.22-1.69-8.16-2.25-20.53-11.25-24.75-3.94-2-10.13-1.41-12.94,2a20,20,0,0,0-3.38,5.07c-2.81,5.34-5.06,10.69-7.87,15.75-1.41,2.53-2.82,5.06-3.1,7.31a42.41,42.41,0,0,0-1.41,8.16c-.84,9-3.09,18.29-5.34,27.29-2,7.31-2.25,14.63-2.81,21.94a61,61,0,0,0-4.5,13.22c-2.54,9.57-2,19.13-3.66,30.38-1.41,9-.56,18.29-7.88,24.76-2.53,2.81-6.75,4.78-9.84,6.47a87.44,87.44,0,0,0-10.13,6.47c-2.81-5.07-4.78-10.13-7.59-15.48-6.19-12.09-12.94-24.47-14.63-37.13,3.37-5.34,7-10.41,9.56-15.47,8.44-10.13,16.88-20.25,24.47-30.94,3.94-5.91,8.73-12.1,11.54-18.57.56-1.4.84-2.53,1.4-3.94C728.4,369,743.31,349,737.41,335.21a7.6,7.6,0,0,0-3.38-4.78c-12.38-9.84-39.94,2.53-53.45,7.32-20.53,7.31-40.22,15.75-60.19,23.91A33.14,33.14,0,0,0,614.2,365a223.79,223.79,0,0,0-22.51,9.57,4.1,4.1,0,0,0-2.53,1.68c-.56,1.13,1.13,2.82,2.53,3.1,1.69.28,13.79.28,23.07-.57,1.12,3.38.84,7,.56,10.41-2,13.79-2.81,28.13-2.53,47,.28,36.29-11.25,77.36,4.78,112.52a189.37,189.37,0,0,0,6.75,33.76,16.68,16.68,0,0,0,2.54,5.62c1.68,1.41,3.65,2.82,5.62,2.53a7,7,0,0,0,3.66-4.78c5.06-12.94,6.75-25.32,6.75-38,.56-11,2.53-20.82,3.09-31.79a151.81,151.81,0,0,0,1.13-16.32,18.31,18.31,0,0,1,1.69-3.37c2.53,2.81,5.06,5.34,7.31,7.59a116.86,116.86,0,0,1,13.22,15.48,1,1,0,0,1,.28.56,8,8,0,0,0-2.25,3.94,4.83,4.83,0,0,0,4.78-.57c3.1,4.22,6.19,8.44,9,12.66,9,11.82,17.72,23.63,26.44,35.73-1.69,6.75-3.38,13.5-4.78,20.25-1.13,4.5,5.62,6.75,7.31,2.53s3.38-8.72,4.78-12.94l23.63,32.91c3.66,5.07,7,9.85,10.69,14.35,5.06,7.31,10.69,14.35,15.47,21.1,4.5,5.91,11,14.06,17.72,22.78.85,6.75,2,13.51,2.82,20.26,1.12,9,1.69,17.16,4.78,25.31,2.53,5.91,12.38,9,15.47,1.69a65.25,65.25,0,0,0,3.94-13.22c3.94,4.78,7.59,9.28,10.41,12.66a24,24,0,0,0,3.94,3.66c2,.56,3.93.56,5.06-.85,2-2.53-.56-5.62-2.53-8.16a68,68,0,0,1-8.16-9.84c-2.53-4.22-18.85-28.41-21.38-32.07a87.39,87.39,0,0,0-8.16-11.53c-25.31-33.48-42.19-73.42-62.73-110.83,1.69-4.79,3.66-9.29,5.63-14.07,3.66-9.85,8.16-19.41,11.25-29.82a41.29,41.29,0,0,0,3.1-11.53,4,4,0,0,1,2-.56,29.85,29.85,0,0,0,7-2.25,2.52,2.52,0,0,1,.28,1.4c.28,2.82-.56,5.35-.85,7.88v.28l-.84,5.06v1.41c.28,1.41.56,2.53,2.25,3.38a3.31,3.31,0,0,0,4.78-2.25,21.54,21.54,0,0,0-.56-8.44c-.28-1.41-.56-2.54-.84-3.94a49.89,49.89,0,0,1,0-6.47c2.25-1.13,4.22-2,6.75-3.1,1.69-.56,3.09-1.4,4.78-2,1.69,12.09,3.66,24.19,5.63,36,2.53,15.75.56,32.07,1.12,48.39.56,15.47,1.13,30.66,1.69,46.69.28,7.6.28,14.91.56,22.51,5.91,7.31,18.57,22.5,31.23,39.38a54.43,54.43,0,0,1,.28-6.75c.56-17.16-1.69-34-3.66-50.92-1.69-17.16-3.94-34-6.19-50.63C799,553.78,794,538,793.39,521.72c-.29-14.63.28-30.38-1.41-46.42a27,27,0,0,1,4.22-3.09c5.34-3.66,11.81-7.6,17.16-12.1-.28,7.6-.28,15.47-.28,23.35,0,13.5,0,26.16.56,39.38.56,13.78,2.53,27,2,40.23v38.82c-.56,7.31-.56,13.78-.56,21.09.56,4.22,2,32.63,11.25,28.41,2.53-1.4,3.09-5.06,3.65-8.15,8.44-51.2,14.63-103.52,16-155.56,11.25-16,18.28-34,29.53-50.07q8.44-11.82,16.88-24.48c.85,2.82,1.41,5.63,2,8.44.28,2,.56,4.22.85,6.19.28,3.38.56,6.75,1.12,10.13l.84,8.44c.29,11.81.57,23.34.57,34.88,0,12.09.84,24.19-1.41,36-.56,3.94-1.12,7.88-1.69,11.54a6.64,6.64,0,0,0,2.25,6.75,4.84,4.84,0,0,0,5.35,1.41c.56-.29,1.12-.29,1.69-.57a4.35,4.35,0,0,0,2.81-3.37A18.67,18.67,0,0,0,907,529a69.25,69.25,0,0,0-1.12-10.69c-.85-4.5-1.69-9-1.41-13.78a59.05,59.05,0,0,0,0-7v-63c0-5.34.84-11,1.12-16.31v-.57c.57-3.93,1.13-7.59,1.69-11.53.56-4.22.85-8.44,1.13-12.66a52.14,52.14,0,0,1,1.12-6.47c4.22-7,9-14.34,12.1-21.94,1.4-4.22,3.09-8.72,4.22-12.94l.84-4.22c6.19-2.25,12.66-4.5,18.85-6.75,1.69,26.16,2.81,52.6,4.5,78.76,6.75,102.4.56,205.64,3.38,307.75,0,2.81.28,5.62.28,8.44a3.83,3.83,0,0,1,3.93,3.93,252.47,252.47,0,0,0,.29,35.73c.56,2.81,1.12,5.91,2,8.72s2,5.91,3.94,7.59c2.82-25,5.35-50.07,8.16-75.1,1.13,2.53,2,3.94,2.25,1.69,4.5-45.29,2.25-95.65,1.41-144.31V536.06c0-3.94,0-7.59.28-11.53.28-9.57.28-19.69.56-29.26.28-27.56,1.13-56,1.41-83.82.56-27,3.66-54.3,2.81-81.58C997.33,323.68,1013.92,315.24,1030,306ZM651.05,426.64s-1.69-32.35-.28-48.95c.28-1.69.28-3.94,2.25-5.63a14.7,14.7,0,0,1,5.06-2.81c8.72-3.66,17.44-7.59,25.6-11.81,9.84-5.07,22.22-5.35,19.41,7-1.41,5.06-5.63,9.56-8.72,13.5-2.53,3.1-4.78,5.91-7,9-4.51,6.19-8.73,12.38-13.79,17.72C667.64,412,651.05,426.64,651.05,426.64Zm52.32,86.92A87.54,87.54,0,0,0,716,507.65a.55.55,0,0,1,.56-.56c-.56,7.87-.56,15.75-1.12,22.78V531C711.81,525.37,707.59,519.47,703.37,513.56Zm52.88-55.7a4,4,0,0,1-3.09,1.41c-.56-.57-.56-2-.84-3.94,1.12-6.75,2.25-12.94,1.68-19.41-.28-3.1-1.4-6.47-1.12-9-.28-2.25.28-4.5,0-6.75,1.4-9.85,3.09-19.13,5.06-28.7,2.81,9.85,1.69,20.54,2.53,31.51,0,5.06,1.41,10.13,1.69,15.19a26.52,26.52,0,0,0,2.53,13.22v.84Zm125.18-87.2c-.56.56-.56,1.69-1.12,2.25-2.53,3.37-5.63,6.75-8.16,11s-4.22,9.84-6.19,14.63c-5.06,10.12-14.35,17.44-16.88,29,1.41-15.75,2.53-32.07,1.41-47.54,0-3.66-4.78-43-6.19-42.19,6.75-2.26,13.22-4.22,19.41-6.19,6.19-1.69,12.94-3.38,18,.84,3.66,3.09,5.07,8.44,5.63,13.5C888.46,354.06,885.93,363.34,881.43,370.66ZM1328.14,434a15.59,15.59,0,0,0-11.82-8.72c-4.22-.56-8.16,0-12.37.56-9.85,2-19.7,3.94-29.54,7.32-11.25,3.65-13.79.84-6.75-7.32,9.84-11.53,18.56-21.66,26.44-31.78,2.53.56,3.09,3.09,3.09,4.78a28,28,0,0,0,1.69,12.37c.56,1.69,1.69,3.38,2,5.07.56.28.56.84,1.13,1.12a3.55,3.55,0,0,0,1.68.28c11-1.4,11.54-15.47,12.38-20,1.69-8.72,1.69-17.72-.56-29.53a9,9,0,0,0-2.53-6.47c-2.53-3.1-6.75-3.94-10.41-3.66s-6.75,1.69-9.85,3.09q-26.58,13.08-38.82,32.92c-2.53,3.65-4.78,7.59-7.31,11.81-6.75,10.69-17.16,21.1-21.66,36.85-2.53,9.28-9.85,30.94,2,38a7.46,7.46,0,0,0,4.78,1.4c20.82,2,32.07-17.72,49.79-25a12.13,12.13,0,0,1,8.16-1.41c11.81,3.94.56,45.57-1.69,53.17-6.75,22.22-14.91,43.88-22.5,65.54-7-7.32-13.51-14.35-19.69-21.94a185,185,0,0,1-18.57-23.07c-5.63-7.31-11.81-15.19-17.72-23.35a480.32,480.32,0,0,1-25.32-41.63,42.44,42.44,0,0,0-5.06-7.88c4.22-7.31,7.87-13.5,12.37-19.12,11-13.23,22.23-25,32.64-35.73,4.78-4.78,9.84-9.56,13.5-14.35a53.93,53.93,0,0,0,4.22-7.87c2.53-6.75.56-15.47-4.22-23.63-.56-1.41-1.69-2.53-2-3.38-16.6-23.91-46.13-28.13-72.58-27.56-19.69.28-40.5,1.4-57.94,11.53a1,1,0,0,0-.57.28c-5.9-14.63-16.31-26.16-33.75-27.85H1066c-15.48-5.06-34-.28-46.14,9.57-8.72,7-12.94,19.69-14.91,31.78-2.53,15.19-4.22,30.95-3.94,46.14,0,15.19,2.54,30.66,2.82,45.85,0,16.88,0,33.47.56,49.23,1.13,30.66,4.5,63,11,92.82a61.29,61.29,0,0,0,5.63,17.16c0,4.22-1.69,10.41-1.13,13.22a33.25,33.25,0,0,0,1.69,7.6,8.78,8.78,0,0,0,8.72,5.91c.84,0,1.69-.57,2.53-.57,1.69-.28,3.1-1.4,4.5-2.25,1.69-1.4,3.38-2.81,5.35-4.22.28-.28.84-.56,1.12-.84a36.09,36.09,0,0,0,5.63.28,7.62,7.62,0,0,1,2.25,2c1.69,2.25,2,5.06,2.53,7.6.56,3.09.28,6.18.56,9,.28,3.65-.28,7,.57,10.69a41.7,41.7,0,0,1,.28,5.9v8.72a5.51,5.51,0,0,1,0,4.22v3.38c-.28,3.94,0,8.16-1.13,12.1v1.12c-.28,3.38-.84,6.75-1.12,10.41v.56a24.85,24.85,0,0,0-.57,4.5v8.16a6.94,6.94,0,0,0,2.82,5.63c1.4,1.12,2.81,2,4.5,1.68a10,10,0,0,0,3.94-1.68,11.32,11.32,0,0,0,2.81-5.07,19.44,19.44,0,0,0,.56-7c-.56-3.94-1.4-7.59-1.4-11.53v-.57c-.29-2.81-.57-5.34-.85-8.15a39.85,39.85,0,0,1-.28-5.63c0-2.25-.28-4.22-.28-6.47a21.39,21.39,0,0,0-.28-4.22v-1.12a14.06,14.06,0,0,0,.28-5.91c0-.85-.28-1.69,0-2.25.56-1.13.28-2.53.56-3.66a30.53,30.53,0,0,0,0-5.06,2.13,2.13,0,0,1,.28-1.41v-5.62c.28-3.38.28-6.47.57-9.85a71.44,71.44,0,0,1,1.12-7.6V623c.56-2,.84-3.93,1.41-5.9a24,24,0,0,1,1.12-4.79,38.24,38.24,0,0,1,2-5.06,27.21,27.21,0,0,0,4.22-6.75l.28-.28h0a61.91,61.91,0,0,0,5.07-12.94c3.65-13.22,7.31-27,11-40.23,14.62-56,23.06-111.11,21.09-168.78a138.62,138.62,0,0,0-5.06-34.32c7.88,1.69,34.32,5.07,34.88,3.38-1.12,8.44-4.22,16.31-4.78,24.75a308.41,308.41,0,0,1-3.66,35.45,574.3,574.3,0,0,0-4.78,74c0,12.94.28,26.16.56,38.82.57,27,1.41,58.23,8.72,84.67a14.73,14.73,0,0,0,2.53,5.63,5.28,5.28,0,0,0,5.63,1.12c2-1.41,3.1-4.22,3.66-6.19,5.06-15.47,6.75-30.38,6.75-45.29.56-12.94,2.53-25,3.09-38,.57-6.19,1.13-12.38,1.13-18.85,3.37,4.22,6.47,7.88,9.56,11.82a44.83,44.83,0,0,1,2.82,14.62c0,7,5.06,7.6,10.4,6.19,1.69,2.53,3.1,5.35,5.07,7.88,16.31,21.66,42.75,36.57,63,52.32a59.21,59.21,0,0,1,4.78,3.94c-2.53,8.16-5.06,16.59-7.31,25,0,1.41-.57,3.1,0,4.22,1.68,2.54,5.9,2.54,8.72.85a18,18,0,0,0,6.75-7c2-3.37,3.94-7,5.91-10.4,7,6.19,14.34,11.53,21.94,13.78,27.56,8.16-4.79-27.85-9.29-33.19l-1.68-1.69c9.84-19.69,18.84-39.66,28.13-59.07,12.94-26.45,19.12-55.42,20.25-84.11C1330.39,443.51,1330.39,437.89,1328.14,434ZM1066.53,482.9c-2,19.69-7.32,39.1-8.72,58.23-.57,6.75,4.22,36.56-6.75,36.56-4.22,0-6.47-5.34-7.32-9.28-14.63-66.39-11.81-132.21,3.1-200.57,1.12-4.5,2-9.28,3.65-13.78a13.87,13.87,0,0,1,3.1-5.63c3.09-3.65,9.84-1.4,12.94,2.82,2.53,4.78,3.09,10.41,3.65,15.47C1072.15,405.54,1070.47,444.36,1066.53,482.9Zm97.89-56.83c1.69-14.62,2.53-28.13,1.69-42.19,0-3.1-4.78-38.26-6.19-38.26,6.75,0,13.5.56,19.69.85,6.19.56,12.94,1.12,18,6.18,3.66,3.38,5.07,8.16,5.63,12.38a21.39,21.39,0,0,1-6.19,17.72c-.56.28-.56,1.13-1.12,1.41a85.4,85.4,0,0,0-8.16,6.75c-2.53,3.38-4.22,7.6-6.19,11C1176.52,410,1167,416,1164.42,426.07Z"/><path class="cls-3" d="M1591.6,666.5c18.71,0,37.33-.33,56,.08,23.73.5,47.46,1.4,71.11,2.48,9.8.49,19.77.74,29.5,2.63,23.15,4.45,36.91,18.71,43.25,41.2,3.38,12,4.62,24.22,5.69,36.5,2.88,33,2.31,66.08,1.48,99.12-.49,19.53-1.32,39.22-6.26,58.34-2.06,7.82-4.45,15.65-9,22.49-8.24,12.44-20.1,19.53-34.61,22.17-12.44,2.3-25,2.55-37.65,3.13-23.32,1.07-46.64,1.56-70,2.14-27.61.74-55.21.58-82.73.33-22.33-.25-44.74-.74-67.07-1.65-18.87-.74-37.82-1.07-56.44-4.7a55.78,55.78,0,0,1-27.35-13.34c-7.42-6.76-11.21-15.49-14-24.72-6-19.78-6.43-40.21-7.66-60.65-1.4-23.89-1-47.78-.41-71.6.49-20.1,1.4-40.29,5.6-60.06,2.47-11.7,5.85-23.32,14.34-32.3,10.46-11,23.81-16.32,38.89-17.39,18-1.23,36.17-2.06,54.21-2.8C1529.56,666.58,1560.62,666.17,1591.6,666.5Zm68.47,141.06c-.32-1-1.23-1.15-1.89-1.48q-29-15.33-58.25-30.65-23.12-12.12-46.23-24.39c-4.28-2.23-4.36-2.14-4.36,2.8V862.52c-.09,2.14.74,2.8,2.72,1.73,2.38-1.32,4.77-2.64,7.25-4q48.69-25.2,97.47-50.5C1657.93,809.13,1659.42,808.88,1660.07,807.56Z"/></svg>